<mxfile host="Electron" modified="2023-04-27T10:21:06.999Z" agent="Mozilla/5.0 (Windows NT 10.0; Win64; x64) AppleWebKit/537.36 (KHTML, like Gecko) draw.io/21.2.1 Chrome/112.0.5615.87 Electron/24.1.2 Safari/537.36" etag="jqyjFGbwsxCbmh2uUAtI" version="21.2.1" type="device">
  <diagram name="페이지-1" id="ioVEA5BBNWvlyDOfGxAS">
    <mxGraphModel dx="284" dy="614" grid="1" gridSize="10" guides="1" tooltips="1" connect="1" arrows="1" fold="1" page="1" pageScale="1" pageWidth="827" pageHeight="1169" math="0" shadow="0">
      <root>
        <mxCell id="0" />
        <mxCell id="1" parent="0" />
        <mxCell id="PBqsT4uJmQTrFhfudgir-1" value="" style="rounded=0;whiteSpace=wrap;html=1;" parent="1" vertex="1">
          <mxGeometry x="170" y="180" width="430" height="580" as="geometry" />
        </mxCell>
        <mxCell id="PBqsT4uJmQTrFhfudgir-2" value="&lt;font style=&quot;font-size: 21px;&quot;&gt;생활 계산기 &lt;/font&gt;&lt;font style=&quot;font-size: 11px;&quot;&gt;Daily Calc&lt;/font&gt;" style="rounded=0;whiteSpace=wrap;html=1;strokeColor=none;" parent="1" vertex="1">
          <mxGeometry x="170" y="182" width="180" height="40" as="geometry" />
        </mxCell>
        <mxCell id="PBqsT4uJmQTrFhfudgir-4" value="" style="rounded=0;whiteSpace=wrap;html=1;" parent="1" vertex="1">
          <mxGeometry x="170" y="220" width="430" height="10" as="geometry" />
        </mxCell>
        <mxCell id="PBqsT4uJmQTrFhfudgir-6" value="" style="rounded=0;whiteSpace=wrap;html=1;" parent="1" vertex="1">
          <mxGeometry x="320" y="230" width="280" height="530" as="geometry" />
        </mxCell>
        <mxCell id="PBqsT4uJmQTrFhfudgir-33" value="" style="rounded=0;whiteSpace=wrap;html=1;" parent="1" vertex="1">
          <mxGeometry x="1040" y="190" width="430" height="580" as="geometry" />
        </mxCell>
        <mxCell id="PBqsT4uJmQTrFhfudgir-34" value="&lt;font style=&quot;font-size: 21px;&quot;&gt;생활 계산기 &lt;/font&gt;&lt;font style=&quot;font-size: 11px;&quot;&gt;Daily Calc&lt;/font&gt;" style="rounded=0;whiteSpace=wrap;html=1;strokeColor=none;" parent="1" vertex="1">
          <mxGeometry x="1041" y="192" width="180" height="40" as="geometry" />
        </mxCell>
        <mxCell id="PBqsT4uJmQTrFhfudgir-35" value="" style="rounded=0;whiteSpace=wrap;html=1;" parent="1" vertex="1">
          <mxGeometry x="1040" y="230" width="430" height="10" as="geometry" />
        </mxCell>
        <mxCell id="PBqsT4uJmQTrFhfudgir-66" value="" style="rounded=0;whiteSpace=wrap;html=1;" parent="1" vertex="1">
          <mxGeometry x="320" y="230" width="280" height="70" as="geometry" />
        </mxCell>
        <mxCell id="PBqsT4uJmQTrFhfudgir-52" value="" style="rounded=0;whiteSpace=wrap;html=1;" parent="1" vertex="1">
          <mxGeometry x="1399" y="240" width="71" height="530" as="geometry" />
        </mxCell>
        <mxCell id="PBqsT4uJmQTrFhfudgir-51" value="" style="group" parent="1" vertex="1" connectable="0">
          <mxGeometry x="1410" y="250" width="50" height="50" as="geometry" />
        </mxCell>
        <mxCell id="PBqsT4uJmQTrFhfudgir-50" value="" style="rounded=1;whiteSpace=wrap;html=1;" parent="PBqsT4uJmQTrFhfudgir-51" vertex="1">
          <mxGeometry width="50" height="50" as="geometry" />
        </mxCell>
        <mxCell id="PBqsT4uJmQTrFhfudgir-49" value="" style="group;fillColor=default;container=0;" parent="PBqsT4uJmQTrFhfudgir-51" vertex="1" connectable="0">
          <mxGeometry x="7.083333333333334" y="7" width="35.833333333333336" height="36" as="geometry" />
        </mxCell>
        <mxCell id="PBqsT4uJmQTrFhfudgir-43" value="" style="rounded=1;whiteSpace=wrap;html=1;arcSize=50;" parent="PBqsT4uJmQTrFhfudgir-51" vertex="1">
          <mxGeometry x="7.083333333333334" y="7" width="35.833333333333336" height="7" as="geometry" />
        </mxCell>
        <mxCell id="PBqsT4uJmQTrFhfudgir-44" value="" style="rounded=1;whiteSpace=wrap;html=1;arcSize=50;fillColor=#000000;" parent="PBqsT4uJmQTrFhfudgir-51" vertex="1">
          <mxGeometry x="7.083333333333334" y="21" width="35.833333333333336" height="7" as="geometry" />
        </mxCell>
        <mxCell id="PBqsT4uJmQTrFhfudgir-45" value="" style="rounded=1;whiteSpace=wrap;html=1;arcSize=50;fillColor=#000000;" parent="PBqsT4uJmQTrFhfudgir-51" vertex="1">
          <mxGeometry x="7.083333333333334" y="7" width="35.833333333333336" height="7" as="geometry" />
        </mxCell>
        <mxCell id="PBqsT4uJmQTrFhfudgir-48" value="" style="rounded=1;whiteSpace=wrap;html=1;arcSize=50;fillColor=#000000;" parent="PBqsT4uJmQTrFhfudgir-51" vertex="1">
          <mxGeometry x="7.083333333333334" y="36" width="35.833333333333336" height="7" as="geometry" />
        </mxCell>
        <mxCell id="PBqsT4uJmQTrFhfudgir-64" value="&lt;span style=&quot;font-size: 21px;&quot;&gt;&lt;span style=&quot;background-color: rgb(189, 255, 168);&quot;&gt;단위 변환기:&lt;/span&gt;&amp;nbsp;&lt;span style=&quot;background-color: rgb(255, 222, 255);&quot;&gt;요리&lt;/span&gt;&lt;/span&gt;" style="rounded=0;whiteSpace=wrap;html=1;strokeColor=none;" parent="1" vertex="1">
          <mxGeometry x="390" y="240" width="196" height="25" as="geometry" />
        </mxCell>
        <mxCell id="PBqsT4uJmQTrFhfudgir-65" value="&lt;span style=&quot;font-size: 21px;&quot;&gt;&lt;font color=&quot;#707070&quot;&gt;&lt;span style=&quot;background-color: rgb(189, 255, 168);&quot;&gt;unit converter&lt;/span&gt;:&lt;span style=&quot;background-color: rgb(255, 222, 255);&quot;&gt;cook&lt;/span&gt;&lt;/font&gt;&lt;/span&gt;" style="rounded=0;whiteSpace=wrap;html=1;strokeColor=none;" parent="1" vertex="1">
          <mxGeometry x="368.98" y="266" width="210" height="25" as="geometry" />
        </mxCell>
        <mxCell id="PBqsT4uJmQTrFhfudgir-7" value="" style="rounded=1;whiteSpace=wrap;html=1;" parent="1" vertex="1">
          <mxGeometry x="326" y="235" width="60" height="60" as="geometry" />
        </mxCell>
        <mxCell id="PBqsT4uJmQTrFhfudgir-25" value="" style="shape=image;verticalLabelPosition=bottom;labelBackgroundColor=default;verticalAlign=top;aspect=fixed;imageAspect=0;image=data:image/jpeg,/9j/4AAQSkZJRgABAQEBLAEsAAD/4QCdRXhpZgAASUkqAAgAAAABAA4BAgB7AAAAGgAAAAAAAABLaXRjaGVuIFNjYWxlcyB3ZWlnaHQgbWFjaGluZXJ5IHdpdGggbG9hZCBpY29uLiBLaXRjaGVuIGFwcGxpYW5jZXMgZm9yIGNvb2tpbmcgSWxsdXN0cmF0aW9uLiBTaW1wbGUgdGhpbiBsaW5lIHN0eWxlIHN5bWJvbC7/4QWgaHR0cDovL25zLmFkb2JlLmNvbS94YXAvMS4wLwA8P3hwYWNrZXQgYmVnaW49Iu+7vyIgaWQ9Ilc1TTBNcENlaGlIenJlU3pOVGN6a2M5ZCI/Pgo8eDp4bXBtZXRhIHhtbG5zOng9ImFkb2JlOm5zOm1ldGEvIj4KCTxyZGY6UkRGIHhtbG5zOnJkZj0iaHR0cDovL3d3dy53My5vcmcvMTk5OS8wMi8yMi1yZGYtc3ludGF4LW5zIyI+CgkJPHJkZjpEZXNjcmlwdGlvbiByZGY6YWJvdXQ9IiIgeG1sbnM6cGhvdG9zaG9wPSJodHRwOi8vbnMuYWRvYmUuY29tL3Bob3Rvc2hvcC8xLjAvIiB4bWxuczpJcHRjNHhtcENvcmU9Imh0dHA6Ly9pcHRjLm9yZy9zdGQvSXB0YzR4bXBDb3JlLzEuMC94bWxucy8iICAgeG1sbnM6R2V0dHlJbWFnZXNHSUZUPSJodHRwOi8veG1wLmdldHR5aW1hZ2VzLmNvbS9naWZ0LzEuMC8iIHhtbG5zOmRjPSJodHRwOi8vcHVybC5vcmcvZGMvZWxlbWVudHMvMS4xLyIgeG1sbnM6cGx1cz0iaHR0cDovL25zLnVzZXBsdXMub3JnL2xkZi94bXAvMS4wLyIgIHhtbG5zOmlwdGNFeHQ9Imh0dHA6Ly9pcHRjLm9yZy9zdGQvSXB0YzR4bXBFeHQvMjAwOC0wMi0yOS8iIHhtbG5zOnhtcFJpZ2h0cz0iaHR0cDovL25zLmFkb2JlLmNvbS94YXAvMS4wL3JpZ2h0cy8iIHBob3Rvc2hvcDpDcmVkaXQ9IkdldHR5IEltYWdlcy9pU3RvY2twaG90byIgR2V0dHlJbWFnZXNHSUZUOkFzc2V0SUQ9IjExMjU4MDEzOTMiIHhtcFJpZ2h0czpXZWJTdGF0ZW1lbnQ9Imh0dHBzOi8vd3d3LmlzdG9ja3Bob3RvLmNvbS9sZWdhbC9saWNlbnNlLWFncmVlbWVudD91dG1fbWVkaXVtPW9yZ2FuaWMmYW1wO3V0bV9zb3VyY2U9Z29vZ2xlJmFtcDt1dG1fY2FtcGFpZ249aXB0Y3VybCIgPgo8ZGM6Y3JlYXRvcj48cmRmOlNlcT48cmRmOmxpPlZlY3RvciBBcnRpc3Q8L3JkZjpsaT48L3JkZjpTZXE+PC9kYzpjcmVhdG9yPjxkYzpkZXNjcmlwdGlvbj48cmRmOkFsdD48cmRmOmxpIHhtbDpsYW5nPSJ4LWRlZmF1bHQiPktpdGNoZW4gU2NhbGVzIHdlaWdodCBtYWNoaW5lcnkgd2l0aCBsb2FkIGljb24uIEtpdGNoZW4gYXBwbGlhbmNlcyBmb3IgY29va2luZyBJbGx1c3RyYXRpb24uIFNpbXBsZSB0aGluIGxpbmUgc3R5bGUgc3ltYm9sLjwvcmRmOmxpPjwvcmRmOkFsdD48L2RjOmRlc2NyaXB0aW9uPgo8cGx1czpMaWNlbnNvcj48cmRmOlNlcT48cmRmOmxpIHJkZjpwYXJzZVR5cGU9J1Jlc291cmNlJz48cGx1czpMaWNlbnNvclVSTD5odHRwczovL3d3dy5pc3RvY2twaG90by5jb20vcGhvdG8vbGljZW5zZS1nbTExMjU4MDEzOTMtP3V0bV9tZWRpdW09b3JnYW5pYyZhbXA7dXRtX3NvdXJjZT1nb29nbGUmYW1wO3V0bV9jYW1wYWlnbj1pcHRjdXJsPC9wbHVzOkxpY2Vuc29yVVJMPjwvcmRmOmxpPjwvcmRmOlNlcT48L3BsdXM6TGljZW5zb3I+CgkJPC9yZGY6RGVzY3JpcHRpb24+Cgk8L3JkZjpSREY+CjwveDp4bXBtZXRhPgo8P3hwYWNrZXQgZW5kPSJ3Ij8+Cv/tAMxQaG90b3Nob3AgMy4wADhCSU0EBAAAAAAArxwCUAANVmVjdG9yIEFydGlzdBwCeAB7S2l0Y2hlbiBTY2FsZXMgd2VpZ2h0IG1hY2hpbmVyeSB3aXRoIGxvYWQgaWNvbi4gS2l0Y2hlbiBhcHBsaWFuY2VzIGZvciBjb29raW5nIElsbHVzdHJhdGlvbi4gU2ltcGxlIHRoaW4gbGluZSBzdHlsZSBzeW1ib2wuHAJuABhHZXR0eSBJbWFnZXMvaVN0b2NrcGhvdG8A/9sAQwAFAwQEBAMFBAQEBQUFBgcMCAcHBwcPCwsJDBEPEhIRDxERExYcFxMUGhURERghGBodHR8fHxMXIiQiHiQcHh8e/9sAQwEFBQUHBgcOCAgOHhQRFB4eHh4eHh4eHh4eHh4eHh4eHh4eHh4eHh4eHh4eHh4eHh4eHh4eHh4eHh4eHh4eHh4e/8AAEQgEAAP/AwEiAAIRAQMRAf/EAB0AAQABBQEBAQAAAAAAAAAAAAADAQIECAkFBwb/xABaEAACAQIDAwYGCwoMBAYCAwAAAQIDEQQFEgYhMQcTQVFhcQgigZGh0RQYIzJSVnKUscHSCRYXMzRCVGKC4RVTV3OSk5Wio7LT8CRDdcI2OGN0s/ElNzWDhf/EABQBAQAAAAAAAAAAAAAAAAAAAAD/xAAUEQEAAAAAAAAAAAAAAAAAAAAA/9oADAMBAAIRAxEAPwDcsAAAAAAAAAAAAAAAAAAAAAAAAAAAAAAAAAAAAAAAAAAAAAAAAAAAAAAAAAAAAAAAAAAAAAAAAAAAAAAAAAAAAAAAAAAAAAAAAAAAAAAAAAAAAAAAAAAAAAAAAAAAAAAAAAAAAAAAAAAAAAAAAAAAAAAAAAAAAAAAAAAAAAAAAAAAAAAAAAAAAAAAAAAAAAAAAAAAAAAAAAAAAAAAAAAAAAAAAAAAAAAAAAAAAAAAAAAAAAAAAAAAAAAAAAAAAAAAAAAAAAAAAAAAAAAAAAAAAAAAAAAAAAAAAAAAAAAAAAAAAAAAAAAAAAAAAAAAAAAAAAAAAAAAAAAAAAAAAAAAAAAAAAAAAAAAAAAAAAAAAAAAAAAAAAAAAAAAAAAAAAAAAAAAAAAAAAAAAAAAAAAAAAAAAAAAAAAAAAAAAAAAAAAAAAAAAAAAAAAAAAAAAAAAAAAAAAAAAAAAAAAAAAAAAAAAAAAAAAAAAAAAAAAAAAAAAAAAAAAAAAAAAAAAAAAAAAAAAAAAAAAAAAAAAAAAAAAAAAAAAAAAAAAAAAAAAAAAAAAAAAAAAAAAAAAAAAAAAAAAAAAAAAAAAAAAAAAAAAAAAAAAAAAAAAAAAAAAAAAAAAAAAAAAAAAAAAAAAAAAAAAAAAAAAAAAAAAAAAAAAAAAAAAAAAAAAAAAAAAAAAAAAAAAAAAARTrT1yjToyqaXZtSS38envK0ajm5KUHCUeKbuBIAAAAAAAAAAAAAAAAAAAAAAAAAAAAAAAAC2rONOGqV+pJcWyOVWpCOupRtDpaldx7wJgWznGEHOUkorfdkaq1Jv3OhK3wpvT+/0ATAidStHjQ1L9Sd/psXUqsKl1Fu64xas15ALwAAAAAAAAAAAAAFKklCEpy4RV2QyrVYpuWGmore3qj6wJwUi1KKkuDVyoAAAAAAAAAAAAAAAAAAAAAAAAAAAAAAAI51WqnN04a5Wu99kl2gSAjhVbqc3Uhola633TXYKtWMGo75TfCMVdgSAiU67V+ZjHslPf6EynPyh+NoygvhLxl6AJgUi1KKlFpp8GioAAAAAAAAAAAACOrUcJKMYOcmm7JpbvL3gSAihWk6ihUpSpuV7Xad/MSgAAAAAAAAAAAAAAAAAAAAAAAAAAAAAAAPcrsACGNWpOOunRvDoblZy7iSlUjUhqV10NPimBcCHn9TtRpyqW4tbl539RVzrpX5mD7FU3+lASgihXi5KElKnN8Iy6e7oZKAAAAAAAQrC0VvSmn1qcvWUbqUN85OpS6ZPjHv60BOCyrUjThre/qS6WWKnUqb603FfAg7W73xYEwIVhaK4KafWpy9ZR85Q3uTqU+m/vo+sC6h+Mr/AM5/2opR/Ka/7P0FaH4yv/Of9qI1UjTr15S64pJcW7cEBkghhTnPxq0pJvhGMmtPm4sjUVKrpoudovxpucml2LfvYGUAAAAAAAAAAAAAAAAAAAAAAAAAAAAAjxClpjOMdThLVbrX+2WSxEHFqnec3wjZ+nqL8S3Gi2nZ3S87RZXpqnRnUjKpqirq9ST+sClGnqqKMt8aKUV8q3H6C+pVkqnN06eudru7sku8pB83iZwluVTxovrdrNehFalOfOc7SklK1nGXCS+oCjqVoO86Hi9cJareSyFJSnVdaSaXvYLs6wq6i7VoSpPre+Pn9YqePXhBuWlwb3Sa33XV3gKt5YiFPVJRcHLxXbg16y2zp4mnFTm1JSvqlfhYkhRhGpzi1uVrXc293lfYVqUoVHGUtV48GpNfQBeCCpBU1GUHO+qK3zb3NrrZWU51ZuFJ6Yp2lO19/UgJgQ+xqT3zdSb63Nj2PGK9ynOm/lNrzMCYEVKpLW6VVJTSumuEl1oVaknPmqSTna7b4RQEoIfY8ZfjJ1Kj7ZNehD2PCP4udSD61Jv0PcBXGfklb5D+guxH4ip8l/QQV5z9j16VRLUqbaa4NfUT4j8RU+S/oAUPxMPkr6C8x41JOEKVGznpV2+EVbp9RdOnTpwc6lSpZcXzkt/kQEwIcNGe+ctUYv3sZSbfluTAAAAAAAAAAAAAAAAAAAAAAAAAAAAIHNUa03NNQnZqVuDtazJyGS14hwk5KKgmrSa6X1AWVKqlJVIpuFJOTla193BEuHp6IXlvqS3zfb6iOdPx5UVKWmdOV7yb37l095JQqc5TTatJbpLqfSBZCtVqLXSopwfvXKdr9trMOtVUXF0JKp+b0xflEI1qEVCCVWmtyV7SS6upl9OtCb0ptSXGMlZgVow5umo3u+l9bIqMOdg5ynUT1SW6TS3NorRgqsHObnfVJbptcG10MlpU40oaIJpXb3tvi79IFmFk3Cabb0zcU31IlIvY9O8mta1O7tUkt/nLVJUZ1E3LRGMWrtt3d+vyATghUKtXxqspQj0Qi7ed+oexaPwZf05esCYELp1KXjUpOa+BJ38z9ZJTqRnT1p7um/QBcCCLqV1qjJ06T4Ne+l29iKvC0Xvam31ucvWBMRS/K4fzcvpiUdKpT30Ztr4E3dPy8UUhNVMRSmk0nTlx74gVq/lVD9r6CYgrtRxNFtpJKV2+4Rc671XlCl0WdnLt7EBODGrRhGSp0+clUfBc7KyXW9/AyKacYJSlqaW9gVAAAAAAAAAAAAAAAAAAAAAAAAAAAtqx10pwvbVFouAEEcRCMUql4TW5xs/R1llpTahJOKqyc5Lp0pJW8u70l9CmqlGFSUqmqSu7VJL6yyMnFU60neMXKEm+hX4+hATVZqlCKUG23pjGPSW68Qkm6EH1pVN/0F1anzii4y0yi7xfHeW87Uh+OpO3wob15uIFLyrzilGUIR8aWpWbfQi7FScaas2rzjHd2tIpWqKVGMqcrqUoq6fQ2kyrw9NtX5x2aavUlxW/rAjxEOapOpGpUumuM21xMktqwjUg4TTcXxs7FjowSvqqf1kvWBKDHjVm6VKMUpVZQTd+C7WXex1Je61JzfynFeZAUeFpJN0705/Ci9/7y+hJ1KKc0tW+Ml0XTsyx4qk1am3Un0Rit/7i+hF06KU2tW+Un0XbuwMfC3lXdN8KF0r9rdvR9JNWcp1Y0IycU1qm1xt1L/fQQ4Xxa7qPhXu0+5u3ofoJqylCtGvGLkraZpcbdD/31gU9i0VvinCXwlJ3KxoylJSrT16feq1lfr7ynsuhwjJyl8FJt+Yc9UhaVanpg+lO+nv9YF1D8ZX/AJz/ALUVVGmq8q1rzatdvh3FMP8AjK/85/2xI3XnDE1NaToxtvXGO7j3AXSlKvUnSg3CMHab4N9i9ZNCMYRUYpKK4JEdam5NVabUaiW59DXU+wuo1VUT3OMo7pRfFMC8AAAAAAAAAAAAAAAAAAAAAAAAAAAABFi/xP7Uf8yGM/JanyWMX+J/aj/mQxn5LU+SwL6kI1I6Zq6I9Nen7ySqx6p7n5w6lSpJqjpUY8ZSW5vqXrHsmMFaunSa61u8jAup1Y1G4OLjNLfCS32+shqUacKkISgpUpuyi/zX2dhXWq+IpSpXcYXbnbc91rLr/cX4ne6UVxdRejeBZCjSpY2PNwUb05Xt074lcVCFTE0IVIqUfGdn5C+e7F02+mEku+6f1FuJahVpVZboRupPquuPoAtrUaNCjOrTpQU4xdml0kvi4fDvjppxu+t2LKs6eIoVKdKrCUnHdZ3L/FxGHfHTUjbtVwI4YdVIKWIvOUt7V9y7EhKHseUZU7qm5KMoXut7tddQhiI04qOI9zmtzbW59qYlP2RKMaV3BSUpTtu3O9l1gXYzxaSqrjTkpeTp9Awa9wU3xqeO33/ushjPGpKkuNRqPk6fRcrg37gocHT8Rru/dZgR04LEp1Kjbg21CF91ut9ZfzHNtOhLR1xe+L8hZTmsMnTqpxgm9M7brdT6i5V1UaWHWvrl+avKBbWpKng6zu5SlB6pPi9xkTipQcXwaszGr1dWGrU5x0VFB7uh7uKfSZFZuNKclxUW0BYlSwuGdk1CCu+lspTg6klWq2vxjFcI+tlMNVlKMYVklU0p7uEl1oo08M9UVeh0r4Hauz6AMgBNNXTumAAAAAAAAAAAAAAAAAAAAAAAAAAAAES/K5fza+lkpEvyuX82vpYB/lcf5t/SitSipS1xk4T+FHp7+ssrTjTxClJ7lTf0oa8QkpyppxfGC99H1gV5ytT/ABlNTj8Kn6v/ALLpRpYimne64xkuK7i32VQW5z0y+C00/MMJGSjUm4uKnNyUXxSsvVfygR0qNGo5qtShKpB2k7cepl+BSjh9KVkpzSX7TK0d+IrSXBWj5Uv3lcJupyj0qcr/ANJsCGhh6NR1Z1KcZS5yW9ou5unHEU6UIKMUnNpLi+C+kUqtOjOpCrNQbm5LU7XT6i6Uo+yKVVSTjJOF1wvxX0AVxEpOcKMJOLnduS6EuP0oexaHFwbl8Jyd/OMRGSnCtCLk4XTiuLT428yKey8PwdSz+DZ38wFaDlGc6M25aUnGT4tO/HzENdf8VzHCNZpvyXv50kTUFKU51pRcdVlGL4pLr85DXf8AxSr/AJtGyflvfzJoDIxE3CmtFtcmoxv1ss9i0nvmnUl8KTd/3F+JhKdNOFtcWpRv1os9lUVunJ05fBkrMA6E2ublWk6V+D9811X6irSjiqaSSSpysl3xKc7Vac40XoT4PdJrrsIzjUxNOUXdc3L6YgX1qNOrKEpq+h3Svu8pSvVanGjTS5yabTfBJdPb3FuJqVYVaSpJSvfVF9KS6C5qniKSabtxTW5xfrAupU4007XcnvlJ8Wy8ipVJKfNVbKfQ+iS616iUAAAAAAAAAAAAAAAAAAAAAAAAAAAAAAiwf5LT+ShhVehZ/Cl9LGD/ACWn8lEVGpLm1SppOblJu/CK1PewJOanT/ETSj8CW9eTqKxrWkoVoOnJ7k73i32P1lOdnTdq0XbonFXXl6iPEVaeIoypUXzkpblbhHtb6ALsTTjGMq0Yrcrzj0SXrLK2HoQhTqU6UYvnIWaX6yMivJQozk96UX5SKrHThKal+Y4N+RoCuPV8LNPg7J+dFVhMMnfmIeYrjIuWGmopt7nZdNncQxNCbSjWhd9F9/mAphEnCVS2+cn5k7JegtjH2ROcpuXNxk4xina9uLflLsJ4sZUumEn5m7r6S2MvY85xmpc3KTlGSV0r8U/KBd7Kovg5N9Sg/UUaqV90ounS6U/fS7OxElWqoNLTKTfBRRWnNVI6ldb7bwKVacakNL3dKa6GWKrUp7q0G18OCun5OKJgBD7Ko/Ck+xQfqKN1K3iqMqVPpb98+7qJwBBCUaM6ilGdpSvG0G91kujuK0PGq1Z2emVrXTXR2kwAgSlh5WinKi+hK7h+4srThJqpT5yNSPB81KzXU93AyiCpi6NOo4SbuupX6vWgJoNygm1Ztb0VKQkpxUo8CoAAAAAAAAAAAAAAAAAAAAAAAAAAAR4lOVFpK+9PzNEdepGpRnTgqmqSsr05L6ieclCLk+CLaVSNS9k007NPigLNFWk26Xjw+A3vXc/qHsmmvfxqQfVKD+lbiYAQ+yYS3U4zqPsi0vOytKnLW6tVpzaskuEV1F1WpGmlqvd8EldsseI021Uaqv8Aq3+jgBdXpucU4u04u8X2lvshRVq0J033Nrzoli1KKkuDV0UqTUI6pX4pbgIJVYVa1LmrycZb/FfCz/cXuE6U3OktUW7yhe2/rXqK+yKfib34yuvPYlAh9k0lulrg+pwY9kRl+KhOo+yLS87JiF4iN/ez03tqtuuBWlTlrdWq05tWSXCK6kKlOanztK2q1pRfCSJQBD7JhH8ZGpTfU4t+lbh7JpvdCNSb6lB/S9xMAMarSq1KVSU7anBqME9yuvSy6rWhKnOEVUu4tL3OXqJwBE6SnQhGV1KKVmuKZSNaUFprRlqXTGDafbuJilSShBzlwSuwMei1GtppKfNy/NcGtL7Lrh2GSQU8XRnJRTd724dtvpJwAAAAAAAAAAAAAAAAAAAAAAAAAAAEM5c3iHOSlpcElaLfS+omI6taNN2ak7K7suCAjlFV6ya1xSi9+lxad11lynWp7qkHNfDgvpXqJk7q6AEPsqj0ykuxwfqDqVKni0YSin+fJWt3LpJiKVeOtxhGc2uOlbl5eAF9KEacFCN93S+L7SOcZ0qkqlOOuMvfRXG/WisK8ZT0OE4v9aNiUCH2VRW5uUX1OD9RbRjGqqyafNyleO5roX1kkq0I1VTd9Tt6f/plaVWFRtRvu/39QFinVpeLVjKceicVfzr1D2VQ+FL+g/UTFtSapx1Sv5AI3UqVPFowcU/z5K3mRfTpxhT0JXXTfpKU6qnJx0yi0r2kiQCCPOUPFUXUpLhb30eztRX2VR6ZST6nB+omAELrTqbqNOW/8+asl5OLLdPM1ITbnJaZKUrNtttdXcZAAg1KriKcoqVo3veLX0lakJQm6tFXb99D4X7yYAY9WpRqQ0yjVXSmqcrp9a3F+GlOVPx97TtezV+2zFevTotKd9/Dz2+tFaNaFZNwb3dasBIAAAAAAAAAAAAAAAAAAAAAAAAAAAAAx6FSNOjCnNVNUVZ2pyf1FKVKpGCnTlpk224y4NXfmJadaE5qKUldXV1xJAIef0r3WnOD7FqXnQ9k0nujrk+pQZMUnKMIuUmklxbAhUZ1pKVSOiCd1Dpb636iacYzg4SV01ZkTxHi6uZrOPXp+rj6CSnONSN43VnZpoCKNSdJaa0ZSS4Tir370uksxFelUoThBycpRelaHx6OgynuVyFYim4alfila2934AVnCTcatNqNRLenwa6mU9kKK91hOm/ktrzolhJTgpxd01dFQIa8VqoX3tT4+RmEopUaaUVvpQcd7Vm2l0PgZ1enOcoThKKcHdKSdr+RmOsHNR0qcGrJb9W5J3SW8CNQk6vNJrUpST46dyTva/Heukpz01DRv082qlk31Lxb8bXZMsJUvfnIp3b1JPVd27exBYOV03KCcY6Ekm011NN7wIq1PmU9ahJ83KUdOpK6V96vvQoKddxi5JvS3492krtJJX7CWOEqJSV6VpRcXdSd11b3u8hjVqdWlLSnBpN2U248elSv6AL4qWujCD0SlKSlLU3wfRd9/oIqVZaoylKjTi379VlePU76t5k4WlKpCOvStEbKUFZXvfdfqst/SXRwctXGCXXFPd3JuyAxY1J1XTlJU5Tb8eDlZvfutv4W6jNp4ejVpQnO83ptfhfh6iP2HJSjpdNqLvG+q/G++z3mXSgqdNQTbt0vpArCKhFRjwRUAAAAAAAAAAAAAAAAAAAAAAAAAAAALayTpTTV1pZ5+Ho86r01BNU4anO7u9K4b9249CrFzpygna6MWWEqStd0tyUUkpLd1bnv8oGO9bfDUp01KndtuLtwvffwdvIS4Nc7OE4u6fj6ne7jfxem2+z8hfXp81RSutUpJuVt0bW4JfQS4Peqk7K8pveuro9AEOJfu8k27aoxfZFpv0uyIk4OpGFOlSpSl4qs5Rb7H4tjNr0VU3ppStZ3V011NEEMLUi7qcINdKTb7t7dl3AY9Ss6kISSgouTjGMppJJbuDau7lsKrc6K1U3aolKCnqS8ZWe57jKeDtBKEo8bu91v6007oujhGoLxo6k01ZblZ372BiRj7n72n7rGL4PxfGSst/l7ytZSpPQrak9N995N+9vv4Pen9RkPBy0JKUOFrWdlvT3b78UUxUpRqSs7SVNxTd7t7rPh0bwJMHDfKpF2g3aKV96W6/EsqQjLEONkr1uNunm3vMqklGnGMVZJJJdRjTw1SUnapFJy1at+pO1uu3ADGd9DqKMfEp6pK8t+98N+7hxL1CeptSutcoKTb1JpPfe9uK4WJHg5uLTlBLTpstVmup7+1l3saqpa1Onqu5Ws9N3xfHtAipueKlBtrxk3412kk7cL72RtuE6cYPTNzcZSu30pbrvhvJ1gnGCjGUdzuk77u5p3KVcLU5tb4PQm46E016ewCxQ1UoV2lolJK15arN24349hZOUowm7w0qrojFz0pcd+979y4X6y2HOqum3RaUtTa1Xf7F9z8naZfsWUqSb0qb3yT4Xu30b01fiBiRruK0qcFeaUowqJvR0uybsSYXxqtpc3pcraoPc1Z7mvWTRwbsm5RUk9SSu1ftu7srQwjhPVJwSum9N99r24t2W/gBLDC0YT1Ri73vx7bkwAAAAAAAAAAAAAAAAAAAAAAAAAAAADEzBQ1U3OLatO9uNtLMshr0pzqRnCUU4p21Ju3aBi8zNQp2lGDqKycG7xdrri9/AhUpSVOyUZTemyvZvc9+/hp3+RmVDByTs5QStbxU727Luy8hZiH7pUhFKN4qFrO7V9/Ru3N27wJsOnHDTqQVlJNwW/h0cekxk4fnQjUUVHQpJ2s1fVZJ8XfeekkkrLgYtXCt20ONlwUrpruad7dgGNGtoi504wspaIpSdoyfY0iypUcas7801GdnJ1Updrvq3PssZawbcVCc4une7hGNlf6Sjwk3Uvqg997tPf2tXs35AMaLdWU6eqE9c4pVVvdvGs00+z6S6MHUWqMIJ06d9MU1q8aW7j2ecyZYTxlpkrbruV73V96t3srToSozdS6klFpJJ3au39YGInqnOEUpJe9W+3je9tv6rt93QZtWmo4KpCT1eI+PcQYXfVpx3NQ1Pdfc293FdC3GXiKbq0pQTtfiBiSiuck7LfVjF9t4x6iHxo0oy4a4KUbSd+KVm77+K6jJ9jVec5zXT1XTtZ6brde1+otWDkklqg1p02aluV07Lf2ICxyqUJaE4pynzd0nbek07N9pRwvR5920arNXlrte3G/Hs8hLLBzl4spxa1atW/Ve1usPCVOc1KVO973afHrte1+2wEEZSdSdNOy5zRGN3bi97334IrXhzMat0nKKi04tpWbtwvuYxNCrT1STp+Pdyunpbvfruuu4wkak24yVNqUk3pblZLrk279G4COvKcKk4t0pyildyqK7dr/CWkrOs560qtOcVbm5SleLXTvW664bzJng25eK4ONreNfh1Ozs/KJ4OW/TKL1Wbcrp3XVZqwDDUoVabjUjZpp6b3tuXT5LmTRpQpJqCsn2luGo8zC11eySS4JJWSJQAAAAAAAAAAAAAAAAAAAAAAAAAAAAADznTjPEOCilJ1ZWbvZK0b7lx6C2qpU3vs4wnpnFXs1bVdb9ztfcZEsLUaa1U7atW9O7fXe+7yF0KPMwc5JSaTtGKdt/F9LbAxaacqkobpSjJQV72Tvfdv4ad/lRk4vVGNNR8ZxUnFNXvJLd6y3BK9SF2pKFOyaTVn08V1W8xlVaaqRs2007primB51SVGEL83Bq2rnZOWp9t0mVqVZxjVpvSnCKnK9Syk3uW92+om9iT139y434Pz2va5d7Eb1SlUU6jVm5R3SXagMLnGlKOulBtKyjNeNv3qybJKPjTpVdFNW5uOlJ23pb+PR0GTSwjTvNx8l235W35ikcJKKVpRTjptue+3C+8DFjB08PCdo+PDVG11ptvaSv1Xt3E2Ei6s4yTtZanJXu7+96ere+9F9SHM0aVNtJRmnffZJPguL4EuCvzUpNb5Sbf1eiwE4AAAAAAAAAAAAAAAAAAAAAAAAAAAAAAAAAAAAAAAAAAAAAAAAAAAAAAAAAAAAAAAAAAAAAAAAAAAAAAAAAAAAAAAAAAAAAAAAAAAAAAAAAAAAAAAAAAAAAAAAAAAAAAAAAAAAAAAAAAAAAAAAAAAAAAAAAAAAAAAAAAAAAAAAAAAAAAAAAAAAAAAAAAAAAAAAAAAAAAAAAAAAAAAAAAAAAAAAAAAAAAAAAAAAAAAAAAAAAAAAAAAAAAAAAAAAAAAAAAAAAAAAAAAAAAAAAAAAAAAAAAAAAAAAAAAAAAAAAAAAAAAAAAAAAAAAAAAAAAAAAAAAAAAAAAAAAAAAAAAAAAAAAAAAAAAAAAAAAAAAAAAAAAAAAAAAAAAAAAAAAAAAAAAAAAAAAAAAAAAAAAAAAAAAAAAAAAAAAAAAAAAAAAAAAAAAAAAAAAAAAAAAAAAAAAAAAAAAAAAAAAAAAAAAAAAAAAAAAAAAAAAAAAAAAAAAAAAAAAAAAAAAAAAAAAAAAAAAAAAAAAAAAAAAAAAAAAAAAAAAAAAAAAAAAAAAAAAAAAAAAAAAAAAAAAAAAAAAAAAAAAAAAAAAAAAAAAAAAAAAAAAAAAAAAAAAAAAAAAAAAAAAAAAAAAAAAAAAAAAAAAAAAAAAAAAAAAAAAAAAAAAAAAAAAAAAAAAAAAAAAAAAAAAAAAAAAAAAAAAAAAAAAAAAAAAAAAAAAAAAAAAAAAAAAAAAAAAAAAAAAAAAAAAAAAAAAAAAAAAAAAAAAAAAAAAAAAAAAAAAAAAAAAAAAAAAAAAAAAAAAAAAAAAAAAAAAAAAAAAAAAAAAAAAAAAAAAAAAAAAAAAAAAAAAAAAAAAAAAAAAAAAAAAAAAAAAAAAAAAAAAAAAAAAAAAAAAAAAAAAAAAAAAAAAAAAAAAAAAAAAAAAAAAAAAAAAAAAAAAAAAAAAAAAAAAAAAAAAAAAAAAAAAAAAAAAAAAAAAAAAAAAAAAAAAAAAAAAAAAAAAAAAAAAAAAAAAAAAAAAAAAAAAAAAAAAAAAAAAAAAAAAAAAAAAAAAAAAAAAAAAAAAAAAAAAAAAAAAAAAAAAAAAAAAAAAAAAAAAAAAAAAAAAAAAAAAAAAAAAAAAAAAAAAAAAAAAAAAAAAAAAAAAAAAAAAAAAAAAAAAAAAAAAAAAAAAAAAAAAAAAAAAAAAAAAAAAAAAAAAAAAAAAAAAAAAAAAAAAAAAAAAAAAAAAAAAAAAAAAAAAAAAAAAAAAAAAAAAAAAAAAAAAAAAAAAAAAAAAAAAAAAAAAAAAAAAAAAAAAAAAAAAAAAAAAAAAAAAAAAAAAAAAAAAAAAAAAAAAAAAAAAAAAAAAAAAAAAAAAAAAAAAAAAAAAAAAAAAAFlWpGna923wSV2y8hnKMMUpT3KUdMZPgnfh5d3mAujVTnolGUJPgpLiXznGEXKclFLpZFiJRlOFONnPUpbvzUuL+rylKEedlz89+96E+hdfewLlW1e8o1ZLrtb6bFHiIRfukZ0+2Ud3nW4rKutbjCnOo1uelKy8rKeyYL8ZGdJ2vaS4+bcBMmmrp3QIcLBxg5OKhqd1BfmoPnKlWcY1dCi0t0U77rgTAiouaqTpzlq0pO9rcb+olAAAAAAAAAFlWpGmk5Ju+5JK7ZeQ1/x+H+W/8AKwKwxEJSUXGpG7stUGiUgxXvqH86voZOAAAAAAAAAAAAAAAAAAAAAAAAAAAAAAAABE6y1OMITnp4uK3Ivp1I1I6ot9TTVmiLCSiqXNtqM4e+T+ny8Sx1G5VJ0fz3GEX0N77vzfQBNUrU4PS23LjpirvzIpzsrX5irbyesrGNPD0m27Jb5SfF9rLeflxWHrNddl9F7gXU69OctN3GXwZKz9JIY1apCvBU6aUpyfSt8O3sL8TUjQw06s5KMYRcm5OyVkBMD5xtdyubFbNKcMRtDHGYiC30MHBVpJ9Ta3J97NfNpvDdjGTp7ObDua6K2Oxdr/sQX1gblA5+4/wzeU+tNvC5Vs7hY9XsepP6ZjA+GZyn0aieJyzZ3ER6U8NUh9EwOgQNNdlvDchKpGntPsPoj01sBi72/YmvrPu/Jvy98l+3U6eHyvaOhhMdPcsHmD9j1W+pX3T/AGWwPqYKJ3V1vRUAAAIp14xk46akmtz0wbsXUqkaielSTXFNWaLMN+MxH87/ANqKUPynEfKj/lQE4AAAAAAAAAAAAAAAAAAAAAAAAAAAAAAAKTlGEXKTslxZHz6STnTqQi/zpLd5eryjFbowm1eMZpyXZ1+Tj5BVq0lRcm1OMlZJO+rsQEvRci9kQk7U4zqdsVu8/AjhB1HGjU3xpxWtfClbh3EtWrGm1FRlKTW6MVvsBR19Pv6NWP7N/ouX05wqR1QkpLrRH7IUfxlKpTXwpJNehuxSlapiJVYpKKWm6Xv36kBOCKs5upCnCWnUm72vwt6yi5ynVhGVXWpNrfFK264EwAAAAAAAAAApOShFyk7JK7IXiYLjTrJLi3TdiuO/I63yGXYv8lq/Il9AEid1dcGC2l+Kh8lFwAAAAAAAAAAAAAAAAAAAAAAAAAAAAAAIq+qU4Uk7KSbbsnwt195KRT/KqXyZfUBZCDoVIRUk1NtNaUuhvo7i/CP3CMHucPEa7hW/G0Plv/KxUpNz5ynLRO1nuun3oCyOug5LQ503JyvHiru+9dPkJadSnVXiyUrcV0os56UPx1Nx/Wj40fWi6dOnWSmnvt4s4vf5wLfdKlWcY1HBRaW5J33XLqNN03Nubm5O7bS6rEVODlUnCc5xqKzbg7KS6GX4dSjOrBzlNRkranw3ICs6UnVdSFWULpJpJPhf1lqdSGIhTlUc1NN70la1vWJRlUxM1ztSKjGNlF26yytS0qKU6kpzehNy4J8beRASc5UqtqjZRTs5y3ryLpDoze94mtfs0+ouqyVGj4sb2tGMVu38Ei1UqrV54ial+qkkv99oB8/S3356HVa0l9T9BLTnGcFOLunwI6M5qcqVVpyirqS/OXrIa8nRqShB2573vZK6TfpTAllUnOThRS3bpTfBesOjUe+WJq3/AFUkvoLpOGHoXS8WK3JcX+8sjSqyWqpWlFv82Fkl6wKtV6e+Mudj8GSSl5+BbOcalXDSje2t8VvXisrbEpOClGV+FRrel3dLKTgqdXDRTb8d3be9+KwK4r31D+dX0MrKpKdR06Nt3v5vguzvK4mi60YJTcNMtV1xEpU8PTjGMeyMVxbAsqqdOOqWJl1JaVdvq4EtDnObTqe+LaVOTnztazn0JcIrqXrJQAAAAAAAAAAAAAAAAAAAAAAAAAAAAADG5t13KUpJWk0loT4PtKSk4pSk7qjVSb4bmuPpJcN7yf8AOS+kUUnOunvWv/tQF2IpupScU7O6afanf6izn9G6vB038LjHz+sooVaKtStOHRCTs13M+KcuvLjlezNatspkGMo1NpZQtVi5r/hU+m3TPqXRxA9Tl05etjuS7CSw+Iq/wlntSnejl2HfjLqdR/mR9PYaxcqu3O2HKPro5ptHj8Dlk/e5fgnGlSS/WdtU/wBpnz3brZ1bQVcRmqnKWa1G5zqSk3zz/Wv09p+Eo7R7S1a0cPRx2InVb0xhGmm2+pKwH1rSub0dFrH4/wDB9lX6ZjfPH1GxmwPINtbtFhqeMzWUcjwk4p3r03Ks+6nut5Wj6rsX4OmxWU4WjUzXF5rnuI03lLFVlCDdvgwS+sDnJmuXPD59XyzCRqVnCs6dNWvKXmP12Tcn6lSjUzXFTjNq/NUbeL3yd/QvKdI8p5L+TvL8dUr4TYjIIVYf86WApyqSk97bk03wt52ZWY7B7GY1vDS2TyThqlUWBpprqSaXEDnHX2ByadNqnVxdKXQ9afoaPyG0uzWPyKSr6+ew17RrQVrPqkug6I7U+DzsdmUZVsorY3KcR8GElUpN9sGrryNdx8M5TuRbaTZ3Lq1arQWb5PODU6+Hg7wT+HDe49+9doHzrkM8JTbfYLE4fK8yrVto8juoexa8tVamv/Tm9/ke4342G2tyvbbJaebZNilGjJePRlbnqUvgyXCL85zK5P8AI40c/wAwq4hKbwNR0qd1xld+N5l6T93+E/POTPMsPj9nq6WNq++pzd6U6a4qS6ewDo2qM1vWJq37dLX0BVKlNpVknFuynFbr9q6D4vyIeEDsbyi5fSo1c1p5Jn9rVcvxlWKU3105O2qPdZn1HO9oskyjByx+e53l2W4OmtTnWxUIRb7W3w7APXw34zEfzv8A2otpyjCtiZzaUU1dv5KPhed+ErshSjivvWoVs+kqziqylzVG6jH85pt+ReU+bZry+7eYvHVa+Gll+DpSacKcMPq0tLjeTd2Bt/HnqvjanSi/eq2/vd/oLG6qqqnCtKpL85WVku00L2z8JnlFypyw2D2ijUxzW9exqTjS7X4vHs/2/N2X8LzlSymrGOYxynOaCfjRrYfm5yfyoW+gDoeDXXkm8LLYTa/EUcu2ho1Nl8wqNRi8RWVTDzf85ZW8qRsLRq069GFajOFSnJXjKMrprrTAlAAAAAAAAAAAAAAAAAAAAAAAAAAFmIk4Um48bped2IJ0nRjOsppuKb95FX9BLi/xP7Uf8yGL/JavyH9ACm9OIqwf51prt3JP6PSUqRqQrc9Tip3ioyjez3N8POX1aaqJb3GSd4yXFMs11qe6pT1r4UOPlXqAup16c5aLuMvgyVmUquXOQpwloum7pdVvWVTo4inbxZrqfFP6mQypuNWEJTnpd1CV96fV2/uAlhSkqqqTqynZNJNJcbeorWpuo4NTcHF3TSXVYsjGVPEwXO1JKUZXUnfqK4hSlOlBTlBSk76Xx3MC2tztGGvnnKzSs4rpaRfUqvXzdKOqdru73R7yypSjCnKc6lSUYrU05bt28kw8HCknL38vGm+0C3mqsvf4iaf6iSX1jm68N8K2vsqJb/Ki2mqlePOOpKnCW+MY2vbrbKp1KNSMZzc4TdlJpXT9QElGoqias4yjulF8UUq1XGShCOuo+i+5drLMTanKFfhpajLtT/f9ZXCK9LnX76p4zf0LzAOaqyXj4iUX1QSS9NxzdaK8Su5dlRJ381i2HOYjx1UdOlwjpteXbcu016b8WXOx6pbmvKBHiamvCV4yi4zjB3X1rsJsX+S1fkS+ghxFOUcHXnUlqnKDu+hdiMirDnKU4Xtqi1cCN1dNOnCC1VJRVo/W+wOFVRvLENWW+0VYUqcMNSblO7t485dJRRliGpVE40lvjB8Zdr9QFcNKctUnJyh+a2km/wBxMAAAAAAAAAAAAAAAAAAAAAAAAAAAAAin+VUvky+olIarUcRScmktMt78gFa342j8t/5WW+yOMo05Spp2cl6ulFuJ01nThGa3t3s+HisujW5pKFaKp23KSXifu8oEsJwnHVCSkn0pkWH0+yKyp+83Xtw1b7/UXczh6nj83Tlf86ydxKrSpJU4pNrhCC3+boAS/LIW4827+dW+sUfx9ddqfoQoQknKpUtrl0LoXQilW9Ktzyi5RatOy3q3B/SAg0sXUjfe4RfpYxO6VGb4Rqb/ACpr6yrjQxEU/FqJcGnw8pYqUVVlRt7lOnwv033/AEoC/FJumpRTk4SUrLptx9BfCcJwU4STi+lMijVdLxMQ7W4VOh9/Uy50cPUet0qcr776U7gW02quKdWO+EI6E+hu+/zWIsdvxNGV91LxpdibS+p+YnlWhH3OmlOa3KEejv6hSpWhLnLSlP3/AFd3cAxUZToSUVeSakl12d7egvpVIVIaoSTX0EUZuhaFW7gve1Ozt9Zc6VCr47p053/OsncCksRBSkkpTUffOKuolKslKthpRaacnZr5LLpVKNFKnG11whBb/MQaHTqUpzUYaqjk0uEfFYE+KrOjGDUHPVLTZcRKNPEU4zjLtjJcUyzETjKdBRlGTVRPc+xlZxlSm6tJXi984Lp7V2gXUajcnTqJKovNJdaJSGpKhWgnzsU+MZJ70yuHqud4ytqjxa4PtQEoAAAAAAAAAAAAAAAAAAAAAAAAAAAACLDe8n/OS+ksjUjTdaUv4yyS4t6VuK0JwipqU4p65bm+0+S+EByy5DyU5W8RWlDG5xiZNYTAwleTVknUfwYr08APK8KrlrfJlstLAZTTctpMfDTh92qGFg93OSfX1R6+w5043GY7MMyq5hicRWxGNr1XUnWlK851G7t367n23G7YUNtMwxGZ43MoY3F4qTlVjWfjd2l9C6FwK5Ds1h8bnFDC5RlGHljq81CkqVGKk2+p23AZ2wmRZ3tJiMuynBYaWIzOvTgpxXCMrLVJvoSfSbTcifIPspyf4fEZ1WwtHNNocTKpUnjasNSo3k7RpJ+9XbxZ+g5GeT3BbD5CoU1DEZviYr2ZjEt0f1IPpS9PE+kRhGNNQStFKyQCPjUVbpjuLMI1LC0mn+YvoLKU1RSo1XpUd0JPg10eUveHoSlr5tXe/c7XApR3V60OltS8jVvqKalSxUnPdGqlZvhddH++0spxqSoUqsbc7BaXfhLrXoJY1aVW9OdlJ8YTW/zdIF1WpClDVN9y6X3EeHpJYZU6kU7puUWrre729JcqWHpe6aKcLfnWSsWTm8R4lK6pv30+tdS9YGuXKvyD4bEYrMdpNh8OqWKxUniK+AW6NXe05U+p2S3cHfcagcr+UY2hi6OLqYepDmU6NeEotOm07rUnw4nU+rTbUXTtGcPe9Xd3Hz3lJ5Ldk9u4ynjqCy/NGtPsmlFKUvlLhNentA5YQctXi31dFj085wWdYSjQnmUMSqdSN6bqSbS7H1PsNvc+8GfaPJsZLE5NgsnzCCd41aMY0qiXapLd52fmc35FOU3MsJUy/BbKwrzqrS6levTVGHa23vfcB8k5Lv8Aw1L/ANxP6InrxznDLaCeTVfc6+iMqTb3TuuHebAcjPgu4nKcr5rbbPKEZxrOcsNgd97pbnN8PIj7tsxyX7AZLXrVMBstlUqyUYrE1sPGrWe7+Mldgc9tt9jqmZ0pY/A4WccZFeMtDSqr19p8tq06lKpKlUhKE4u0oyVmn1HYanhsLQXserh6HN/mSdNWfY+0/BcpPI5ybbb4epLNtnMvWKmt+KwsI0a9+tTit777gcszYjwX/CIzTk+x+H2d2oxNXHbLVpqN5XnUwV/zodceuPmPzvhF8hWeclOOp46jUnmezmKnbDY3RplTf8XUXQ+3gz4yB2Oy7GYXMsDQx+Cr08RhcRTVSlVpyvGcXvTTMo0v8ArldqrEPkwz7FOdOSdXJ6lSXvGt86Pd+cvKboAAAAAAAAAAAAAAAAAAAAAAAAARYv8AE/tR/wAyGL/JavyH9Axf4h/Kj9KLcVUhLDVFGcW3F2SYF1Ss1NwpwdSSV2k7W/eXUq1Op72W9cYvc13oii5YfUpQcoNt64q78q+svth8RvtTq26dzsBbU0+y6Wj3+/Vb4Nnx8ti7Fe8h185G3nX1XHuGHjwhTv0JWb9ZSClVqqpKLjCPvIvi31sCtTdiqXapL6CldpVaDbstbX91l2IhJqM4JOcHdLr615ikZ0a8XB2fXCS3ryAVxMXPD1ILi4tLzFU41qF1dKcfpRFOlGjKnKkmvHSlvb3O69RXfh5PxXKi3fcruL9QFcJUUqSg91SC0yj1MpXaqVadGLu1JTlb81LeXacPiFqtTqW3X3OwcqGHWlaYX3qMVvfkQFmYR14fmlxnJJee/wBCZfhHfDU306Un3riUpxnOpz1RabK0I9Xa+0o1KhOU4xcqcneSXGL60AwclGmqEnadNaWutdDL6laMJKCvKb4RXEp7hiFe1OpbrV7eoe4YePCFO/UrX9YEeJqQqYGs4vhBpp7mu8nrT5ulOdr6Yt2MTExlUpVqujQubcVu8aXeTYmpTeGqpTi24Oyv2AVpVIYmk1KFna04S6CkJSoyVOo24PdCb+hh0nKEKlN6akYqz6+x9hVVaVSDjU0xfCUJPgBMDHo1NFRUnNTi/eyTu12P1mQAAAAAAAAAAAAAAAAAAAAAAAAAAAAtqumo+6uCX6xcQYu65qSbTVSK3dTe8CWEKcd8IxV+lIuMCjKrTowSnNwT0qbitL324cbdpasVW0apPTJScZRdrJpX+p+YDMlhsPJ3lRpt/JRd7jQh+ZTj5ERYadSc3qcmklfUkrOydtxAp66utycXZttK7SvZJebeBmQrUp20VISv1SLzA1pS1S53QrNynSaaSd7XtwKVcZJSu3NXipJRS4Phx4vsAy6tLDyadSnTbfS0i6nCjTbjTjCL6UkkYM6sqjkqmqyotxcEldO2+z4P94i62te+5/nHfhb3sb+j0gei9/Einh8NvlKjS7W4oxViKjnGKm7Ss7tK6vf6LO/cZFPVVwrc9VpK8W9zsBJRlRatRlTaXRFovPPpVKslCbnJu1OLe7dqS3+cu5+uk26j3KT1SgtLSe+yW/19gGcRSw2Hk7yo02/koxlip0m3V1WXGMkr702rW7mVlWr6Zz1StF2lKMU4x693F28gGXCEIK0IRiuxWKyipK0kmupow54irCpOnquopXlpXZuS7bpbxKrWg5a51I2hqs4xbe/oa3f/AGBlxp04u8YRT7EXHnTxdRadblFuKklFLh13fX1FzxdVpRSk3zfOJxjvku58H6gMupGhHxqkaav0tIrT5r/l6P2TDinjaMoOcrWtd7mm7prd5DIw2H5mcpuSeq73K3ECcAAAAAAAAAAAAAAAAAAAAAKNpK73I+FcvvhIbKcmrrZPl8Vnm0cd0sLSnanh3/6s+juW/uNLeUnl35S9u61RZltJicHgp8MFgJuhSiup23y/abA6T5xttsfkzazbajJsFJcY1sbTi/Nc8Gpyz8lEHaXKDs/f/wB5E5VVqlSrNzqzlOT4uTuyMDq3Hlk5KpK65QNnvnsDEzPl05IcvpurieUDJHFfm0q3OvzQTZyvAG8XK74YWzmEwlbB8neXyzTHTVljsbQcKFPtUHac/LY0z2p2gzjafO8TnWe46pjcdiZaqlWpK77l1LsPVySVDE7F4ujmeKq08JhsRBxVOKct93pj2tvpM3ZXY2O1+PpYfZjC5rjaiqxhXwsYRlVipbozT4ab8bgfkcBg8Tj8bRwWDoVMRia01ClSpq8pt8EkdCvBN5CaPJ5ktPaHaajGvtPjae+E7Sjgqb/5cf1+t+Qi8Hjwfch5NsV/D2Zy/hHPtD5upJRnDCKyfibt8ndeN27jYGpKosPFSbjOclG/Srv6bASSrUab0yqwi+ptIvjKMleMlLuZg0pLm1KMqsVLfGNOF7Lob3O77ytOro8VJRnJWinTcUkrtu3lAzmk1ZpNdpBzGFcn7lSuuO5bjFpYypOSUHOUmm1GUVvsuG7g++5ZUnKWHUoupvjN1LW4X32+oD04adK0W09FuBScITVpxjJdquYanUjVmouapuo0nZe+37u7qFLEVqiVpNttKKSVndX3931gTulhKLTcKMH0NpImi00nFprosY+McoTpzjJptST7fFb+khU60IWjOV0otKyerV9dwM8pOMZq0oqS6mrmFz1fcrzfHxVFalbjd8OrzlfZbcHFSWpLU5aehpW3dbukBkLDYdO6oU7/ACUSpJKyMKVSvFy1TqQ0wc7OMW5JdTW4QrV6lktV7XtBLhe123179wGXKnCTvKEW+1FYxjFWikl2IwliK16ajLXKd9ziopWb49q+ospYuc5xUJzk5cFKKSf1x8oHotKSs0mupkLWGUtLjSUuqyMX2ZKShUvUjTm3vUVaO+1n2l88I69qkp6ZSjvVrrfb1AYO12zuU7WbNY7IM4wsMRgMbRdKpBrzNdTT3pnLblj2GzDk55Qcz2Vx6k1hqjlhqr/5tGW+E/N6bnWKlDRTUb37TWjw7uS6rtVsZQ20yfC85mmRwl7IjBeNVwr3vv0Pf3OQGiGQZrjcizrBZxl1Z0MZgq8K9GouicXdHVXkd24y7lE5P8t2oy2rFvEU0sTST30ay9/B+X0WOTR9N5B+WPaPknz94rLZeysrryXszATnaFVda+DLtA6lg+d8j/LBsVyoZcquz+YRp46Eb18vryUa9LydK7UfRAAAAAAAAAAAAAAAAAAAAAACkraXqtbpuWQjQl40I032pIrXWqjNO/DoMKjKtdyhOpNyhGUlFR3PSuvi+wD0CypRo1N86UJd8TCeKq3leT3Q1xcUrSXl4Pju7CSlWrTqRWptuTVklpsuL6+wDIhSo0t8acIdqVhHEUJOyrU3b9ZGPi5OVbRu3OMY3V1d3d2uxLcWyk04yi61Szv49Jtd6stwGcWVYUpq9SEJJfCRhzxOinCMJS0RtC6W9tLfx4FvsmdSMLuTpuoot2Saaa3dT712gZkKWGptShClFvg0lvJTzJN3nrdTTaWi1vhr6/QSTxFenHx5WmnaSaVluvu/30AZc6FGbvOlCT63EpS9jQlopulGXVG1yzDTqTnLU5OKW/UkrOydtxB7pzjpRm2lUlpT7IppedgZ4MHnq3iyU5uLjGV9MfF1dfX5B7IrRvKbe7V+atLceKXT0Pf2AZdSjRqO86UJPtQp0aVP3lOEe5GNz9SrP3LVZptKNr2va7b8pbz9Zc3aWtzbVnFRtZ2s+3f6AM4s5qle/Nwv8lGKqtaShJTmoTkkpuC0vf1cVfoLHi6ig23JRU9KlZXb+hd4HoFs402tU4xdulowoYuelWd1KappyXvW+7ihSqzrTlRk6ibunGaSdt+/d5AMqn7HunT5u/RaxKYlLBaKqnzl7Nvhv99fiZYAAAAAAAAAAAAAAAAAAAAAAAAAAACDFqUlT0xlJKak1FK+7vJwBgRhWsqXN1FTTuoNK3G9tV+HkFWlGMlGUJVfFcqiinvaepem+7tM8jqUKVSWqcE31gUwsdNCO9Nvxm+tvezHr0JRb0xco77aUna/FNPir7zNSSSSVkgB5sMNJQqKNBrnIuMpNKNu5IuqUK0WknW3RUbwd00uD4qzPQAGA8NONNu1RuUZR99rkr2txZfCFZYiM5Qd3LU7JWs0k+nsMwAefOEZVJWhKznojOzslLfL6OPaZtVS5qSgt9rIoqFFT1qmtXWSAefGnWioqNOpoWjVeKv4tuG/psHTrOnocKmnTKMbRV/G69/QegAPNr0a1bVrhNSlps0lZWT7e0vnDEJTpqE1Gd3JRSs2+NnfdfuM8AebXVRVZT5qpaf5itqVkuG/fa1y2NWVfW5KpJuOhScNKu2tyV3d9PkPSqQhUjpnFNdpSNGnGWpJuS4OTba84GFVoVoySi6tlHStLurLhuurMtlhaiTbjVkmvFvLVJPrd337kekAMXBU6kXqnq3R03lxe9vrfAygAAAAAAAAAAAAAAAAAAAAGq3hheEHPZaNfYTYrFR/hurC2PxtN39hp/mQ/wDUfo7z6h4UPKjR5LuTevj8NOEs6xzeHyym9/ult9Rrqgt/fY5lZhisTmGNrY3GV6mIxNebqVatSV5Tk97bYEderUr1ZVqs51Kk25SlJ3bfWyXLsDjMyxlLB5fhK+LxNV2p0qNNynN9SSPc5NNic+5QNrcJs3s9huexeId5TfvKUPzpyfQkdH+QzkV2S5LMopwwGEhjM5nH/iszqwvUm+qHwIdi8oGlmyHgs8ru0GGhia2S4bKKM1eP8IYlU52+QryXlR+vpeBZygSjee0WQQfVeo/+032AGg8/At5RF73P9n5ft1F/2E+C8CnbmpUSxW1GRUIdLgqk39CN8QBqrsZ4IGz+XZXWwW02e5hmsa1SNSUcJTjQinHhvbb+g+8cnuwezGxGV+wNm8kw+WYdtOrKMLTqW3rU2233t9B+yD3qzA8+lTi6lNaJJOTSk1xhF3S7N78qRm1oc5Tcb2d00+prgUhQowlqhTSfWSAedVoTcrOjKzd2lCMku5t7vKXRw9S9Nxpc3zMXGK1cU+3rM8AebHD1pPS5YjdwcpuPlbUt5fOhVtKnCLs4zjeytZ710meAMOSksPW1RnG8nKF4+MpceCvcuwlOKrzapunpXvX1y3t/V5DJnCM46ZxTXUW0qVOmrQio3AhxkZynC0Zyik/epXu010vtIFDEX8aEtS06Woq3i347+m56AAwFHEKV405avGvdK2+3Df2FkMNU1NqFTToUWpWT3Ws1v47r7z0gBgSVealzkKsm4OCailpv02vvIedqUHdqcWvF1KKkuN7NXVmrnqlk6NOUtTTUuF4tp+gDCoQlOUJQhKM6cXK03vu2+PU2vNctjh6zei+IsuGqbXnalv8AJY9CnCFOOmEUkXAebChVp1INRqpprU4pWlZ9/V1mdh4OnRjCVrpdHQSAAWVIQqQcJxUoyVmnwaLwBop4VXg147IsditstgcFUxeT1ZOri8BTjephH0ygumn2dHcaqOLjJpqzXQzsq0mrPejX/l08GPZDb5V82yFU9ndoJ+M6tKHuFZ/+pBcO9ekDnrlOY4/Kcxo5hluMrYLGUZKdKtRm4zg+tNG5/g1eFOs2r4bZTlKr0qGLnanhc397Co+hVeiL/X4dZqhym8n21PJ1n0sm2oy2WFq73Rqx30q0fhQl0o/KAdlISjOKlGSae9NdJcajeA5y2YjO6cOTfanGSq43D09WVYmq7upTjxot9LS4dl+o25AAAAAAAAAAAAAAAAAAACyvqdKSgvGa3GHGNanbmoVYXiovxYu9la/Hc/OZ4AwZUnTpRlpetOKpxW92XQ++7v3kuBpwhr0xcVF83FNb0l63d+UnqU4VFacVJdopwhTjphFRQEOJouTc4pu6Skk7Pdwa7UYsKEudVT2O5Ti7q8VBeXe7npADz3h6sIeLziTm5+I96b6Grq6EMNUac3zras7Tk3d36FdpHoADz5Uqso74Tt4yVkrq8k96v2F+JSlUTnSlUtDVOMU+K3r07rdpmkdShSqS1Tgm+sBhY6aEd92/Gb6297MRwrqo5xpz163Lelp3pK3HsM9JJJJWSAHnqnWUNKhU06YxleKv4vVv6ROnWkrSp1NF5tJJX8a/Hf2noADz6dLEUYxcVLUla6indXvZq6KVI1YxhNQnF025Nzt412nxvu4ek9ENJqzV0B5dOrLXCg4VlCEk9DilpSfFyvwXp3F6o1eYjKHOJSeu0XZp9qurq3b0GYsPR3LTuXCN3ZeTgSgeasNVlaclVkr+MpSe9dSV2l9JfhaNVSSaqaVJNa1bTa/De97v3GeAAAAAAAAAAAAAAAAAAAAAAAAAAAAAAAAAAAAAAAAAAAAAAAAAAAAAAAAAAAAAAAAAAAAAH5flF272W5P8j/hnanNaeAwzemmnFznVl8GMVvbA/UA13n4YfJEpNJbQPtWBX2yntxeSL4G0PzGP2wNiQa7e3F5IvgbQ/MY/bHtxeSL4G0PzGP2wNiSkmoptuyRrv7cXki+BtD8xj9s/Ncp/hb7D4/k+znAbJRzqOd4nCyo4WdfCxpxg57nK+p8E2wNePC25RZ8oPK1j6mGq68oypvA4FJ+LJRfj1F8p+ix8gpwnVqRp04SlOTskldtlsm2227tn7rkKzXZDIOUzK8922hi62U5fPn+aw1FVHUqx/Fpptbr7/IBvh4JXJLQ5NeT+jicfQX3w5tTjWx0mt9JcYUl8np7T7Ya6e3H5JP4naP5jD/UHtx+SP+J2j+Yw/wBQDYsGuntx+SP+J2j+Yw/1B7cfkj/ido/mMP8AUA2LBrp7cfkj/ido/mMP9Qe3H5I/4naP5jD/AFANiwa6e3H5I/4naP5jD/UHtx+SP+J2j+Yw/wBQDYsGuntx+SP+J2j+Yw/1B7cfkj/ido/mMP8AUA2LBrp7cfkj/ido/mMP9Qe3H5I/4naP5jD/AFANiwa6e3H5I/4naP5jD/UHtx+SP+J2j+Yw/wBQDYsGuntx+SP+J2j+Yw/1B7cfkj/ido/mMP8AUA2LBrp7cfkj/ido/mMP9Qe3H5I/4naP5jD/AFANiwa6e3H5I/4naP5jD/UHtx+SP+J2j+Yw/wBQDYsGuntx+SP+J2j+Yw/1B7cfkj/ido/mMP8AUA2LBrp7cfkj/ido/mMP9Qe3H5I/4naP5jD/AFANiwa6e3H5I/4naP5jD/UHtx+SP+J2j+Yw/wBQDYsGuntx+SP+J2j+Yw/1B7cfkj/ido/mMP8AUA2LBrp7cfkj/ido/mMP9Qe3H5I/4naP5jD/AFAPrvKnsFs9yi7I4jZ7aHDRqUppuhWUfdMPU6JwfX9Jy+5Utis05Ptucy2WzeHu+DqeJNLdVpvfCa7GjeT24/JH/E7R/MYf6hrh4X3KbsDyp5rkudbJ0cyp4/DUZYfGSxWHVPVTveHBu9m5ecD4rsvnOP2e2hwGeZbVlSxmAxEK9Ga6JQdzrPsFtDhdrNjMo2kwbjzOY4OnXSX5ra3x8jujkIbieDT4SuxWwvJLgNltqlm0sbgq1VU3hsMqkebc9S36l1sDdQGu3txeSL4G0PzGP2x7cXki+BtD8xj9sDYkGu3txeSL4G0PzGP2x7cXki+BtD8xj9sDYkGu3txeSL4G0PzGP2y+h4YHJFUqRhJ5/STdtc8CrLvtMDYYHh7HbT5FtfkOHzzZ3MqOYYCuvEq03uv0prin2M9wAAAAAAAAAAAAAAAAAAAAAAAAAAAAAAAAAAAAAAAAAAAAAAAAAAAAAAAAAAAAAAAAAAAAAAAAAAAAAAAAAAAAAAAAAAAAAAAAAAAAAAHP/wC6F5rjcRyxYLK6labwuDyynKlTvuTm5OT79y8x0AOeH3QT/wDfT/6Xh/8AuA12AN19jfA82Qz3ZHJ85rbU51SqY/A0MTOEIU9MHOCk0t3aBpQDe72kuxfxvz7+rpeoe0l2L+N+ff1dL1AaIg3u9pLsX8b8+/q6XqHtJdi/jfn39XS9QGiIN634Eux1922Gef1dL1D2kux3xxzz+qpeoDRQG9ftJdjvjjnn9VS9Q9pLsd8cc8/qqXqA0UBvX7SXY74455/VUvUPaS7HfHHPP6ql6gNFAb1+0l2O+OOef1VL1D2kux3xxzz+qpeoDRQG9ftJdjvjjnn9VS9Q9pLsd8cc8/qqXqA0UBvX7SXY74455/VUvUPaS7HfHHPP6ql6gNFAb1+0l2O+OOef1VL1D2kux3xxzz+qpeoDRQG9ftJdjvjjnn9VS9Q9pLsd8cc8/qqXqA0UBvX7SXY74455/VUvUPaS7HfHHPP6ql6gNFAb1+0l2O+OOef1VL1D2kux3xxzz+qpeoDRQG9ftJdjvjjnn9VS9Q9pLsd8cc8/qqXqA0UBvX7SXY74455/VUvUPaS7HfHHPP6ql6gNFAb1+0l2O+OOef1VL1D2kux3xxzz+qpeoDRQG9ftJdjvjjnn9VS9Q9pLsd8cc8/qqXqA0UBvX7SXY74455/VUvUPaS7HfHHPP6ql6gNFAb1+0l2O+OOef1VL1D2kux3xxzz+qpeoDRQG9ftJdjvjjnn9VS9Q9pLsd8cc8/qqXqA0UBvZHwJdjenbDPX/AP1UvUXe0l2L+N+ff1dL1AaIg3u9pLsX8b8+/q6XqHtJdi/jfn39XS9QGiIN7vaS7F/G/Pv6ul6h7SXYv4359/V0vUBoiDbzls8FbZXYPkuzvazA7SZxisRl1GNSnSrwpqE25pb7LtNQwNyPubWa4z2ZtbkrrSlg1SoYmFNvdGpdxbXereY3QNIfua//AIp2u/8AZUP/AJGbvAAAAAAAAAAAAAAAAAAAAAAAAAAAAAAAAAAAAAAAAAAAAAAAAAAAAAAAAAAAAAAAAAAAAAAAAAAAAAAAAAAAAAAAAAAAAAAAAAAAAAAA54fdBP8A99P/AKXh/wDuOh5zw+6Cf/vp/wDS8P8A9wGux1x5J/8A9XbK/wDR8J/8UDkcdceSf/8AV2yv/R8J/wDFAD9OAAAAAAAAAAAAAAAAAAAAAAAAAAAAAAAAAAAAAAAAAAAAAAAAAAAAAAAAAAPlHhdf+XPbH/2kP/lgcvjqD4XX/lz2x/8AaQ/+WBy+A26+5r/+Kdrv/ZUP/kZu8aQ/c1//ABTtd/7Kh/8AIzd4AAAAAAAAAAAAAAAAAAAAAAAAAAAAAAAAAAAAAAAAAAAAAAAAAAAAAAAAAAAAAAAAAAAAAAAAAAAAAAAAAAAAAAAAAAAAAAAAAAAAAAHPf7oVh50uW/D15Lxa+VUXF90po6EGof3RzZGrick2e20w9KU1g6k8DimvzYT8aDflTXlA0jOsvIhj8PmfI/sjjcNJOE8owy3dcaaTXnTOTRu34AvKtha+Sy5Ms5xUKWKw0p1sqlN252nJ3nTXam212N9QG3oAAAAAAAAAAAAAAAAAAAAAAAAAAAAAAAAAAAAAAAAAAAAAAAAAAAAAAAAAA+OeGZj8PgPB02n55pSxMKVCmuucqsPqTOZRtX4enKthNos7wvJ/keJhXwWVVeezCrTd4zxFmlBPp0JvyvsNVANwfua2Gm862wxrXiRw2HpX7XKb+o3XNc/AF2Sq5DyOTzvE03Tr59i3iIauPNQ8SHntJ+U2MAAAAAAAAAAAAAAAAAAAAAAAAAAAAAAAAAAAAAAAAAAAAAAAAAAAAAAAAAAAAAAAAAAAAAAAAAAAAAAAAAAAAAAAAAAAAAAAAAAAAAAB+f5Qtlct212NzPZbNoa8Lj6DpSfTB/mzXanZn6AAcjuUrY3ONgdscfsvndFwxOEqWU7eLVh+bOPY0eHluNxeW4+hj8DiauGxVCaqUqtKemUJLg0zpp4RPIxkvK1s6oVXHBZ5hIP2Djorh+pPrg/Qc6uUbYPafk/z+pk20+WVcHiIy9zm1enWXwoS4SQG1/IR4XWBr4XD5Hymxlh8XBKEM3pQvTqdtWK96+1bu42p2b2hyPaPL44/Ic2wWZYWavGphqyqL0cDj6ZuVZnmOVYpYnLcfisFWXCph6zpy86A7Fg5S4Xlk5VcJTVKht/tBGK6HjJS+km/Dfyt/wAoGf8AzlgdVAcq/wAN/K3/ACgZ/wDOWPw38rf8oGf/ADlgdVAcq/w38rf8oGf/ADlj8N/K3/KBn/zlgdVAcq/w38rf8oGf/OWPw38rf8oGf/OWB1UByr/Dfyt/ygZ/85Y/Dfyt/wAoGf8AzlgdVAcq/wAN/K3/ACgZ/wDOWPw38rf8oGf/ADlgdVAcq/w38rf8oGf/ADlj8N/K3/KBn/zlgdVAcq/w38rf8oGf/OWPw38rf8oGf/OWB1UByr/Dfyt/ygZ/85Y/Dfyt/wAoGf8AzlgdVAcq/wAN/K3/ACgZ/wDOWPw38rf8oGf/ADlgdVAcq/w38rf8oGf/ADlj8N/K3/KBn/zlgdVAcq/w38rf8oGf/OWPw38rf8oGf/OWB1UByr/Dfyt/ygZ/85Y/Dfyt/wAoGf8AzlgdVAcq/wAN/K3/ACgZ/wDOWPw38rf8oGf/ADlgdVAcq/w38rf8oGf/ADlj8N/K3/KBn/zlgdVAcq/w38rf8oGf/OWPw38rf8oGf/OWB1UByr/Dfyt/ygZ/85Y/Dfyt/wAoGf8AzlgdVAcq/wAN/K3/ACgZ/wDOWPw38rf8oGf/ADlgdVAcq/w38rf8oGf/ADlj8N/K3/KBn/zlgdVAcq/w38rf8oGf/OWY2P5X+VDH0nSxe3u0FSm+K9mzX0AdPdsNsdl9kcC8dtLn2Byuio393rJOXdHi/Iag+EF4WdXN8JidneTaGIwWFqpwrZtVjorTXSqUfzPlPf3Gp2OxeKx2Ilicbia2JrT41Ks3OT8rMYCSpOdWpKpUm5Tk7tt3bZ+/5A+TTMuVDlAweQ4SE4YKnKNXMcTbdQoJ+N5XwXaRcj3JVtbyn55HL9n8BNYaEv8AiMdVi1Qw67X0vsW86O8i3Jjs9yW7J08jyWm6lWVp4vF1I+6Yip1vs6l0AfsMmy7B5PlOEyrL6MKGEwlKNGjTjwjCKskZoAAAAAAAAAAAAAAAAAAAAAAAAAAAAAAAAAAAAAAAAAAAAAAAAAAAAAAAAAAAAAAAAAAAAAAAAAAAAAAAAAAAAAAAAAAAAAAAAAAAAAAAAAA/P7b7IbNbaZPUyjafKMNmWElwjVhvg+uL4xfaj9AANNuUrwLo1KtTGcn20NOineUcFmeqy7FUim/Oj4RtP4O/K/s/VlGvsdjcZTX/ADcC1Xi/6O/0HUAAcjsRyf7dYeporbH59Tl1PL6nqIvvF20+KeefManqOuwA5E/eLtp8U88+Y1PUPvF20+KeefManqOuwA5E/eLtp8U88+Y1PUPvF20+KeefManqOuwA5E/eLtp8U88+Y1PUPvF20+KeefManqOuwA5E/eLtp8U88+Y1PUPvF20+KeefManqOuwA5E/eLtp8U88+Y1PUPvF20+KeefManqOuwA5E/eLtp8U88+Y1PUPvF20+KeefManqOuwA5AZpsvtHlWEeMzPIczwWGTUXVxGFnTim+Cu0eMdGfD5/8vWM/wCo4X/Oc5gPUynIc7zeE55VlGPx8KbtN4bDzqKL7bIzfvJ2x+KuefManqNv/ua//hXa7/3tD/JI24A5EfeTtj8Vc8+Y1PUPvJ2x+KuefManqOu4A5EfeTtj8Vc8+Y1PUPvJ2x+KuefManqOu4A5EfeTtj8Vc8+Y1PUefm+T5pk9SFLNcuxeBnUjqhHEUXTbXWrnYc0Y+6Sf+O9l/wDplT/5GBqce7gtkdqcbhaeLwWzmbYnDVVenVpYOpOE11ppbzwjqT4Kv/l62M/6dH/MwObH3i7afFPPPmNT1D7xdtPinnnzGp6jrsAORP3i7afFPPPmNT1D7xdtPinnnzGp6jrsAORP3i7afFPPPmNT1D7xdtPinnnzGp6jrsAORP3i7afFPPPmNT1D7xdtPinnnzGp6jrsAORP3i7afFPPPmNT1D7xdtPinnnzGp6jrsAORP3i7afFPPPmNT1D7xdtPinnnzGp6jrsAORP3i7afFPPPmNT1E+E5OtvcXUUMNsZn9ST6Fl9T1HW8AcydlfBr5YdoKkVHZSpltKX/NzCoqKXk996DYDkv8DPJ8vq0sbt/nX8LVIyTeBwOqnQfZKbtN+SxtsAPK2cyLJtm8oo5VkWW4bLsFRVoUcPTUIr/fWeqAAAAAAAAAAAAAAAAAAAAAAAAAAAAAAAAAAAAAAAAAAAAAAAAAAAAAAAAAAAAAAAAAAAAAAAAAAAAAAAAAAAAAAAAAAAAAAAAAAAAAAAAAAAAAAAAAAAAAAAAAAAAAAAAAAAAHwDw+f/AC9Yz/qOF/znOY6M+Hz/AOXrGf8AUcL/AJznMBvB9zX/APCu13/vaH+SRtwaj/c1/wDwrtd/72h/kkbcAAAAAAA0Y+6Sf+O9l/8AplT/AORm85ox90k/8d7L/wDTKn/yMDU46k+Cr/5etjP+nR/zM5bHUnwVf/L1sZ/06P8AmYH08AAAAAAAAAAAAAAAAAAAAAAAAAAAAAAAAAAAAAAAAAAAAAAAAAAAAAAAAAAAAAAAAAAAAAAAAAAAAAAAAAAAAAAAAAAAAAAAAAAAAAAAAAAAAAAAAAAAAAAAAAAAAAAAAAAAAAAAAA1W8MDwhquybr7C7E4pLO5wtjsdTf5Gn+ZD/wBTt/N7+AfSeWnwgthOTJzwGLxM81ztLdl2Dabj/OT4Q+nsNUduPC85UM6rVI5E8v2dwr94sPQVWrbtnUv6EjXzE4itisRUxGIq1KtapJynObu5N8W2RJNyst7A+jYnly5XMTUcqu3+dpv4NbSvMkQfhr5WPj/n3zpn5rBbJbU46gq2D2ZznE0n72VLA1JxflSJvvG20+KGf/2dV9QHv/hr5WPj/n3zpj8NfKx8f8++dM8D7xttPihn/wDZ1X1D7xttPihn/wDZ1X1Ae/8Ahr5WPj/n3zpj8NfKx8f8++dM8D7xttPihn/9nVfUPvG20+KGf/2dV9QHv/hr5WPj/n3zpj8NfKx8f8++dM8D7xttPihn/wDZ1X1D7xttPihn/wDZ1X1Ae/8Ahr5WPj/n3zpj8NfKx8f8++dM8D7xttPihn/9nVfUPvG20+KGf/2dV9QGZtNyk7e7TZVLKtoNrM1zLAznGboYiu5Qclwdj8ifovvG20+KGf8A9nVfUUexG2a47JZ6v/8APq/ZAk2S252v2SoV6OzO0WY5TSxElKtHC1nBTa4Nntfho5Vvj/n/AM7Z4P3kbZ/FLPf7Pq/ZH3kbZ/FLPf7Pq/ZA978NHKt8f8/+dsfho5Vvj/n/AM7Z4P3kbZ/FLPf7Pq/ZH3kbZ/FLPf7Pq/ZA978NHKt8f8/+dsfho5Vvj/n/AM7Z4P3kbZ/FLPf7Pq/ZH3kbZ/FLPf7Pq/ZA978NHKt8f8/+ds/PbWbW7S7W4qjidpc7x2bVqMObpzxNRzcFe9kX/eRtn8Us9/s+r9kfeRtn8Us9/s+r9kD88ftsk5VuUfJcqw+VZTtnnGCwOGhoo0KVdqFNdSR5S2I20lw2Sz5//wCfV+yV+8bbT4oZ/wD2dV9QHv8A4a+Vj4/5986Y/DXysfH/AD750zwPvG20+KGf/wBnVfUPvG20+KGf/wBnVfUB7/4a+Vj4/wCffOmPw18rHx/z750zwPvG20+KGf8A9nVfUPvG20+KGf8A9nVfUB7/AOGvlY+P+ffOmPw18rHx/wA++dM8D7xttPihn/8AZ1X1D7xttPihn/8AZ1X1Ae/+GvlY+P8An3zpj8NfKx8f8++dM8D7xttPihn/APZ1X1D7xttPihn/APZ1X1Ae/wDhr5WPj/n3zpmVgeXflfwdVVKO3+ctr+MqKovNJM/LfeNtp8UM/wD7Oq+oxcx2Y2ky6lz2Y7PZtg6Xw62DqQXnaA2B2C8MXlAyjEQpbU4PAbQYRPx5qmsPXt2OHi/3TbXkc5aNh+VDDf8A4LMOYzGEb1suxL0Vody4TXajliZ+S5pmGS5pQzPKcbXwONw81OjXozcJwfY0B2JBr94J3LzQ5TMsWz20E6VDanB07y32jjaa/wCZFfC615TYEAAAAAAAAAAAAAAAAAAAAAAAAAAAAAAAAAAAAAAAAAAAAAAAAAAAAAAAAAAAAIVisO3bnoeVkyaaundAAC2c4U1qnKMV1t2AuBCsXhv46HnJk01dNNdgEDdapUmqdSMFCWnfC99yfX2l1CU3OpTqSUnC29K17oUPxlf+c/7UUo/lNf8AZ+gCYFs6lOHv6kY363YtjXoydo1qbfUpICQAAAAAAAAAAAAAAAAAAAAAAAAAAAABZXnKEVoScpO0blko14R1Rqc5Jb3FxST7uourxcoXUlGUXqTfAheIdRc3GVKEnu1c4nbu6wJZ1oqnGUU5Oa8WK4soo4iTvKpGC+DBX9L9RTDwSq1H8C1OPYrJ/X6CtSVSdd0oT5tRipN2u3dvhfuAq6dZe8r37JxT+ixWnUm583UgoytdNO6Za4V4u8K2v9WaX0qwgo0nKrWnFTk+Le5LoQEs5wgrzlGK7XYpCpTm7QnGXc7kHOUquNhGM4T9zk2k0+mIryp0sVRcpRgmpK7duoDJBZGtRnLTGrCT6lJMvAAilicPGWl1oX6rladejUdoVIyfVfeB818JTlIpcmXJdj86pzj/AAnX/wCFy6D/ADq0lx7oq8vIcv8AH4zE5hjq+OxtadbE4ipKpVqTd3OTd22bJfdBtsKmccqWE2Uo1X7EyPCKU4p7nXq735oaPSaxgfqeTTYjP+UHazDbObO4XnsVWd5ze6FGHTOT6EjoVyMeDzsJyc4ClXnl9HOc8Ub1sfjIKdpf+nB7oL09p5HgacnWC2D5McLnGPhThnue0o4qvKXv6dF76dPzO77WfeKeIo1HaFWLfVfeBSppoUJShFJQi3ZIsqRxEISnz8Wopu3N/vL8Z+SVvkP6C7EfiKnyX9AFab1QjLrSZdYso/iYfJX0FHXoJ2damn8pASWFi2FSnP3k4y7ncuAWFgAFhYABYWAAWFgAFhYABYWAAWFgAAsAAsLAALCwACxDJ1J1XCEtEY++la7b6kTGPWlzFRzUoaZ8Yyko7+tAXRdSFVQnLXGXvZWs0+piVSUpuFGKdt0pPgvWyKVVzjOtqhanFuMYyUt9uLMmlBU6UYLfZcevtAjVKrbxsRK/6sUl6bkdejOpTlTqxpYmk9zhONr/AFF1Hna1ONV1nBTV1GCVku9oq4YjS4c5GSf59rSX1AfA+XHwaNjtvMtr5ns3gqOz20VnKM6MdNCvL4NSC3L5UfSaBbWZBm2y+f4zIs8wlTB5hg6jp1qUuh9a60+s69qph6KVPnKcNKtZySsfBvCk2Iw2abLx2ywdCEsZgJyhipRim6lFzaTfyW15GwOfux+f5nsttJgdocnxMsPjsDWVWlNda6H2PgdVOSfbLAcoGwGVbVZfZRxlFOpT/iqq3Th5Hc5V7aJLanHpJJc70dyNs/uce2FRz2g2GxNVunpWYYRN8HuhUS/uPzgbmgpOcYR1TkorrbIvZeG/jogTApCcJx1QkpLrTuVAANpK7aSIXi8Mn+Oh5GBMRVnUdSNOnJQbi5Xcb8LesvpzhUV4TjJdadyyX5XD+bl9MQLYutCtCFSpGanfhG1reUnIav5VQ/a+glnKMFqlJRXW3YCoI/ZFD+Ppf00SJpq6d0AAAAAAAAAAAAAAAAAAAAAAAAAAAApOSjByfBK7KlJxUoOL4NWYEUY15x1Sqc3J71FRTS7+srCralKVW0XB2l1EXsh01zcpUpyW7VziV+/qKxherTjKSle9RtcG1ZL6fQBeniKm9Wox6Lq8n6irp1beLiJ37Ypr6BiJzjojBpSnLSm+jc39RTmqyStiZ37Yxs/QAU6tOSVWMZRbspx3edEzaSu2ku0gUJuaqV3BKC3JPdfrLcTXoyhCMa1Nt1IKykt/jICZVaUnZVYN9Ski8x8coww0pWjGzTv1b0SeyKH8fT/poCQAjqV6NN2nUjF9TYFI4mhOWlTV3uV01fz8S2dJ0vdKCtbjTXCXd1MmnCM4OE4qUXxTI8K26KUnqcW4367NoBOtenB0rSlU951d4hSp0vdJtSkt7nLo9SIcGv8Ai68f4vdH9ptv6iSolUxUact8Yx126G77vMBVYqg5W5xd7TSfl4FlaMKM4ypeLOT94uEuvd9ZkSSlFxaTT6GWUqNOm7xW+1rt33dQFKH4yv8Azn/aiHnHHF1qdNaqj02XQlbiyah+Mr/zn/aiVJJtpK74gRU4RowlOcrye+c3/vci2OuvJSleFJe9jwcu19nYW+/xThW3Jb6ceiXb39hkgAAAAAAAAAAAAAAAAAAAAAAAAAAAAAEWK/E/tR+lDF/ktT5LGL/E/tR/zIYz8lqfJYFs3zNZ1Hfm521P4L6y+pThVUZptO3izi95IQuhFNypSlSb+Dwfk4AL4inxSrR7N0vUyyVaHOwq3loUZRdottO63NF8Kk41FSrKN5e9lHg+y3QxVXN1oVY/nPRPt6n/AL6wK0sRSqT0Rk9Vr2cWt3lK1q1Olp1trVwSTd/MWy/LYfzcvpiKv5XQ7pfUBZOtCqoxp676ovfBrcmr8UXRj7I8ed+a/Nj8LtfYXYxuOFqNOz02uVrS5nDTlBLxINpdG5AUlWoUfEcoxt+bFXt5EU1UMRB30zUeh8V6i7D0406SS3t72+lvrPA5RszhkWxuaZ3fTPC4abjLrctyXnaA5t+Ejh62N5Tc+2lhVnWwuOzCqk5b3BJtRXdZKxjchmwi2w2xymhjozeDrY2nSVNO3O+MtXkSue9trTjitmcwVXe1SdS/bHevoPrHgbZJDE7cZJKML0sBgJYmXynC1/6UwN0aUMLgKEKFOMKNOMVGEIroXYiSM6GIi43jO29xa3ryMtwaUoc+/f1Hdt9C6ESVKUKlnJO64NOzXlAxqjtRxFOM3OEYPe99n1X6TJxH4ip8l/QWYmMYYKrGCSiqbsl3EzSas1dAYtFyxNKCi3GjpV5LjLsXZ2k1SpGlGMIRvJ7oQW7/AOkXVXONKTpRUpJeLFuyZHhFBw5xScpy99Jrffq7O4C6jTlG86ktU5cepdiJAAAAAAAAAAABiZjmGBy2g6+PxuHwlJfn1qqgvOwMsH4XNeV7kwyxuOL28yCnKPFLGwm/7tzxa3hD8jVJ2e3mWy+Spv6gPqgPllDwhORutLTDbzLV8vWvpR7uU8q3JrmjUcDt1kFacuEfZsE/M2B+2BBhMThsXRVfC4ijXpy4TpTUovyonAAAAAAAAAES/K5fza+lkpEvyuX82vpYFKkVLEKD4OnJPzoUKmm1Gq7VFuV/zl1oq/yuP82/pRfUhCpHTOKkupgRug4tyozdNt3ateL8nqHPSpu1eCivhxd4/uHN1ae+lUcl8Gpv9PH6S6lNVYO8bNPTKL6GBFSrQpRcKjnq1Se6De5ttdBi7QYLD55s5j8umlOli8NUou6600ZuGvCVSjvtBrTfqf8AtjB/iX8uf+Zgc282zrKcrzPE5djcfTpYjDVZUqkJJ3jJOz6D2PB52qo4Xwn9mcTl9ZYihi6E8DV03s9calvNLQz8N4UeUPJeX3a7B6dMJ4916a/VqJTX+Yw+QjEfwftpSziP43BSp1IPqtNO/wDd9IHVKFGMXzlVqc1vcpdHd1FPZWHvbnFbrs7efgY9OtTxtPCVIeNRr01WXarJr6fQZwEU6UJ+6U2oze9Tj09/Wika6VKUqi0yhukl1ijFU69SnHdCykl1N3v9BFiF/wDkKUeie9/s3aAkhRdTx8QtT6IPeo+t9pWWJoRlpdRO252TaXmGLb0Rgm1rmotroXSSxjGMVGKSS4JAQ1o0ZQ59TUXa6qRf+79xSnKUq1GU1aTpSv54kioUlPWo773t0X67dZSX5XD+bl9MQI8VUjTxFCUrv3ySXFu3AvpU5Snzta2v82PRH9/aTNJtNpXXBmPipSUoRk3GlLdKS436F2X6wKznKtJ06TtFbpT+pdpNCKjFRXBCMYxioxSSXBIqAAAAAAAAAAAAAAAAAAAAAAAAAAAAAARYT8lp/JRFBS5qFWCcpQlLd1q7uv8AfUS4P8lp/JQwn4n9qX+ZgV9yxFO26UfM0/qZbor0/eTVSPwZ8fOXVKMJy174z+FF2ZZKdWgtVRqpT6ZWs49r6GBbVqqcNNpQnGUZSi1vtdecvWKoOSWqSbaSvCS3vyFcVDVSc4+/h40X29RbiJKdCnJcHOD/ALyAlqTjTg5zdoriyJ4qi1ZOf9XL1Fcd+TS719KJgManrnCFFNxUILnJLje3BEnuGGjbxaafnfrKYPfR1PjKUm/OymGSnOpWkk5ObiuxJ2sAc8TNaY0VTfwpSTS8i4+gvShh6G9vTFb30t+tst14h/8AIiu+p+4rGlKU1OtJTa4JK0UBDSjKhKNWe5VL6+xt3X02J61OTlGpTaU43tfg0+hl8kpRcZJNPimRKFalupyU4dEZvevKBTnMQ/FWHUX8JzVvWUkqtGPOc5ziSvNS3eVdRdzmI/R4+Wp+4KlOck68k0ndQjw8vWAwzvOs+ua/yxIrVFiq1Sm27abwvuat0dpLpqwnN04Qkpyvvla25Lq7C6jCSnOc0k523J3tYCjVPEUk03bimtzi/qZSlUkp81Wsp9D6JLrXqKypyjU5ylZN++i+Ev3llWNarDTKjT601Ud0+tbgMgFIKSglJ3lbeyoAAAAAAAAAAAAAAAAAAAAAAAAAAARYv8T+1H/MhjPyWp8ll1aDnTcVxun5ncjqKvUhKnKnTipKzam3b0AUiniG5Sk4wV1FRe+/W/UXXxFNWcFWXQ07Pyp7is6Kc3UpydOb4tcH3opqxMdzpU59qlb0P1gUjGrVqwqVIqnGF3GN7tu1t5Wu9VWlSXHVrl2JfvF8TLcoQp9rlqfmL6VNU097lKW+UnxYFlTxcTSk+DUofQ/qK4iM9dOrCOpwbvG9rpl9SEakHGXDs6CO+JgrWhVXXfSwKTlzsXRqUp09aaV2vqZfRnztG00tXvZx7eksarVKlNypqChLVfXe+5r6y+pSvPnKctE+vofegI48/RjoUOeit0WpWdu258q8KXMZ4XkpxFGolT9mYmlRjC93Kz1b+7Tc+r68Stzowl2qdvRY1M8P/bzE5M9nNncNh6XPVI1cXLVO6it0I7l+10ga5cpGaU8HkksDGS9kYrxVHpUL739XlNl/ueUI4/Z3OM2mvdcMqeAT60vGv5tHmNHcfjMTjsVPFYutKrVnxlL/AHuR0V8BvZ2OU+D/AJbi5xdKvmmKrYzUuNtWheiAH3XTVoylzcVUg23pvZpvqC5+q1ePMw6d95P6kV1YmO5wp1O1S0+gasTLcqdOHa5X9H7wIsRKpChVpVGp3pycZdL3dKMjEfiKnyX9BY8OnSqRcnKc42c2J8/OEoc3TSkmr84/UBZh5SowpwqScoSS0zfQ+p+svq05Rnz1H3/50eia9faSKC5pU5JSVrO/SRxjWprTHTUiuGqTTS6uDuBJSqRqQ1R7mnxT6mXEEYVefVRwjC+6Wmd9XksTgAAAB+N5TeUjY/k6yaWZbU5rDCqS9xoR8avWfVCHT9BpdyyeFntjtROtl+xqls3lcrx52LTxdRdsvzP2fOBubyh8qWwewOGdTajaTB4SqldYeM+crz7qcbyNbuUHw1KVOc8NsPsvznQsXmc2l3qnD1mm+PxeKx+Kni8bia2JxFR3nVqzcpt9rZjAfWtsfCI5Xdp3NYna3EYGjPjRy5ex4ryrxvSfMMyzDHZliZYnMMbiMXWlxqV6jnJ+VjLcvx2ZYqOEy/B4jF157o06FNzk/Ij6bsv4O/K/tDGE8Lsbi8LSnwqY2cMPH++7+gD5ODZfKPAx5TsTFTx+cbM4BP8ANeIq1Jr+jTt6T9BR8CLaPTettvlUX+phajA1IBtrifAi2lUb4bbfKZv/ANTDVI/Rc/N5z4GvKpg1KWBx+zmZJcI0sVUpzf8ATppekDX/ACjOc2yXELEZRmmMwFVf8zDV5U5ehn1XY7wmOV7ZqUIx2k/hehD/AJWZU+eT/a3T9J421PIPytbNqU8w2KzGdKHGphUsRH+42fOcXh8Rha8qGKoVKFWLs6dSLjJeRgbtcn3ho5LjJU8Ntvs7Wy2b3PFYGXO0+/Q9687Nj9h9vNj9t8CsXsrtDgsyhpu4UqnukPlQfjLyo5HnoZJm+aZJmFPMMozDFZfiqbvCth6jpzXlQHYgGi3I34X+e5TOjlnKLhpZzgt0fZ+Hgo4imutx3KfofebkbC7YbNbb5HTznZjNaGY4SfF05eNB9Uo8YvsYH6EAACJflcv5tfSyUinGoqvOU4xleKTTlb6u0CPEVHTxEWkm3BpXdldtF3M1IpSjVfOdLfvX2W6CqhKdTVVhBLS42Tve/kCpVKe6jNOPwJ77dzAc5iFueHu+tTVvX6C7D05QjJzac5y1Stwv2eYt5zEfo8fJU/cHTq1d1VxhDpjF8e9gMO9dSpVXvZNKL60unz3GF3KcOmM5el3+smSSSSVkiOpTbnzlOWidrb1dNdoGi/h7bBZnU5VcFn+XYeFWlmWBSn7oovXTdnxt0OJr3sjiamzm1csLmKVJTXM1d91FuzTv5vOby+HJUll2wOVbQ18E6scHjuYk6c1uVSPb2wRoNtRmdLN84qY+lQlRU4xTjKV22la/oQHUzkZzF53yV7PY6FRc9TwsaTk+DlT8Rp/0T9jzmI4ext/XrVvX6DWn7nxtHi815KcyyarXVaeU5haMKnFU6kbrf3qRsvzmI/R4/wBZ+4C6hTlHVOo06k+NuC6kiCSdSUsTBX0NaLfnJcfPdkrp1au6rJRh0wj097JkklZKyQEc1GvR8WW52cZLofQyznMRHdKgpv4UZJL0lZUpRk5UZKN97i1eL9Q5zEfo8X3VP3AU0YhpzdVRnfdFb426u3vKU585iINqzUJpq996cS5xr1N03GnHpUHdvylZU3CUJUox8WLiot2W+3Z2AR4qMpV6CjNwktTTXd09ZJTmqsZU6kUppWnF/wC96KKNWdaE5xjHRfhK97+QurUtdpRempH3sv8AfQBGm8O1GTbovdGT/N7H2dpkEMnXacXRpST3O83v9BXDQnThplwvuWq9l1XAlAAAAAAAAAAAAAAAAAAAAAAAAAAAAARYP8lp/JRDRcqi5mMtMU25tPe/Ge5eskpqvThGnGnTkoqybm1f0FVh4unFS3TTbUoveru4DTWpP3NqpD4MnZruZZUVavB0pUuahLdJuSbt2WL/APiYK1oVV0NvSxrxL3KhCPa5/uAuxM9FGVvfS8WK62+BZXjowiXHm9L8zT+oup0nr5yrLXPo3WUe5EoEeIhztCUYtXaun0X6Czn5xjepQnFLi7ppekKFWlupOM4dEJO1u59RSq8RUpypuhGKlFpvnOF/IBdh3onOi929yj2p/v8AqKOFWlUlKlFTjJ3cW7NPrRfOkpwipNqUeElxTLb4mCtphV7b6WBWtUnGUIw0+PuTabV/IWUsXSdNSqTjBveuKuuguruKnQjdJ69y8jMKNSPMw0VGk6UNVpcLySv2OwGd7JoW/GLu6fMXc7T5vnNcdHXfcYMdDr6HUloU5JS1O9kk7X42u2RqcnNWk5SdFVI9LcrLfbpdkwM/2Vh07Oqk3wT6S6VeirXmt6ukt5h1Jw0TeGqzmlSk5vW3pdtzv0Msw8qaUedqOFN33qbV5X6X3WsBnQxFCbtGrF+URxFGTSVRb+D6H5TDa1yw6qOTpty990q/it9fR5yCnUlqWuVeo9/OQaV2um61WQHqTr0YScZTSa49hjV8ZOnUaUFKNrp9D4dPl9BiUptcwnVqQne0JX3SvLpXfu6T08KouhC0UrK1uPAC6jNzpqTVrl4AAAAAAAAAAAAAAAAAAAAAAAAAAAAW1ZOFOUkrtIgo4ynJyjOUbxs9yfBpO/ZxJ6zSpTbdlpZgU5U1CKxFSVNc3Hm7Scb7t73cWBmPE0Fb3SO/qKxr0ZT0KomzA0T3vVKPORjGortJTa42XT72/eTYKE5SWtOOnxnDU7KT328it5WBPiK3N7opN2u23ZRXaReyal0k6b3X8aEoea/EtxKaxDdm7OM7cbpJr0NpkVOc61WMOclOLfjSjKLUf7oGc61OMYOctLkrpdJbPEQ0J05KTlJRS7bnnOpKVJTnOcW5tTaStu4Ju6sitNyc6Mr1bqa8eVlqi5LdubbXeBlrGppNR4JOe5+Lvt+8mWJoPhUR58ZLmovnJ+NGLqPW971pO/k3EmIpzU+ahKWlb4+N72L4tfJa9IGdTrU6m6E0znr4cGJpZ5yvZrjZZjGMMpp0suhQ5qTfOaOcav26r3OgdJxhRliqraVnK7fvY9C8xy15Ts4q7R1tpM+lql7N2krV4u35rjKz81gPw0MuzCpV5qGCxLnxcebfnOsfJdlmH2c5OtncghOK9hZdQotfrKCv6bnOzk8pZtnfKXsDk8MTiVHEVKNSv47vNKTlPV1+LF8TpXGML6FJxvUnDQnutpfRw6LgZ9StTptRnNJvo4sthiKE5WjVi2YOHqQlCE61RxjK+qSk1eXQm+7gilaV+YU5SdNzlZyb8aN47317r7+oDOeKw641Y24X6POV9kUdOrnFZuyMSElaC5yXsnWlKnqfXvVuFrEVTdGrPXUUuds5LfaN30tqyurcehAejGtSlGTU1aPvr7rFssTT0y0S1TSuo24nmqcnos6k3zicZNKzXTFO7b32JcHNOtdTnJKabjN3cW7rj51bcBNRxk51VBwXFrt42/eZpSy6kW1Jwpwc5yUYxV23wSAubsrs1o8I/wAKDKti3iNm9iZYfNs/V4VsS5asPg35Pfz7OC6eo+f+Fb4S1TGTxexPJ3jubw0dVLH5rS99V66dJ9C659PQagzcpycpNtve2wPW2s2jzzarOq+cbQZjiMwx1d3nVrT1PuXUuw8c9zY3ZbPtsM9oZHs7llbMMdWe6nTXBdbfBLtZu9yE+Cds7szChnO3kaOe5wrSjhVf2LQfd/zH37uwDVLkp5EOULlHqwq5LktTD5bJ2eYYuLpUPI37/wDZubX8mvge7D5JGlitrsdidosYt7pL3HDJ9WleNLyvyGy2Ho0cNQhQoUoUqVONoQhGyS6kiYDxNltltndmMGsJs7kmX5XRStow2HjTv3tcT2wAALKs4U4SnOSjCKu23ZJGtPKZ4X+xuzmb1sr2cyrE7RVKE3GpiIVVSoNrioy3uXfawGzINfOR3wp9i9u84o5FmOCxOz2Z13poLETU6FWXwVNcH3o2DAH5rbHYXZHbDDuhtLs5luZpxtqr0E5rulxR+lAGqPKZ4GuzeYwq4vYXOa+UYl71hMX7rQfYpe/j6TVDlP5KdueTrFujtNkOIw+HbtTxlJc5h6ndUW7yPedXTDzXL8BmuAq4DM8HRxmEqx01KNaCnCS7UwOOZ+n5Pdudp9gc+hnOzGaVcDiYta4p3p1V1TjwkjbXl58EbBY2FfPOTJwweKs5zymrJ83U/mpP3r7Hu7jTLPMpzLI81r5Xm+Cr4LHYebjWoVoaZQYHRHwdfCK2d5TaVPKM2dHJ9pkrPCyn7nie2k3/AJOPefeDjfhcTiMHiqWJw1adGvSmp06kHZxa4NM3i8FDwk47R+xdidvsXCGcbqeBzCTSji+qFTqqdvT3gbXGPiq8qL4K2ly3p77K7RkGNjW+doqCTn4zSfT4rAvhiaEkrVFvV1fpKrE0N/ui3GHehOMY87Od0+eUpN2Vt7a6HexZpq6YKo5PQk5ycneMX41+/c15gPSp1IVE3CSaXEx5YmTklCyT4Xi5N9tl0dpfShN4aTk3zlRNu7va/R5DE5x04uSlzako2d7Wsrab2drMDJoV5zqKMubabaTje6t1p8CR4iim06i3OzfQvKYE51VQdVuotU1C7ad49LVkmW1JSjXlGNSqmp2hBRXDoSWrerdgHzrwsMp++HkI2qwFOlzksPhlioW+FTev6IvznNXMMlxmEhg2qVapLE0ec0qk7xd34vfuudZMzwVLMcsxuWV9UcLjKbozg5cIzU01uduk5fbdVc2yPNsDh54vEqtg4yhNupJqVSNScXffvulZ9gH3T7nbnVTLOUbaDIMVGpRhjcvjVSlFq06c1a/fGUjemrV00HVhaSSv17jnd4PGbrZ/lsyfaKeMqrCZ1iaODpJ1G91ZNST+TwXVc6IYhQp4SrwjFQf0AWwxFpyjWcVpsrpNb7X+tFyxWHauqsbWve/Ex3KKrWUrT56KsnvtpVyDWuZg1UcnKkpSu76XqSuuri+AHpU6tOpfRJO3FdRY8Vh1xqxS4X6POYVeUIySVRuHO6G3Ju0Wotq5fqilZTl7J12VO7ta/DTw029YGZ7Io6NXORtexb7KoXtziv1PijBjL3atKUpbqlpSu7xjqd7dXR3IvqtOlWVCcp0/FSepvffek+rhuAzJYijFtOot3G2+3eXSrUopNzXjb1bfc8utJQm406tWEdK5uyW/dxXjK7v2FJz31rqpTi3G9mk4Pz2s3fpAzq+L0xjKlacW0rrvS+u5fg67rxbcUrdTLMA1KDu9bajLU1xTW4ykkuCAAAAAAAAAAAAAAAAAAAAAAAAAAAAAAMWOLSqqFVxjdtWs7pq27t4kvsmha/OLq7TEclzk3KTjRdWWqSduhWV+otknKanQlKUoyfNtyfjRSu1fpVwM14mhu90W8uqVFCCkk5OW6KXSYNGE3V0pyUaj8WSk7yh75vv3pecyMbB6YKNoq0oJ/BbVl/vtAseKnpclKlxt72Wn+lwJ6dZc3KdVxjpdm77jBqVprxIa7pWVKMkn3Wafn4Cq5xnVp6p+5004OKTavxtw6PrAzvZFFp2mrpXs9zIY4tu0XG1SWnSmnwa4+Qwoyc1KKlUqJ2s91oyv16m/MS0ZNunJzm5p00ryfBpX84GXSxdGcItzUW1vT6GSLEUXLSqiuYMYv2JSlTnJ87FKXjvfPir99rPvJsHCU37pqtBe9b3KT3teTcvOBk1aUalm3KLXTGTTI/YtPolUV+Pjvf3k4Ah9i0uF56fg63bzD2NT/Oc59Wqbdu7qJgBD7GhxdSs2uD5x7jGrYSoqjlSlVjfphPj2NN+kzwBjYXDaYtVbyVnG0pam7u7bfWy/2NTvvlUlH4MptomAEPsaF7qVSK6lNpEsYqMVGKSS3JFQAAAAAAAAAAAAAAAAAAAAAAAAAAAAAAUnFTi4vgyL2NBb1Osm+Puj3kwAx69F8yqdKN43vJXs308S/DQlCEtSs5ScuN+JKALalOFRWkuHBp2aInhacvfyqTs7rVNuz6ycARPD07LTqg0rXjKzCoU1Fx8Zt8ZNtvzkoAheGptLfO/Xqd33kWJo1ZyajFuLg4K0krJ2v0dhlgD8Vy3549m+R/arONajUw+VVuaadvdHBxh/eaOVX8L5l7CeC9m1lh2tPNavFsdA/D9z7+CuQyWWQnapm+YUqFuuMPdJf5Ec7gNkvAUweYbTct0MdmGKr4ihk+ArYiLlL3s52ppr+mzoB7Gp8dVW/wALW7+c1I+5uZDzWQbVbSzhvxGIpYOlPsgnOf8AngbegQ+xqf5rnF9LjJpvv6y2eEg4SUZTu/hSbVzIAHnRwtZTVnW0ppqDq3ivLxa7LGWsPDm4xk5aor3ydn2kwAhWGp2d9Un8JybfnKwoQjJPVOVuGqTdiUADSzwz+X+pVq4rk42MxumlG9PN8dRn759NCDXR8J+TrPpfhmcs/wCD7Zb72cgxKW0mbU2tUffYShwdT5T4Lys551JzqVHOcnKUndtve2BGfQuRPkr2l5U9p45VklJ0cJTaeMx1SDdLDw7et9Uekj5E+TLPOVHbShkGUwdOhH3TG4tx8TD0umT7ehLrOmXJrsPkHJ9sphdndnsKqGGorx5tePWn0zm+lsDyuR/ku2W5Ltno5Xs/hE68or2VjpxXP4iXXJ9XZwR+9AAAAAAAPjPhm7QY/Z7wfs8xGXTnTrYudLBupGVnGFSdp+i68pq94GPI3stym1c7zTauVXEYfLJU6VPB0qvN63NN6pNb7bjdvla2Mwe3/J9m+yeNlzcMbRtTq2/F1FvhPyNI5218v5X+QPbDE+wv4RyXENOHsmjS53DYmnfc96cGu/egPW8LnkyyTkr5Q8HhdmcTVjgsdhvZVKjKpqqYaana1+Nt10b4cg+e43aXkc2Uz3Mm54zF5ZTlWm+M5pWb8trmgmx2wnKhy97eRzLNf4QxFOrKKxebYuGmlSprojuS7oxOj+y2S4HZ3ZvLshy6GjB5fh4YejH9WCsB6gBh5vmGDyrK8VmeYV4YfCYWlKtWqydlGCV2wPw3Ljys7O8lGzMM1zhTxWKxEnDCYKjJKpWkuPdFdLPhexXhpZZmGf0sDtPshLKcBXqKPsuhjee5m/TKLgrrtXmNavCH5S8Zyo8o+Mz2c5wy2i3Qy6jL/l0E9zt1vi+8+d4ejVxFaFCjTlUq1JKMIxV22+CQHYrC4ijjMNSxWGqQq0KsFOnUi7qcWrpo+Y8vfIpsvyrZK1jKUMBndGDWEzKnTWuL6Iz+HDs8x+n5G8ozHIeSrZfJ83b9nYTLKFKum76ZKC3eTgfrwOSPKZsLtFyebUV9n9pMHOhiKe+nNL3OtDonB9KPzNOc6c1OEnGcXdNOzTOqfLhyXZByqbI1MnzanGli6acsDjIr3TD1OvtXWjmbyjbGZ5sFtbjNms/wzo4zDSsmveVYdE4vpTA3P8Dbl7++3CUdhNr8Uv4dw8LYDFVZb8bTS96//US86NoKtGFR+M5LdZ2k1dHHfLMfi8rzHD5jgK9TD4vDVI1aNWDs4TTumjpb4L3K3huVTYOnXxM6dPP8vSo5lRju1PoqpfBl6HcD6ysPTTV5VJJcFKbaIq9GrOrJ6W07JPUkkk78LGWABFOhCUnJOcG+LhJq5KAIY4alGeuzculttt949jU+ClUUfgqbS8xMAIpUKbae+Nla0XZNdTOZfhcZdisj5ddosqnVq+wamJWMw9N8IqrFSdvLKR05NEvujmRexOUHZ/aGnC0Mwy54eb650pv6qiA17qbQ4XDVMmqZTTxdGeVYhVqXOzi02pKV9y43R1gyXHUM4yHA5jReqji8PTrwknxUkmvpOPB1A8ErPltB4P8AstiJT11cLhvYdTvpScF6EgPqPsWne+urq4aucd7d5X2NTXCVRddpvf3kwAhWGpLdeen4Op6fMHhadraqij8FTdiYAYeJwjdpU5VG10qo1Jdqf1FMNhqqnqqTqS3ptzldu3BJdCM0AQvDwu3GVSF97UZtIPDU92nVC3wZNEwAtp04001G+/e23dsuAAAAAAAAAAAAAAAAAAAAAAAAAAAAAAAIXhqd7qVRPotN7ivNaISdO7qNe+k7vzslAGNhKM6c7yi4pQ075J9N78O0yJRUouMkmnxTKgCH2NDhrq6fg63YRw1GMNEY2S4Wdmu7qJgBFChCMtTc5tcHKTdinsana1526PGfi93UTADHrUZKEY005JSUmnLe2nfiy/CwlTpWnxcm+N+LuSgAAAAAAAAAAAAAAAAAAAAAAAAAAAAAAAAAAAAAAAAAAAAAAAAAAAAAAAADST7pFn3O7QbK7NU57sPhquMqRv0zahH/ACSNQj7T4aWffw74QmfOM9VPL408DDs5teN/ecj47g6E8TiqOGpJupVmoQS6W3YDpR4F2RPIvB7yHVDRVzCVTHT3cdcvF/upH2k8XYjJ4ZBsbkuRU1aOX4Gjhl+xBR+o9oAAAAAAH53lG2ryzYjYzM9qM2qKGFwFB1NN7OpL82C7W7Lyn6I0c+6Dco8swz/CcnWW1/8Ahcvticx0P31ZrxIP5Md/7XYBrdyi7WZrtztlmW0+c1nUxWNqudr3VOP5sF2JWR5+zOSZltJtBgsiyfDyxOPxtVUaFOP50n9R5ZvB4A3JSsBlNXlMzrDf8XjE6OVQkvxdH8+p+1wXYu0D7lyCcmOV8lmwmHyXBwp1cfVSq5ji1GzrVbb/ANlcEj6MAAAAAAAAAAI61KnVhpq04zXVKNyQAWU6cIQ004KMepKxeAANOvD45W+ZoR5MMjxFqlVKtm9SnLhHjCl5ffPyGwvLzyi5fyY8neO2jxThPF6eawOHf/Prv3q7ul9iOW+fZrj88zrGZxmmInicbjKsq1erLjObd2B55tL4CPJL98e0r5Qc7w+rKspqWwFOcd1fE/D7ofTbqPgvJXsVmvKFtzluyuUxlzuLqe6VLbqVNe/qPsSOqGw2zOVbH7KZds3k1DmsFgKMaVNW3y65Ptb3sD3QAAPi3hU8jmG5Udi6mIy+jTp7S5bCU8BW076q4uk31Po6mfaQBxwxmGr4PF1sLiqU6OIozcKlOSs4STs00ftuQjlFx/Jjyh4HaLCupPCXVLHYdPdXoN+Mu9e+Xaj7l4fHJTHJ89o8o+S4bTgcynzWZwgt1PEfm1P216V2mpwHYrJczwOc5RhM2y6vDEYPGUY1qFWL3Tg1dMzjUz7n1ykPNNnsbyd5niE8Vln/ABOX63vnQk/HgvkPf+32G2YAAAAAANZvuh2RfwhyQ5fnUY3qZVmMdTtwhUWh+nQbMnzrwk8h++TkM2uyuMNc/wCD54imv16Vqi/yAcrDe37nHnvsrk+2g2enO8sBmEcRBX4Qqwt9NNmiRsz9zxz3+D+V7MMlnO1PNcukorrnTetejWBv+AAAAAAAAAAAAAAAAAAAAAAAAAAAAAAAAAAAAAAAAAAAAAAAAAAAAAAAAAAAAAAAAAAAAAAAAAAAAAAAAAAAAAAAAAAAAAAAAAAAAAAAAAAAAAEGMrww2FrYmq7U6UHOb6klcnPnvhHZ797fIhtZmqnoqRy+dGm/1qnua/zAcw9t83nn+2Gc55UbcsfjquIu/wBebZ+o8HLIvvk5b9k8qcNdN5hCtUX6tP3R/wCU+emy33PLIf4R5YsdnM4Xp5Vlk3F9VSo1BejWB0CAAAAAAAB4m2+0GD2W2RzbaLHtLDZdhZ4ifbZbl5XuOTG1md47aXabMs/zGo6mLzDEzr1W30yd7G9H3Qja95PyXYHZjD1bV87xnusVx5in4z/v6DQED9jyN7F4rlA5R8n2WwycY4uuufqJfi6S3zl5kzq1k2W4PJ8qwmV5dRjQweDoxo0KcVujCKskajfc59iFTweebe4uj49SX8HYJy6ladRry6V5GbjAAAAAAAAAAAAAAAirVYUqUqtaShTinKcm7JJdJKaxeHVyufetsp94mSYhRzfOKf8Axk4vfQw3Su+fDuuBrd4W3KvPlL5RKtPL60ns/lMnQwEb7qj/AD6v7TW7ssfFlv4FD794GXJNLlB2+Wd5vh3LZ/JZxq1tS3YitxhS7et9neBsl4FPJKththltPm+FUc+zump2mvGw+H4wh2N7pPydRsQUilFJJWSKgAAAAAH5zlG2Wy/bXYrNdl8zgp4fMMPKldq+if5k12qVn5DlBtZkmO2a2mzLIMxhoxeX4meHrLqlF2udgjQn7oVsTDKOUHL9scJS04fOqHN4hpbufp2V/LDT5gPiPIrtnX2B5Tsk2nozmqeFxEViIp++oS8WpH+i2dXMHiaOMwlHGYapGpRr041Kc1wcWrpnG86XeBjtc9rOQjKI1quvF5VKWX1+vxPef3HAD7UAAAAAGPj8NDF4KvhasU6denKnNPpTVjIAHH/bPKZ5DtfnGS1FaWAx1XDNfIm4/UfrfBsz57OcueyWZOein/CEKFV/qVfc3/nP0Xhn5D/AXhC7QRjDRSx/N46n285Bav76mfIcBiJ4TGUMVSdqlCpGpB9qdwOx4PH2LzaGfbI5PnVJpxx2CpYi6/XgmewAAAAAAAAAAAAAAAAAAAAAAAAAAAAAAAAAAAAAAAAAAAAAAAAAAAAAAAAAAAAAAAAAAAAAAAAAAAAAAAAAAAAAAAAAAAAAAAAAAAAAAAAAAAA1q+6G59/BvI5gcmhPTUzXMoRkuunTi5v06DZU0V+6PZ97K272e2fpzvDA4GeImv16k7fRBAaom9X3OLIVhdhdodoakLTxuOhh4P8AUpwv9M2aKnT7wRch+97wfdmKE4aK2Lw7xlTvqzc16GgPrQAAAAAAAOen3QDaKWbctcMljPVRybAU6VuqdT3SXocPMa6H7nwgM4ln3LVtfmblqU81rU4P9WnLm4+iKPI5M8o++DlE2cyS2pY3M8PRkv1ZVEn6AOmPg67Lw2R5F9mcm0RhWWChXxHbUqePP6beQ+hkdCnGlRhTpq0YpJLsJAAAAAAAAAABpd4YvhC4yOPxnJ7sPjXRpUb0s0x9GfjTl00qbXBLpfkA+0crPhI8nXJ/iKuXTxdbO82ptxlhMv0y5t9U5t6Y+l9h8Hznw2toamIf8D7F5bQpfm+ycTOpL0JGpUm2227tloG3uR+G3nEJ6c62IwVWPXhcXKm15JJmsW3+1Wa7a7X5ltNnFZ1MZjqrqPfuguiC7Etx+fAHsbH5BmW1O0uA2eyjDuvjsfWVGlDtfS+xcTqdyP7CZZydbA5fsvlsU/Y8L4itbfXqv3833v0WNOfue2L2Qw3KNmNLNvF2ir4fRlU520aP+ZFfrvd5EzfgAAAAAAAAAfDPDc2XW0fIHmmJhT14jJ6tPH0nbfaL0z/uSfmPuZ5G2OVUs92TzfJaqvDG4KrQa+XBoDj8be/c3to3Sz7abZSpU8TEYenjqMf1oPRP0Tj5jUjFUZ0MTVw81adObhJdqdj7L4E+cSynwiMghq0wx0a+En26qba9MUB0tAAAAAAABpF90iyLmNpdmNpKcN2JwtXCVJdsGpL0TZqIdDfugGRLNOQ+OaU46quUZjSrX6oTvTfplE55AdMvAwz7+HvB72elKeurgOcwNTs5ub0/3HE+zGo33N3Ped2a2n2bqS34fFU8ZTXZOOh+mKNuQAAAAAAAAAAAAAAAAAAAAAAAAAAAAAAAAAAAAAAAAAAAAAAAAAAAAAAAAAAAAAAAAAAAAAAAAAAAAAAAAAAAAAAAAAAAAAAAAAAAAAAAAAAAHMHwus9/h/wg9qK8Ja6WFrxwdPsVKCg/7yZ0xzjHUstyfG5lWdqWEoVK02+qEW39ByF2kzCrm+0GY5rWlerjMVUxE32zm5fWBFlGBqZlm2Dy6ir1cVXhRgu2ckl9J172cy+llGz+XZVRSVLB4Wnh4JdUIKP1HMrwVsh++Hl92Twbp66dHGrF1Fb82inU/wC1HUYAAAAAAGPj6yw+BxFd/wDLpyn5kZB5W2EnDZPOJrisDXf+GwORWeYiWKznHYqTvKtiKlRvtcmz6d4H+AWYeEVsnSkrqlXqYj+rpzn9R8nrb603+sz7l4CUFPwjcov+bhMVJf1UgOkRZUnCnTc5uMYxV23wSLz4n4a20eYbOcgWbVMtqTpVsdWpYGVSDs406jevzxTXlA/M8pHhdbBbM5xVyvJcvx+0VajLRUr0Zxp0LrilJ735rHvcjfhNbC8ombU8knTxeRZvVemjQxbTp131QqLp7HY1s8DnkS2a5UKWcZztTWr1cLl9WFCGEoVebc5SV9UnxsflfCm5Ncv5JOU3C4LZzH4iWExOGhjsNGdS9XDvW1a67Y3TA6Yg/IcjeeYnaTkr2Zz7HP8A4rHZbRq1X1z072frwAAA+b+EjtvPYDkdz3P8NPTjnS9jYN9Vap4sX5N78hy1r1qtevOtWnKpUqScpyk7tt8Wb1fdHsbVpcmmz2Ci2oYjNZSn26Kbt9JoeB++5EeTHPeVLbKnkGU2o0acVVxmLqRvDD0+vtb6F0m+Gw3gzckmzeW06OJ2cpZ3jNPumLzCUqjk+yF9EfIj8j9zxyTBYPkgx+dU4x9l5hmdSFWfTppxiox9LflNmAPgnKV4LPJjtPltX+A8qWzWZW9yxGDb5u/69Nu1u6zNCOUnYvO9gdrsZszn9FU8ZhnulHfGrB+9nF9KZ1yNNvukuSYONDZLaKMYLGTnXwdR9M4JKcfM3Lzgag7P5tj8izzBZzldedDG4KtCtQqR4xmndHWTk32mw+2OweSbUYayhmODp12vgSa8aPkd0cijpB4CeMq4vwecsjVbfsbF4ijDu13/AO4D7wAABSTUU23ZIqfJPC52jx+zHIHtDj8tlOnia0IYRVIbnBVJqEn5mwPyPKd4WWweyGc1cmyrBYzaPF0JuFaphpxp0INcVrfvn3K3aZvJD4Umwe3ucUcjxOHxmz+Z15aaMcW4yo1ZdSqLp70jWjwOeRvZ7lUzPOsbtRiK8sFlipxWFoVNE6s6mre3xstJ5fhb8lWUck+3GXU9nMZWeBzDDuvRpVal6lCUJWe/q4WA6Tg/A+D3tBjdqORfZXPcylKWLxGAiq0nxnKDcNXl03P3wHJPlgwEcr5VdqsvhG0cPm+JppdiqSMzkGxzy3ln2QxidlTzfD37nNJ/SZvhLQVPl823jHh/DFeXnlc/NcnEnT5Qdnprisyw7/xIgdeAAAAAAAAfiOXbIVtLyPbVZLo1zr5bVdNfrwWuHpijk+9zszspUhCpTlTqRUoyVmn0o5G8peRz2b5Qc/yGUXH2BmNeir9Sm7eiwH2f7n9n38F8uUsrnPTTzbLq1FLrnC1ReiEjoccnuQnPvva5Ydlc6c9FPD5lSVR/qTeifokzrDxAAAAAAAAAAAAAAAAAAAAAAAAAAAAAAAAAAAAAAAAAAAAAAAAAAAAAAAAAAAAAAAAAAAAAAAAAAAAAAAAAAAAAAAAAAAAAAAAAAAAAAAAAAAD5d4VOffe9yBbWY1T01K2E9iU/lVWqf/czlwb5/dGM99hcmmSZBCdpZjmPOzV+MKUPXNGhgG0v3OfIfZnKXnefzheOW5cqUH1Tqz9UJG+ZrB9zqyL2DyVZvn0o2qZpmbhF24wpQSXplM2fAAAAAAB520lLn9nsyoLjUwlWHngz0S2pCNSnKEuDVmBxvxUdOKqwfRNr0n2jwHsQsP4R+QanbnaOJp+ehM+WbeZfPKtts9y2as8JmWIoW+RUkj9Z4NGaLJ+XnY3GTlojLNKdGb7Knif9wHVE/EctOwuG5RuTTNdlK9TmZ4mnqw9V/wDLqwd4Puv6D9uAOXuBxvK5yAbWYzDYZ4zI8XU9zqa6Kq4fEpcGrpwn2MzNj9jeUzwgOUOOYZlLG4vnZxWNzXEUtNKhTXQtyXDhFHS7F4TC4qnoxWGo14dVWCmvSX0KNLD01So0406ceEYqyQGFs3lGDyDIMvyXLoaMLgcPDD0Y/qQVkekAAAAGuP3QPIKua8ilHNKEHJ5TmNOtO3RTmnBvzuJz1OwG2GRYHafZnMtnszpc5g8ww08PVXZNWuu1cTlZyrbEZvyebcZhszm1OSqYao+Zq2tGtSfvai7GgNlfufHKTl+XzzHk5zfEQoTxdf2XlkpuynO1qlPv3Ra8puscbsPXrYavCvQqTpVqclKE4uzi1waZ962G8LLlR2ewFPAY6pl+fUqa0wqY6m+dt2zi1fygdFm7K7OfPh3cpWA2x28wWzeS4mGIy/IYTjVqwd4zxEn49n0pJRXfc/PcpPhPcp22mX1MrWMw2R4CstNSnl0HTnNdTqNt27rHxGTbbbd2wLTp34IGQVdnvB+2cw+Ig4VsVTnjJxfFc5NyX92xol4OnJlj+VHlEweUwpVFlWHlGtmWIit1Oinwv1y4L9x1DwuHo4TC0sLhqcadGjBQpwSslFKyQE4AAH5TlX2Pwm3vJ9m+ymMlzcMfQcYVP4uot8J+SSR+rAHL/m+VrwfNtMSsK8XkuLadJ1lRVXDYunfc1qThNelE2RZBypeEHt/TxWMljMfWqOMK+YVqWjD4al+ylFdy4nTPF4XD4qlzeKw9KvD4NSCkvSVw+HoYamqeHo06VNcIwikkB5WxOz+B2U2TyvZvLU/YuXYaGHp34vSuL7+J7YI6tSFKlKpUlaMU231IDlV4ROIji+XTbavF3TzrEJeSbX1HjclVB4rlL2Zw63upm2GX+JEwttcylnG1+c5q3f2Zjq1f+nNs/ZeDDlrzXl+2NwijdLMYVn3U05v/ACgdTQAAAAAAADm54cmQrJfCAzOvCGmGaYejjY9ra0S9MGdIzS/7pNkKWJ2T2mpw9/CvgasrdVpw+mYGndKcqVWNWDtKLTT7TrjyZ53HaTk92fz6MtXs/LqFaT/WcFf03ORR0j8BvPv4a8H7LMPOd6mV4irgpb+CT1R9EwPuoAAAAAAAAAAAAAAAAAAAAAAAAAAAAAAAAAAAAAAAAAAAAAAAAAAAAAAAAAAAAAAAAAAAAAAAAAAAAAAAAAAAAAAAAAAAAAAAAAAAAAAAAAA0H+6KZ97O5VcoyGnJunlmWKc11VKs2/8AKoGr59M8J7Pvvj5d9q8ep66UMfLDU3f8yl7n/wBp+G2WyyrnW0uWZPRWqpjcXSw8F2zmo/WB068GDIVs5yD7JYBw0VamBhiai/Wq+6P/ADH0sxctwlHAZdhsFQWmlh6UKUEuhRVkZQAAAAAAAAHMLwu8jeQ+EFtRQUNNLE144un2qpCM36Wz5jk2Oq5ZnGCzKi7VcJXp1oPtg019Btb90e2Ylh9o9nNrqNP3PF0J4GvJL8+D1w9DfmNRQOw2zOZ0c72dy3N8PNTo43C08RBrqnBP6z0j4V4EG10dpuQrAYKrU14vJKk8BUTe/Qt9P+40vIfdQAAAAAAAAB8z5eOR/Z3lY2eWDzKPsTM8PFvBY+nHx6T6n1xfUfTABy05V+RLb/k4x1RZxktXFZcm+bzDBxdShOPW7b4d0rHzN7uJ2UqQhVg4VIxlF7mmrpn4/OOSvk2zjESxGZ7CbOYmtLe6k8up6n3uwHJyEZTkoxi23wSPsXI54PG3/KJjKNdZdUybJHK9TH42GhOP/pwe+b9HadB8h5NuT3IaqrZNsTs/ga0eFSll9NTXltc/WJJKyVkB+M5JOTnZzk02Vp5Fs9hrR9/iMTUV6mIqfDk/q6D9oAAAAAAAAAAPxHLvtBHZbke2pztz0ToZdUVJ/wDqTWiH95o/bmrP3RHa5ZdyeZTsjRqWr5vi+erJP/lUvXJrzAaHPezYr7n9kUsz5cpZpKF6WVZdVrX6pztTXonI10N6fuc2y7wexGe7VVqdp5ljFhqEmuNOkt/96XoA2vAAAAAAAAPgnh3ZEs45AsbjIQ1VcqxdHFLsV9EvRM+9n5blayOO0nJjtLkcopyxmW16cPl6Ho9NgOSBuf8Ac2c+bobWbM1J+8lRxtGPfeE/ogaZ1ISpzcJq0k7NH3nwEc+/gfl9wWDlPTSzXCVsK1fi7a4+mAHRwAAAAAAAAAAAAAAAAAAAAAAAAAAAAAAAAAAAAAAAAAAAAAAAAAAAAAAAAAAAAAAAAAAAAAAAAAAAAAAAAAAAAAAAAAAAAAAAAAAAAAAAA8zanM6OS7NZnnFeWmlgcJVxE32Qg39R6Z8g8MLPv4B8H3aSpGeipjaccFT/AP7JJP0XA5oZjiq2Px+JxuIeqriKs6s31tu7PqvgeZD/AA/4QWzdKUNdLB1J4yp2c3Btemx8gNs/ub+Q+yNs9pdpJwvHB4GnhacuqVSd36KfpA3lAAAAAAAAAAHx/wALrYuW2nIfnOGw9HnMblyWYYVR46qd7rywczmOdlatOFWnKnUipwkrNPg0ctfCS2CqcnfK3m+SxpuOBq1HisC7bnRqNuK8m+PkA+heAZt5HZjlVns3jKqhgdoafMx1PdHEQ30/P40fKjoWcccuxuJy3H4fH4OrOjicNUjVo1IuzjKLumdT+QblAwfKVyaZXtLRlBYqUFQx1Jf8vERS1r612MD9+AAAAAAAAAAAAAAAAAAAAAAAAAAKSaim27JHMbwtNvFt5yz5ri8LW5zLcuf8H4Kz3OFNvVJfKlqfmN0/C75SocnfJTi44OvozrOFLB4FJ74XXj1P2U/O0c0HJyk23dvi2BLhcPVxWJpYahFzq1ZqEIri5N2SOr3IrsnDYfktyDZiMUquDwkOf7asvHqf3mzRPwJuT6W2fK/hszxeH15XkNsbXbW6VT/lR8+/9k6PgAAAAAAAAC2cVKLT4NWLgByX5Z8jezfKvtRkjhpjhszrqC/Uc24ehoh5Js8ls3ynbN54p6I4PM6FSo/1Na1+i59Z8PfIf4K5ea2Ywhanm2Bo4nvnFc3L/IvOa/RbTTXFAdlKc4zgpwd01dMuPx/IxnsdpeSfZfPNeuWKy2i5v9dR0y9KZ+wAAAAAAAAAAAAAAAAAAAAAAAAAAAAAAAAAAAAAAAAAAAAAAAAAAAAAAAAAAAAAAAAAAEdWpJTVOnFObV7vgkBICLXUhOKqKLjJ2Uoq1n2orVqqDUVFzm+EVx/cBICJeyXxdKHZZy9RRyxEXdwhUX6rs/M/WBMC2lUjUjdXVuKas0XAAAAAAAAAAAAAI69SUHCMEnKbsrvdwv8AUBICDnK0JwVWNO0paVpk3v8AMTgAAAAAAAAAAANTPukGfex9jdmdnITaljMdUxc1+rThpXpqeg2zOfH3QfPv4S5aMPlEZ3hlOXU6bXVOp7o/Q4ga3HQf7nxkH8G8i2IzicLTzXMalRPrhTtBelSOfB1b8HzIfva5E9k8ncNFSnl1OpUX69T3SfpmwP3oAAAAAAAAAAGvHhvcmD225OPvjyug6mc7PqdZKK31cP8A8yHba2pdz6zYcsqwhUhKE4qUJKzTV00BxqPuvgfcrj5Ntvll2a11HZ3OZQpYu73UKn5lbyXs+zuKeF/yR1eTfb6pmWWYeS2czicquEaW6jU4zo+TiuzuPhYHZWlUp1acalOanCSumndNF5qx4FvKjmeP2Xwexm1WKp89BWynEVW3KrSXClJ7t6/N61uNo6NRy1RnHTOPFdHegJAQ89ObaoQUkt2qTtH95W2ItfXSv1aH9NwJQQ87Uh+Op2XwoO6Xf0omAAAACjaSu9yNf+UzwruTrY/N62UYCjj9oMXQm4VZ4PQqEGuK5yT3vuTA2BB8R5IvCW5PuUTM6eS0ljMlzaq7UcNjlFRrP4MJxdm+x2PtwAAAAAABA6laU5qlGm1CWl6m1vsn1dpdQqSnKcJqKlBpOzuuFwJTDzbMsFlOV4rM8xxNPDYPCU5Va9Wo7RhBK7bMtuyu+Bot4a/LpDaHF1uTvZPFt5VhqlszxNN7sTUX/LT+BF8et9wHx7wjOU3FcqXKPic5vOGWYe9DLaMvzKSfF9r4s+cUKNStVjRoxlUqTajCMVdtvoITaLwGOSB7S7SrlAz3CuWT5VUtgoTXi4jErp7VD6bAbO+Cxyax5NOSvB4DFU0s4x9sXmL6VUa3U/2Fu77n1kAAAAAAAAAAAANPvukmQ68o2V2lhD8TXq4KpL5a1r/IzSg6V+G1kP8ADng953UjBSq5ZVpY6HZonaX92cjmoB0V8AfPv4V5BqOXznerlGOrYZrqhJ85H/O/MbBmlH3NvPtGb7VbMynuq0KWNpx7YS0S/wA6N1wAAAAAAAAALK0+bhezk27JLpZZKWIhHXJQklvcY3uu7rAmBZOrCNNVG/FfC3T3FiliJu6hCnH9Z3fmXrAmBE/ZK4OlPyOPrK06uqWiUJQn1P6n0gSAAAAAAAAAAAAAALK0+aozqNX0q5FOeJhCU5Qo6Ypt2k728wGQCkXqipdauVAAAAAAAAAAAAAAAAAAAAAAAAAAAAAABFU1wqqrGLlFrTJLj2P0slIa0VOvThJXi1JteYCkpSrSjGMJKCalKUlbhvsiuEV6fOv31Txm+zoXmKOnClWpc3FR1SaduncyuGelcxJ+NDh2x6H9QFFOtVlLmtEIRk43km22tz3biuvEQ99TjU6nB239qYdKcJOVCSV3dwlwb+oKuk1GtB029yb3p+UC6hTcIeM9U5O8n2kapwq1qvOR1aWkr9G5FGqMq9TntLs1p1PosiajGlFPmVFJvfp6wLKEVCvUhFWilFpecmIatPDueqqqeq3F8bEfuVPEQdNxUNMnOz3dAGUUcop2ckn3kMYzrrVUcoU3wgnZtdb9RV0MMmk6NK764q7AmBC6GjxqD5t9X5r8nR5C+lUU4NtaZRdpJ9DAvKOUVxaXlIY6sR42pwpdCW5y7b9CKuhho21UqW/4STb84ExDX/H4f5b/AMrDw8Y76LdKX6vDzcCPnHUnh5NK/OSTs7r3r4AX4r31D+dX0MnIMY0nRbdkqq3+RhasQ9TvGj0Lg5/u+n6QnBi1qdCMlThRjKo+C6u19hPQp83TUW7vusBeAAAAAAAAcpPCEz375OWrazNlPXTqZnVp03+pTfNx9EEdPOUDN4bPbC57nc5aVgsBWrp9sYNr0nIzE1518TVxE3edSbnJ9rdwPZ5PsontBt1kORU4uTx+YUKFuydRJ+g654ajChh6VCCtCnBQiuxKxzb8CTIf4c8ITJKk4udLLKdXHT7NELQ/vyidKgAAAAAAAAAAAAAD8rypbE5NyhbF47ZfOqd8PiYe51EvHoVF72pHtTOXvKpsJnnJ3tji9m89oONWi70qqj4len0VI9jOth8x8ILkjyblY2TlgMVGnhs4w0XLLsdpu6Uvgvrg+lAaAbIbbYDB5ZhaeKr1MJisJGMYTjBu+ndFprgzbjwbPCIy3b3Gfenn1X2LnV408JXqOyxlOKbfyanHvNZ1yf19lteSbUZJh6eaYarOFRzpqWtKbtKMulNW3n4HMcZDZ3lF9l4SHMU8NVhJRpLTpTppSa87A60VZqjRuo3SsoxXmSLLYt79VFdmlv03+o1t5EuXzD4rA4bKNscTz+HnFLD5nHf3Kp9rz9ZsXhMQ62HhiMNVpYzDzinCpTkvGT6U1ufoAllzta1OdPRG/jtO6a6l3ktduOHqNbmoO3mLJ1ozo1NDamovxWrNbuosVPByj4ypO633aAu9j0eb1c2r2vckw7boU297cVfzF9la3QY6pYJKyjSSXagPk3hg7TY/ZXkEzzGZZUlRxWKdPBxqRdpQVSdpNeS/nNTvBC5Esi5Va+c5ltLjcVDL8tlTpqhhqqhOrUmpO7dnZKxupywbG0OULkzzfZCrUVOpjlL2NUfCnUhK8JP9VNI1D2Qy3avkMz3FYfDQr4TG1FoxDxFPXRxCT3NJrTbqaA/E+FHyXYDkh5RMDhtncyxFXBYygsXhecqLnqDU7WurdK3M385EdoMXtXyS7L7Q4/8AK8bl1OpXfXO1pPytXNScLs9tDy17XqpjcHRzGrPTTrYqdCMaWGgu1Lclv3Lezc7ZbJMLsps5l2R5dG2X4DDww9OPTCMVa/agPcBZWqaIqy1Sk7RXWyxUFLxq8ucl1fmryesCVSi3ZSTfeVIVQwrbSpUrrqirotknh7OM3Km2lpk7tdz+oC7DfjMR/O/9qLaUkq+JbdkpRu/2UYuNzLAZTg8Zj8yxVLC4WjPVOrUlpilpRpd4TPhAZ/tJnGI2F2A57CZdiIpYjFx8WtiE1ayf5kOt8X2Ae74XXhHUqdLF7B7AY5TqTTpZlmdGe6K6aVJrp+FLyGlzd3d8T6xkWyWWYHBqOMw9HGYiW+pOpC6T6op8F9Jl7K7F1+Ufa2GyOxOT4LnLp43MXQjzWFp8G79f09AHicgXJXm3KrttRynCxqUcsoSU8xxlvFo0+r5T4JHTjZPIcs2X2cwOQ5Nho4XAYKkqVGmupdL7XxZ4XJDyeZBya7H4fZ/IaStHxsRiZR90xFTpnL1dB+0AAAAAAAAAAAAAAPC29yantDsTnWRVI3WOwNah/Sg0jkViKNTD16lGqnGdOTjJPoaOyRym8ITIfvb5a9rMojBwpU8yq1KK/wDTqPXD0SA/X+BLn38B+EJklOU9FLM6dXAz7dcLw/vxidKjkJsFnFTZ/bjJM8pytLBY6jXv8mabOuuFrQxOHpV6TvTqQU4vsaAmAAAAAAABHXjJxjKFnKEtST6ewtlWnKNqdKet/CjZR736iuK/EvtaXpRHiKNKnQqThBRlGLaa6AK0Ka51p71RShHvtvf0F9WpUdXmqSjqUdTlLgl0d/BlL81iHqdoVLWfVLhby7i6rScpqpCeiaVr2umupoC1vEw3tU6i6opxfpbK0oylUdWorPhGPUvWynO1Kf46nZfChvXrRbWdOpUpanF02m+O58LAXV4qdenCSvFqTa8xa6cKValzcdOptO3TuZdSp4dT1UlT1W4rjYvrRpSS55RaT3ausC8GJXjQhT1UdCnqjbS9/FErlOtNwpycIRdpTXFvqXrAlbS4tLvKppq6dyF4fDxV5U4PtnvfnYeHpcaa5t9Dhu/cwJgRUpyU3Sq21pXTXCSKTlOpUdOk9Kj7+fV2LtAmbS4tIJp8GmQ+x6CV5wjLrlPf9I9j0Gk4RUH0Sp7voAY78jrfIZdi/wAlq/Il9Bj4iU/Y2IpTak4029S6u3tMjF/ktX5EvoAupfiofJRcY0ZyqxjSouySWufV2LtK1aWGpQ1Tpp9C6W39YGQCHC0nC83FQ1cILo/eTAAAAAAAAAAAAAAAAAAAAAAAAAAAAIp/lVL5MvqJSKf5VS+TL6gFb8bQ+W/8rLqtOFRJSXDg07NdzLMTJQnSlJ2Sk2/6LKJ4iS5yKUd+6nLpXa+hgVtiKfvZKtHqlul5+BdCcK0JJx7JRkuHYy1YiPCdOrB9Tg36VuFDVKtUrODhGSUYpqzdr7/SBbTpxjVdGcVONtUHJXsuleT6y7DxjGrXUYqK1Lgv1UVvqxiS/Mg7+Vr1FKTtia0fky9FvqAooQli6rlCMnpjxXeK8Ie504xjFTmk7Likm7egTmqOJlKaahKKtK11dN+tFK1WEoRq05KSpyUn3cH6GwL8TOUaaUHaUpKKfVfpEcNQUbOnGV+Lkrt97K14OpS8RrUmpRb4XRasQrePTqxl0rQ36VxApR9yrugm3Bx1QT6Ohru4EWNemvCCv7utEvI19TZNRjKdWVecdO7TCL4pdb7/AKiHFp1K2uKb5hKW7pd07eZekDIxM3TouUUtW5R727IthhqKXjQU5P30pK7ZdViq9BqMl4yTjLt4plsa9larTqQkuNotp9zQFPY0bOEZyjTfGC4d3YhWSjWwySSSm7L9ljXXneVOmoxXBT3OXqLZVFUrYdpOLU2mmt6elgTVaVOqkqkVJJ3SfWW4mrKmoxivGm9Kk+C7y3GSqxVNUpKMpVEt6unue4upzjXpyhONmt04PoAuo0lTT3uUnvlJ8Wy8gjKVGSp1G3B7oTf0MnAAAAAAAAA+IeG3nyyTwe87pQnorZjUo4KG/jqmnP8AuqRzWN1vukmfaMr2U2apz/G1q2Nqx7IpQh9MzSkDcL7m3kOvNdq9pakN1KjRwVKVumTc5/RA3WNfPAIyH+CeQejj5w01M2x9bE364K1OP+R+c2DAAAAAAAAAAAAAAAAA/Dco3J9ku3mS1MLjoKjjKU5+xsXCK10nd7u2PWjnV4QWwe0ew3KBjcNneBnChVlH2Ni4xbo14qEVeMvq4o6k4b3k/wCcl9J+c222XyDbLJcXkO0WVUcyw1eXvKkfePSvGjLjF9qA5QZNneZZRO+CxMowbvKnLfCXk+s+4cjXhF57sfiaeGqy/wCCk/HoVJOVB9dumD7Vc9zl18E/aTZedTN9g3Vz3J0nKeFuvZVDuXCa7Vv7Ga80tnM9qYv2L/BWLpVFK0udpOCi+1sDplsHyxbHbZUaVKWMjlGZteLRxU1FN9UJ8JLzPsPob5mtgJVVTp+NBvclxtvOc+XUXgsuw+HlU1OhRjBzfTpSV/QeHsly98o+xuZ4pZHtFVr5ZOtUccFjI89R0uT3K++PkaA6ff8AK/ZIsNSpexqXuUPeL81dRr3sb4TWAxWBw72hyKtRdSnF89gpKcbNcdMmn6WfudnOXbkyzLm8NLaB4HFJKLpYzDVKXDpUtOlrygfTKKTr1ZJLxbQStw3X+v0GJmWAweaSlhsdhaGJoQSbp1aanGTfWnxRg5LtXszmlaf8F7QZVjY1EpxdDFwn2Pg+49SdWEKrrQnGpCSSmoNNq3B9oFmFyzAYTDqjgsHQwcI+8VCkoKPkRlYefO0Iykld7pLoutzIKuOoxjaE7yfDV4qXe2edjdptmsmwbnmOf5ZhqdOLlUnVxMIrrbe8D0MC9VacXd8yubjfvf1JEtVc7X5htqCjqkl+dfcl3bmfJanhBclGDx1TDYfaelmOKqRdR0cHTlU33bavbTwfX0Hz3lH8JfNaWFq1dhNm6VXEadGrMZ8V1qEXxW/dcDZjFQwVDDSq11RoU6cbuo3o0r5XQfA+V/woNg9jOdwmRYhbVZzTTjGOGqf8NSf61Xg+6NzUDb3lA5XuUbFyw20WY5pVoOW7Cwp8xh496ilF+W5+Vz3YvMcuwUMTRksWlC9aMFvg+my6V2+gD7BiOU7azlKoVs02ix14PFS5rC0bxoUkkuEevte882GGoQxVTFRpRVaokpz6WlwXceByR4evjMiWHw1GpXrVMTJQp04uUpO0dySNk+SjkFzfFZrUzbbl+xspSg6eX037u3be5te9jw3Lf3AfH9jeTzbPlR2hnkeR4atlmTUGv4RzWrBqKi/zafwn2L/73c5KeTzZrk22YpZDs7hFTgrOviJRXO4ifw5vp+o/RZdlWAy3L6ODyrD0sHQoxtShSjaKXV2ozKNTXeMlpnH30f8AfQBIAAAAAAAAAAAAAAAAc+fuhGQ/wby0YXOIwtSzXLqc2+udNuD9Gg6DGpv3SDIfZOxmzW0cIeNgsbUwtR/qVIXXpp+kDRs6r+D1n33yciuyebSqa6lTLKVOs7/8ymtE/TE5THQb7ntnv8JcjGKyeU71MqzGpBLqhUSmvTrA2SAAAAAAABFi/wAT+1H/ADIYv8lq/If0DF/if2o/5kMX+S1fkP6AJJxjOLjJJp8UyLmqtP8AFVLx+DPevI+JTVUqyapPRCO7U1e77Owqq0o7q1KcX1xTlF+b6wK06uqfN1IOE7Xs96fcyypTjTqxkopwnK0o23JvgxqdavTcISUYNycpRtfc1ZX7y/Eu6hDplONvI7/UBa4Qji6TjCMXplwXcVxEYyq0FKKktT4r9Viq7Ymi+vVH0X+oYluLpVNLkoy8ayu0mmgFaNOlRnUjTgnGLasi6EVRoJN7oR3vr62WSqUcRTnSjNNyi0X0Zc7QTkt7VpLt6UBHQoxnBVa0VOpJX379PYhOEcPUhOmtMJSUZRXDfwffcUqjoxVKrGfi7lNRbTXk4MPVXqQ8SUacHqbkrOT6LL0gVx0lTpKt005J+fc/pLsIrYaF+Mlqfe97LcYlUjGhx1yV+xLe/q85dhH7hGL99DxJd6AjoU414rEVYqblvinvUV0F7w8VLVRfNN8dK3PyFtKTw8eanCbgveSjFvd1Oxdzs6ktNGDS6Zzi0vIukCzE0408BWjFfmNtvi31syJxU4OMldNWZi4mpJ4StTqR0z0PufczIxEnHD1JRdmoNp+QCktGHw70U3pgt0YotoQ1NV6klKbXi24RXZ6ymGqz8WnWtzjV1JcJr19glF0JOcE3Te+UV0dq9QE4KRkpRUotNPemioAAAAAAAAAAAAAAAAAAAAAAAAAAACGteNWnU0ykkmnpV3vsTFlSooOKs5OXBK31gRT93nCLpTUU23qVuhr6y5c9S3Jc9Dv8ZeskpzjUgpxd01dFwEPsiCXjRqxfU6b+pB1ak91GlL5U1ZebiTEdStGMnFRlOSV2l0d74ICtGmqcWruUm7yk+LZbWhPWqtK2tKzT4SXUUjXu1qpzje292a3u3FMmAh9kRS90p1YP5Df0XKU2qmIdSKlpcNL1Ra4Pt72SVasadtV96b8iKKrB1eb334fX9aAsUalDdCPOU+iN98e7rRX2RTXGNVPq5uXqJilSShByfBAROdWpupQcF8Oa+heskpU404aY+Vvi31ltOqpS0uEou11drh5GSAQaKlFt0lrpve4Xs13eor7IgvfRqxfU6bf0EwAhdWpPdSpS+VNWS8nEsnSdN0p+NUam5TfS9zRkgDGqSdadJRp1I6Z6m5RtusyStTcmqlN6akeD6H2PsJQBBKqpQcamHq71ZrTdDCue+LU9K965Kz7i7E14UKeud7f7Yo14VZOKUk11qwEoAAAAAAAOdXh759/C3LzWwEJ3p5TgKOFtfhN3qS/zrzGv0U20lxe4/c8v2YzzXlp2vx1R3c81rqPdGVl6EeTyX5THPuUfZvJpxvDGZnh6M1+q6iv6AOonIzka2a5Kdmck06ZYXLaEZr9dwTl6Wz9eUilFJJWSKgAAAAAAAAAAAAAAAAY8Julqi6VR3m3eMbrexCk5udVOVOTleL7LJb15C/n485os/fab7uPV1koEKq1IbqtJv9aG9ebj9J+B5QuTDY7bNTrYrA1MJmD4YvC0nCbf6ytaXlPogbSV27IDRXlv5COU/KMDVWzOAWd5ZJe6VML+UuPU6Su0u5yNXcywGNyzF1MHmODxGDxFN2nSr03CafamdhfZF7aKU5RfB7lfuu954G1exuyW2eGlh9pNncBmKUeOJoJzXdLiuAHMHY/bKGX4SGX5nCcqMN1KrBXcV1NdKP1a2u2dcNX8JRt1c3O/msbUbYeB3yaZs51ckxOaZDVlwjSq89SX7M9/94+SbSeBftNh51ZZFtblWMhFNqOJpToy3ceGpAaxxxtTAZ1PGZXiJQ0VpOjNbrxu7buproPomScpUKlKMMficXg6qW+UJycH3Wd0fosx8FHllw2p4fJcBjlF2boZhT3v9to8at4NnLXSdnsLip/IxVB/94GRitvcqVO886r1+qK1ts/CbXbX184g8JhYToYRvxtT8ep39S7D9phvBr5a609C2Hrwdr+64zDx+moe9lHglcsWOs6+XZXgYv8AOr4+Dt/Q1AfCMLXrYXEU8Rh6kqdWnLVGS4pn0LJNvcHVpRp5rTlQqrc6kI6oS7bLevSfctm/Amz6rKM9odssvw0emGDoTqy88tJ9b2M8EfkrySUK2aUsx2grR3/8ZX0U7/Ip29LYGrWTZphc7xcMHkkMZmmKm7QoYPCVatSX7MYn1zZXweNutr6Uf4crLZLKqiXOa0quMqx6YqCdqffJ37DbTZnZjZ/ZnBLCbP5NgcsoL8zDUFC/fbieyB875J+SvY/kyy14HIMqnKrqbljK0VUrTulxl0LdwVj99h03Uq1HFxU2rJrfwsTACDTKhK8IuVJ8YrjF9nYWVp67SjSrRqR97LR6H2GUY9TF06dV05KV1v3K/V60BPTbcE5Kza3oqW05KcFJcGXAAAAAAAAAAAAAAA+QeGFkP8P+D7tJSjDVVwdOGMhu4c3NN+i59fPL2ry2lnOy+a5TWWqnjcHVw812Tg19YHHs2z+5v58sNtntNs5UnZY7BU8VTV/zqU3F+ip6DVPF0ZYfGVsPLjSqOD8jsfZPAnzGpl/hFZAou0cXCthp9qlTf1pAdLQAAAAAAAR4mLlRairu6du5pkdao6lKdONKqnKLSvHcT1JKEHJ8EW0qiqXSTTjxT/cBY6dSm3Ki0097hJ7vI+geyEvxlOrD9hv6LkwAh5/V+KpVJvti4r0laVOWt1arTm1ZJcIrqRdVqRppartvgkrtlirtuzoVONt1n9D3AX1qfOQtfS07xfUyxVpR3VqUk1+dFak/NvJYSUoKUeDV0JyUIuT4AQTqRrSp82p3jNPfBpW4Piu0unTnGbqUbXfvovhLt7GVeIppRbvv9G+30koEPsiKXj06sH8hv6Lh1pS3UqU5PrktK9O8mIlXi2vElpbspXVr+e4FaNNxbnOWqpLi/qXYUqU5KfO0mlPpT4S/31koAh59Je6U6kH8lyXoHP6l7nSqTfyXFekmAGNWo1KlGrKbTqSg1FLhHs/eVrVXUozpqjVvKLSvHsMgARypKdGMJ8UlZrin1osjVqQWmrTnJr86Cun6ictqTUISm+CV2BBSbVb3OnUjCW+SlGyT60ZJj0sXTqSSSkm3bhu42495kAAAAAAAAAAAAAAAAAAAAAAAAAAAAIMYlpp/zsPpJyLEUpVNDi43i7rUm1cDDp0ksPCrGMIwcklFJ6km7e+ve/YRNyhTlr3yjJpyit8lvS9K9KMpYSfOanOne97qL49dr2v22KV/cqkY07RcINRck3qb4dHXvAkwcHqlPxUl4viq12uL89zHTvJc5BT99JJ8HLVZ367Kxm4eKjQhFJpKK4kdfDa23Bx3u7Uluv1q29MDEVVKU5xpwWha5xjqV7dNmkugtqzk5Jt0ZScFJ65Ju732s3uXcZUcJPS485GMXukox497e8VMG2/FcXHgtV7pdW5q67wMWM1LW4yp1Yui7XetRe68b9P/ANF8aPjrD3juqPx9O92jF/77DJnhW4WUottNSutzTtu3cOAjhpRqRlrTs9TbTveyXX2AYl0qkVKKirXlFR3eLfV9Vu9GbRpuOGamleSu4pblu4GO3rrSjZJSqpuFney8nWl5EZtWLnTlFO11xA8+jBOnF2W7mk01xTSX1lHHTBzstLU5R0tqXi9bv0k/sSpeL1U1ptZJOztwvv6B7EnZrVTd0001KyT423gQVJzwsnbTqVveqyd0+K71xLpU26Var4rVNtPVfVK3Hxr7vISSwUpJxnKElK12077vL2srPCTcr64Ptknd96vZ+UCGp4lWrGO6EbJRu1dvTa/lZdWp8zKSkqcnzblG0bJWa4q+/iMTQqxbq6oOUt0nobi93Sr8HZcCPDxqycoe5+MkvFbk+PFtt2VuC7QLZyktF3Sm3TUvHkm1fgrN7l29I57UlFVKbjo3eNrjGfU+tcePWZdXCNvxHG3bdNLqumt3YxLBve1KLbWlpp2t2We4CzCQjVjKFSMbOPCLunx3oyqVGnSbcI2b4lmFoc1vbV7WSV7Lfd8e0nAAAAAAAAA5J8sFCeF5VdqsPU3Thm+JT/rGZvIHiqWC5atjsVWkowhnGHu321EvrP1XhlbPT2f8ILaCLg40cwlDH0X1qot/99TPkuAxVbA47D4yhJwq4epGrBrokndAdjwfm+TfajCbZ7C5NtPgpRlTzDCwqyS/Mnbx4+SV0fpAAAAAAAAAAAAAAAAAMDExjLEzi4ptyp6b8E/G3uxZiKc4OUIOGqOl2UbRkm7WaMmphpylNqVO02m9UW27cOn6BRwzp+NJp2d7Rvvfa222Biak6jUYpx06lBrdZ7orvvfzMy60HDDwpt3TnFS3brN8O4hoPVVhHdpU5TcUn4vV0dr8rM6cYzg4SV01ZgecpLm9U6MJzlfW5pvffhuT4CFV2pxutNWLkpKb97FcLtbieeEnKd705dbknd99nZlywsm051W5R940ktP7gMGnU3x1Tw9LUvfxmlZ23dO/yl0oueGTcYJwhOVnHjv4P6zJhg2pb3BR4eKnw6ldu3kLp4Ryk1qSi1Jbk77+K4gQyhec6rUNLqODWncuhPz2uWYZOq1G29u15LfGy8a3l3ecyKtOVPD1tSjJ1L3Sulv6ekuwl5VZzb1blFSs1ddPlvf0AUx6V6TtvWr/ACMgdNe9SV2qem991734dG7gZWIoyqTjKLhuTVpJtb+5kSwc0ra4tO29p3VuFt/RcCJU5OWhaLrXe6bj4tuEb9N15ixV5OLp79KipJan06bJvjZNmT7En/GRVr70nd34339hSODd9TcE9Om0YuzVrWab37kBHVpc05alTk+alKNotJNdavvFGEqslByi2o6rzWrddpJLybySOEqKMlqp2lFxaak7rvbuvIY1anVpy0XptJu2tuL39Uk96fUBdG7qUYQehyclKSbb3N3s30bmR0qqvCU54enF/nxqLxerffxvKZOGpSqxTm0tMbRlCNkne+6/Qty7S6ODkpe+hFfqp3Xcm7LyAYsak6jpykqUpt+PCTs277rPu6jNp4ejVowlNa7xs2+n/diz2HJOGl02oPxbp34332e8yqUFTpqCbdul9IFYRUIqMeCKgAAAAAAAAAAAAAAAgxdWFDCVq03aFOnKTfYkTnzLwnNsKOxXIrtDmTrKGJxGFngsGul1aq0K3cm35AOYWeVliM6x2Ij72piakl5ZNn07wP6FTEeEVsnGN/ExE6j7lTkz5KbJfc99n55lyyYrO5Qbo5Tl05a+qpU8SPo1+YDoIAAAAAAAC2rvpTT+CzAw9FVV4ipxapwu5x1Xeldu5GfVi505QTtdGLLCVJWu6TslFJKSsurc967wMbx29y1KdNOGre4ys91+rc/OiXCLnZxlG1n4+prxtN93ns/ISYinzVC1/GlJPXbdG3CyXV1EuD385NpXlPc11dHoAhxTfPyUve+JFvqi7/S0kROS5yEY0qdKTemNlKL7rqNjNr0VU3ppStberprqa6UQQwlSLupwg+hxTbXdduwGPUqucFuppRm6ajKSsklvsnxZbCd3Ba6TaqLVTjJSVrq0rX3f/Rlywni+LJXb1NO9r9as7pl0MK1Czkr9Fk7Lfe/W+AGLKOlznppvnFLc48PHS/f3ivF0E4724tLUl40k1Zend5UZDwkmneUG3e6adt7Tdt9+KKYiUoVY2aUowaUpJvU3a3BcLgX4OHjSn4qS8XxVa7XF+e5DoUsTOPC9Se9fJiZmHio0IRSaSitzMeWEm27TgvGctST1X84ECinBVFGFlCDmrPe3xtv3FJKVOOtNPfNRe/VeKe9vpvbgT+xJ299TVkkklKzS4X3h4Sbd3Km223Zp2V+Nt/awI6blippvTdxcvGWpJXaSS8hbZp0YwtCUpSjKSbfCSW6/Rx3EzwTUFGMo2V3vvuvxs072KVcLU5teNF82no0Rs109fYgI4wTpUq7UNE5R8VXUrN7vGvv7SNylzblenbndCjJ2it172b3vs72Upuoq8ZPmXaV7xTu+6N9zf1sy1hG6Md8VNq8k+F+vdvT3gYka2laVOmrzSnCE17zrsnu6txJhd9VKXNOLlbVT3Xun4rXR5SeOEaUW5xUoy1JJO1+t3d2VoYRwnqk4JXTem++17cW7LfwAkhhqMZqah4y6fLcmAAAAAAAAAAAAAAAAAAAAAAAAAAAAAAAAAAAAAAAAAAAAAAAAAAAAAAAAAAAAAAAAAA1P+6G7AzzPZfLNvcDR11sqfsXG2W/mJvxH5Jv++aLnYjP8qwGe5LjMmzOhGvgsbRlRr03+dCSszmB4QHJbmnJXtxiMpxNOrUyyvJ1MuxbXi1qXVf4S4NAfXvAg5asPsrj5bAbTYrmsox9bXl+IqS8XD13xg+qM93c+83wi04pp3T6TjQbA8ifhQ7ZbBYKhkub0YbRZNRWmnTrTccRRXVGp0rsaYHRcGs+W+Gbya18Op4zKs+wdXpp8zCp6VIyvbj8lP6Pn/wAzj9oDY4GuPtx+Sn9Hz/5nH7Q9uPyU/o+f/M4/aA2OBrj7cfkp/R8/+Zx+0Pbj8lP6Pn/zOP2gNjga4+3H5Kf0fP8A5nH7Q9uPyU/o+f8AzOP2gNjga4+3H5Kf0fP/AJnH7Q9uPyU/o+f/ADOP2gNjga4+3H5Kf0fP/mcftD24/JT+j5/8zj9oDY4GuPtx+Sn9Hz/5nH7Q9uPyU/o+f/M4/aA2OBrj7cfkp/R8/wDmcftD24/JT+j5/wDM4/aA2OBrj7cfkp/R8/8AmcftD24/JT+j5/8AM4/aA2OBrj7cfkp/R8/+Zx+0Pbj8lP6Pn/zOP2gNjga4+3H5Kf0fP/mcftD24/JT+j5/8zj9oDY4GuPtx+Sn9Hz/AOZx+0Pbj8lP6Pn/AMzj9oDY4GuPtx+Sn9Hz/wCZx+0Pbj8lP6Pn/wAzj9oDY4GuPtx+Sn9Hz/5nH7Q9uPyU/o+f/M4/aA2OBrj7cfkp/R8/+Zx+0Pbj8lP6Pn/zOP2gNjga4+3H5Kf0fP8A5nH7Q9uPyU/o+f8AzOP2gNjga4+3H5Kf0fP/AJnH7Q9uPyU/o+f/ADOP2gNjga4+3H5Kf0fP/mcftD24/JT+j5/8zj9oDY4GuPtx+Sn9Hz/5nH7Q9uPyU/o+f/M4/aA2OBrj7cfkp/R8/wDmcftD24/JT+j5/wDM4/aA2OBrj7cfkp/R8/8AmcftD24/JT+j5/8AM4/aA2OBrj7cfkp/R8/+Zx+0efnXhncnuHwzlleS55jq9t0JwhSj5Xd/QBsvisRQwmFqYnE1oUqFKDlUqTdlFLi2znT4YPLJDlL2vhlOR1ZS2byico0GuGJq8JVu7oXZ3nm8uHhE7a8p1CeVznTybIW/yHCt3q/zk/z+7cuw+LADox4DWwNTZDkjhnGOo83mO0E1i5preqKVqS8zb/bNVfBR5HMTymbaUsfmWHqQ2YyyoqmNqtWVaS3qin29PUjpLQo0qFGFGjCNOnTiowilZJLggJQAAAAAAAAAAAAAAAAAAAAAAAAAAAAAAAAAAAAAAAAAAAAAAAAAAAAAAAAAAAAAAAAAAAAAAAAAAAAAAAAAAAAAAAAAAAAAAAAAAAAA/IcqWwGzfKNsxWyDaPCxq0peNRrR3VMPU6JwfQ/pP14A5jcuPIHtnyY4yria2HlmmQ6vcsyw8G4pdCqL8x+jtPkB2VqU4VacqdSClCSs01dNHyTbjwcuSbazEVMTitm4Zdiqj1TrZdP2O2+uy8X0AcxQb7YnwK+T2pVcqG0e0dGHwHOlL06CP2k+wfxq2j/wvsAaGg3y9pPsH8ato/8AC+wPaT7B/GraP/C+wBoaDfL2k+wfxq2j/wAL7A9pPsH8ato/8L7AGhoN8vaT7B/GraP/AAvsD2k+wfxq2j/wvsAaGg3y9pPsH8ato/8AC+wPaT7B/GraP/C+wBoaDfL2k+wfxq2j/wAL7A9pPsH8ato/8L7AGhoN8vaT7B/GraP/AAvsD2k+wfxq2j/wvsAaGg3y9pPsH8ato/8AC+wPaT7B/GraP/C+wBoaDfL2k+wfxq2j/wAL7A9pPsH8ato/8L7AGhoN8vaT7B/GraP/AAvsD2k+wfxq2j/wvsAaGg3y9pPsH8ato/8AC+wPaT7B/GraP/C+wBoaDfL2k+wfxq2j/wAL7A9pPsH8ato/8L7AGhoN8vaT7B/GraP/AAvsD2k+wfxq2j/wvsAaGg3y9pPsH8ato/8AC+wPaT7B/GraP/C+wBoaDfL2k+wfxq2j/wAL7A9pPsH8ato/8L7AGhoN8vaT7B/GraP/AAvsD2k+wfxq2j/wvsAaGg3y9pPsH8ato/8AC+wPaT7B/GraP/C+wBoaDfL2k+wfxq2j/wAL7A9pPsH8ato/8L7AGhoN8vaT7B/GraP/AAvsD2k+wfxq2j/wvsAaGg3y9pPsH8ato/8AC+wPaT7B/GraP/C+wBoaDfL2k+wfxq2j/wAL7A9pPsH8ato/8L7AGhoN8vaT7B/GraP/AAvsE+D8C3k5pVVPE5/tHiYfAVSlC/l0AaDrfwPvfIF4Ne1nKDiqGa55Rq5Hs3dSdetC1XER6qUf+57u83N2C5B+S7YqtTxOU7L4etjKbvHE433epF9a1bl5EfT+AHh7FbL5Jsds3hdn9nsDTweAw0bQpx6X0yb6W+s9wAAAAAAAAAAAAAAAAAAAAAAAAAAAAAAAAAAAAAAAAAAAAAAAAAAAAAAAAAAAAAAAAAAAAAAAAAAAAAAAAAAAAAAAAAAAAAAAAAAAAAAAAAAAAAAAAAAAAAAAAAAAAAAAAAAAAAAAAAAAAAAAAAAAAAAAAAAAAAAAAAAAAAAAAAAAAAAAAAAAAAAAAAAAAAAAAAAAAAAAAAAAAAAAAAAAAAAAAAAAAAAAAAAAAAAAAAAAAAAAAAAAAAAAAAAAAAAAAAAAAAAAAAAAAAAAAAAAAAAAAAAAAAAAAAAAAAAAAAAAAAAAAAAAAAAAAAAAAAAAAAAAAAAAAAAAAAAAAAAAAAAAAAAAAAAAAAAAAAAAAAAAAAAAAAAAAAAAAAAAAAAAAAAAAAAAAAAAAAAAAAAAAAAAAAAAAAAAAAAAAAAAAAAAAAAAAAAAAAAAAAAAAAAAAAAAAAAAAAAAAAAAAAAAAAAAAAAAAAAAAAAAAAAAAAAAAAAAAAAAAAAAAAAAAAAAAAAAAAAAAAAAAAAAAAAAAAAAAAAAAAAAAAAAAAAAAAAAAAAAAAAAAAAAAAAAAAAAAAAAAAAAAAAAAAAAAAAAAAAAAAAAAAAAAAAAAAAAAAAAAAAAAAAAAAAAAAAAAAAAAAAAAAAAAAAAAAAAAAAAAAAAAAAAAAAAAAAAAAAAAAAAAAAAAAAAAAAAAAAAAAAAAAAAAAAAAAAAAAAAAAAAAAAAAAAAAAAAAAAAAAAAAAAAAAAAAAAAAAAAAAAAAAAAAAAAAAAAAAAAAAAAAAAAAAAAAAAAAAAAAAAAAAAAAAAAAAAAAAAAAAAAAAAAAAAAAAAAAAAAAAAAAAAAAAAAAAAAAAAAAAAAAAAAAAAAAAAAAAAAAAAAAAAAAAAAAAAAAAAAAAAAAAAAAAAAAAAAAAAAAAAAAAAAAAAAAAAAAAAAAAAAAAAAAAAAAAAAAAAAAAAAAAAAAAAAAAAAAAAAAAAAAAAAAAAAAAAAAAAAAAAAAAAAAAAAAAAAAAAAAAAAAAAAAAAAAAAAAAAAAAAAAAAAAAAAAAAAAAAAAAAAAAAAAAAAAAAAAAAAAAAAAAMdUoVqtV1NT0zsrSa3WT6CuGShVq0430xasm79AE4AAAAAAAAAAAAAAAAAAAAAAAAAAAAAAAAIsQ5aYwjLTrlZvqXH6ik8PTUL0/c5LepJ7/L1gTAg52c4wjTSU5xUm3wiiqw9Nu9TVVfXN39HACYETw1HioaH1wen6ClJyjWdJ1HUSV7tb12NgTAsqVFCSjplKTV7RKQrKU1BwnBvhqXECQAAAAAAAAAAAR4qTjhqsouzUG15iKth6UaU5xU1JRbXjy9YGSC2k26UG+Lii4AAAAAAAAAAAAAAAAAAAAAAAAAAAAAAAEDgqteaqb4wslHo4Xu+sCcEGhUa8NG6M7px6OF7rqC14jxlJwpdFuMu3sQE4IlhqCX4qMu2W9+dlJUIQTlTnKk1v47vM9wEwLMPNzpRnJb32Wv2lvP3vppVJK9rpK30gSgtpTVSN1dWdmn0MuAAAAAAAAAAENaKqV4U5X06JOybW+66u8CYGMqcaOJpKnqSkpXvJv6TJAAAAAAAAAAAAAAAAAAAAAAAAAAAAAAABbVlopTmlfTFsC4EEMPTcL1PdJtb5N7/ACdRSNR06cou9SUZ6I9culf77AMgEKoOe+vNzfwU7RXr8pV4ag1bmoLtSs/QBKDHknRnBQqSkpO2iW/zPj5yapNQjqd+NtwFwIXXtvlSqRXW0rfSTAAABCqtbpw07dko+svpVYVLqLaa4xas15CN1qsbyqYdqHXGWpryF1WEasIzhJKSV4TX++AEpFKvHU4QjKpJcVFcO98ERurKtGFON4Skm59cUtz8t9xLKVPD00lHdwjGK3tgWqrW6cLO3ZKPrL6dWFRuKupLjGSsyPnay3ywz09kk35i2pONdwjRWqSs9fDR+/sAkofjK/8AOf8AailH8pr/ALP0FaH4yv8Azn/aiJwrSxNWMU4Qla8/JwQEzrLU4whKo48dNt3nZR1nG2ulOKbtduPrEpU8PTUYx7IxXFspSpyc+drWc+hLhHu9YEwAAAAAAAAAAAAAAAAAAAAAAAAAAAACPEKDpPXe261uN+ixBLnXFqtzvNr326Kuu2z+gmxf4n9qP+ZDGfktT5LApQS56t16kvJZW+ssrqEsUo1/xbitCfvW7u/l4ElWE41Oepq7taUfhL1iNSlWTpu12t8Jrf5gKPDUb3hFU5fChuKrTR8SMZTnK8na1327/IU5hw30Kjh+q98f3eQj11HWTVNc7CLTi5WTTa3p+QC+OuWKjN0pwioSV21xbXU+wrXU1XpTjTlNR1J2a3X72KdWq66pVKSheLkmp34NdnaVr1ZwnCFOmpynfjK1rAV51prXSnBN2u2vqZdUqQpxvOVuhdpDN1pR90pQhGLUm1O/B36i7Dwcvd6i8eS3J/mrq9YDnqr3ww1RrrbS+sc/KKvVozguvdJegc/Kd+ZpOolu1N2T7itOs3NU6kHTm+F3dPuYEkZKUVKLTT4NCcowi5SkopcWyGS5iqpx3U5u0l0JvgxTXP1HVlvhF2gu7pArz8pb6dCpNdbtH6Rz0476lCpFdatL6N5WdZ63ClTdSS477Jd7KKvpaVeDpX4O94+cBiZRngqsoSUouDs13F+I/EVPkv6DGqLVQxFWMHCEoOyf5z67dBk103RmkrtxdvMBSEoww0ZTaUVFXb7iiqyauqFVp9y+lkeHpznGE66tpS00+p9b7S+pUlOTpUX4y99Poj+8C+nVU5uDjKMlvabX1MvLaVONOOmK7W3xb62XAAAAAAAAAAAAAAAAAAAAAAAAAAAAMeumq16WvnLb9Nt67bsyCJflcv5tfSwIJ6tFWU9fO83LTqtuXZZmXBRUEoW0pbu4jlvxcU/4t/Si2Llh1olFypL3skr6V1NAR4WnQqwvVjGda3umtXaf1EvsanbTFyjB8YJ7n6irhRrpT8WfVKL3ryotarUt6k60OlP3y7usC7nW/eUpzSbV01bd3sYSMo0bTi4tyk7O3TJvoI6Mqqh7lThUg25KWu3Ft9RLh6jq0lNx0u7TV78Hb6gI6LqU3UToTd5tppx3p+Ulpz1NpxlGS3tO31ESrVpynzdCLjGTjd1LXt5C2Tq696UJ1bR3O+lK936QJp1oxnoipTn8GKvbv6i3na36LL+nH1lzdPD0uFleyS3tv62W87X4rDPT2zV/N+8CsK0XNQkpU5vgpLj3PgyUjTp4ik01dcGnuafrIudlShOnLxqkWlG/51+H++wCarVhTaTbcnwjFXb8hY6tbows7dso+srThGjTlOUrvjOb6S3nq0t8MO3HrlJJvyAXRrx1KM4ypyfBS6fLwEvyuH83L6YllSvTnTcHTcpvdzbW+/q7RTjKNajGbvJUpX88QLqv5VQ/a+gvqVYwkoWcpvhFcSLFKrz1F0oan4yu+C3cWXwhChCU5yu3vnN9IB1ZJXdCokum8fWSU5KcFNcHwIVGWIeqonGkuEHxl2v1E4AAAAAAAAAAAAAAAAAAAAAAAAAAAA96swAMSPOqKVHneb/N3Rdl2Xf0l1JQ52iop6dM2r8dV1fy8STB/ktP5KI6dNzw6cXpnGcnF9TuwLsY7QhqclT1e6NdVn6L2KrDYaUU40qduhxVn50VjXinpqrmp9T4PuYeHgnqpt0pfqcH5OAFFCNH3SUpze6Ku9/HgW13UqRjFUKi8eLbbjuSafWW1XUtGnUUb6k4yW5Sad7dj3F0q1eDi50IqLkotqpe13bqAvxkZTw8owi5S3NJdO8rzs/0ep54+sriKnNUZVFHU1wV7XI9eJe72PD+s/cBKpxdNVLpRavd9RHz7kr0qM6i69yT85ZRhrtGW+nSSil8KS4skqVrT5uEJVJpXaXBd7AlIcHbmN3vdUrd2p2KOjWl4tTENx6ox0t+UuqzjRhGEIpyatCC/wB8AIcH+V4nqured39JLL8ujq/i3p777/qLHTdGMKkbzlFNT65J72/PvJZRp16cZKXbGUXvQEhSLjv0tdtiHmq73SxL09kEn5y2tTp0YRlTvCa3R073LsfWBJQ/GV/5z/tReqkHUlTUk5xs2ulXI8NfVWvx1q/9GJHzevE1pRempHTpl5PoAq/ccTKpU8aM90Zv8zs7u0ySKlNVVKnUilNbpRe//wC0WJvDNRk26L3Rk/zex9naBkAAAAAAAAAAAAAAAAAAAAAAAAAAAAAIsX+J/aj/AJkMZ+S1PksYv8T+1H/MhjPyWp8lgXzqQhbXJRvwuxUp06kbThGS7UQ0dEqs+d31XdaZL83s7C7mJQ/E1XBfBa1JAUWqjWhDW506jaSk7uLtfj1FcSrSpTXFTS8j3W+jzFadFqaqVajqTSst1ku5Fsmq1eMY7403eT7eoCsvy2H83L6Yir+V0O6X1DEPRUp1X71XjJ9Sf70i6tTdTS4y0Ti7xdrgW478kq/J3l2J1exqui+rQ7W43sWS5xSjCrKE41Lx3Rt0d7K4ebXuNR+PFbm/zl1gSUdPMw0W06Va3UR4u2iHwucjp86+q5TmJwvzFVwi3fS43S7i6nRamqlWo6k1w3WS7kBTHfks+vdbvvu9JXCfktL5Cv5i2T56qoR3wg7yfQ2uCFJ8zUdKW6MneD7+gCuB/J1f32p6u+7uSysl41rdpHOi9bnSqOnJ8d10/IUjQcpKVao6jXBWtHzAVxf5JV+Q/oJJNRi5N2SV2YddKEK1Ok24KnLVHoi7dHqMrEfiKnyX9AFJe7Yd81Vtrj4s47/KW4WUVHmXBQnDjHr7V1kdOMqFONSmm6binOK6O1eolqQjWhGcJWkt8Jro/cBKCKjVcm6dRaakeK6+1dhKAAAAAAAAAAAAAAAAAAAAAAAAAAAAiX5XL+bX0slIl+Vy/m19LAP8rj/Nv6UXqpBzcFNOS4q5BinNVlovfQ7tK7Sur2L4UqFSjFQ96veyi96ff1gVnQpylrV4T+FHc/3jDTlJTjNpyhLS2uncnf0lOar8FifF7YJvz/uLoqnh6TblZLfKT4tgW0Vpr1oLhdSS6r8foGD/ABL+XP8AzMrhlLx6sk06jvZ9C6ClB6alSk9z1OUe1P8AfcBhOFX+dl9If5dH+advOg6VSM5SpVVFSd3GUb7+zeixupK8t0qlGVmlu1Jr94F9b8roX4Wlbv3W9FyYjap4ikrO6vdNbmn9TLOaxHBYnd8hX8/7gK07ey6tvgxv37/3EVf/APkqFup6vM7fWTxVPD0m3KyveUnxb9ZFzU6sJ1JeLUk04J/m24f77QL8Z7yF/e85HV3X9diYjhKFenKMo7+E4PoLOarR3QxDUf1o3fnAmvHVa61ekjl+Vw/m5fTEtlQpRpydSTb4upJ71236C2hKUq1Nyu/EnZtWbV477ATyqQjOMJSSlPdFPpIsVCWuFWznGHGH1rraKYmEalejGSunq+gupzlCao1Xdv3k/hfvAlhKM4KUGnF8GipBOEqU3VpJuL3zguntXb9JNTnGpBTg04vgwKgAAAAAAAAAAAAAAAAAAAAAAAAAAAAIsH+S0/koph5KOH1SaSUpXb+UyuD/ACWn8lGPScdUVWdoKT0X965anx7QMtOFSG60ovyogrQ9jU3VotqMVeUOhrs6iSVBanOnOVOT424PvRbzFSdlWra4p30qNk+8CTER10Jx61ufU+hkVaTnhqUn0zpv0ouxMrrmIb5zVvkrpZWvBvDuNNb42cV2revoApjvyaXevpRMRvRiKD3vTNeVfvI5+yKVOU5VYTUVdrRZtd9wLsF+Trr1Sv8A0mMJwq399zsr+fd6LFIy5mq1J+51HeL6E+ryl1SjebqU5unNqza3p96ApzVbpxMrdkUX0qUKd2k3J8ZN3b8pHiNUpUrSkoydnZ2fC/1EVHEzjRTlDU9Kk/HW5Pv6O0DMIpUI6nKnKVOT4uPB+TgRPGxUVJwST4S1rT5+vsL1iY6L6XrvbQmr8L93ACvNVv0qXkgi6nRhCWrfKb/Ok7shjjNSbjCMkldtVItRXaHjI6VJRVuF5SSV+rtAmlSepyhVnDU7tJLe/KitKnocnqcpS4t2+oh9lpaXOm4qXvfGTb7kuPR5wsWtTTgt17pTTatx3ATVKUZtSu4yjwkuKLHRm008RUae5pxjv9BY8XHXGMIqWp2j46Tl3ENV4qclUouWiUbrf3W47usDOhFQgorglYqWUdfNrX74vAAAAAAAAAAAAAAAAAAAAAAAAAAAC2pFTg4ssdGUladepKL4pqO/0F1fVzUtLs7GJSxUqa8dLTJKUHOoldNK/pAzKlOFRWnFPq7CPmai3QxFRLqklL6d5G8Yk5LRZw9+pSSa8nlLoYpTmlosm9Pvle/cBdzM5bqlecl1K0V6CWEYwioxSSXBIx8VVkpunBtWsnp4tvgl9JHJVY2u6kd35lXVv7br6AM1pNWe9EPMOKtRqzpr4O5r08C2eJ5uMVJJySSk3JJJ24X6yyeK1qEI2hKclv1KzV99n0gSqjNzjKpWc9LulpS3klSnCorTje29daMBYmq4t85D3JK/jrxt6+rd3k6xq0qTgkmm1466ON+q3T1ASczVXvcTNLqaTHMSluq1pzXUrRXoFGvrm4OFmuNpJ/QQVJVI1H40m1Utulutp1cPQBmRjGMVGKSS4JCcYzi4zipRfFMxni7ON6cfG96+cjaXcPZkdTTg1be05JSS67cQJOZnHdTr1IrqdpfTvHM1H7/EVGupWj9G8tq4qMHZJNJ2cnJJX6i32Ylpc6emMuD1J37VbigJ1Spqk6SilBq1kWujOSalXqNPirR9RH7LevQqacr2061q8xT2ZG0lp8aLtLxlZdG994GTFJRUVwSsR8zZvm6k6abu1G1r+VEccXBrfHe90dLTUn1JlPZLqqUIJJvxVKM07Oz3egCVUXrjOdWU3HhdLd5kSmFQWMVVa3LTd9O61/PwM0AAAAAAAAAAAAAAAAAAAAAAAAAAABZOnqlqjOUJWs2rb/Oi8xca6kZRVNyblGWlJ23pN+UCeFPTLVKcpytZN23eZFJ0ISlrV4T+FF2v39ZAsalFuUE9KvLTNSat1pFXjYpXcY2aumppq17X7AJOardGJl5YIrGhFSU5ylUkuDl0dy4ClW1qblFR0cfGTsY6nVrTur8E2tehRT4Jtb2wM0sq04VElJb1wadmu5mPRlOFS85TUVdy1STilbofrLni1r06Ffoi5pSfkAv5qt0YmVu2KZdRp83qbk5yk7ttJXMWeKbnKrCS0QaWjVZvjfd19XcxTxM4TipOFTnI3Vqi3O79HBd4GTOjFz1xcqc3xcXx7+hlOar/AKVL+giP2Wt6UFeN9V5qytx39nSX1akp4WVSF4tK+927QLoUIqSnOUqklwcnw7lwRKYcKsqdWUd8ldRipT4uyfT38OwuWMTTfNPdxSmm49/UBNUowqNSd1JcJRdmW81W6MTK3bBFtPFQkm5WirNpqSaduPAteL8fSqV5fB1rV5gJY0E5KVScqrXDVwXkW4uqU9TUlOUJJWurcPL3EPsyPjLR40eK1Ky73wRRYvxXPm04Lc5Komu7v7AJo0mpqcqkptcLpbvMi6pCNSDjNXTMd4yN1aKs1dapqLa7EVnjIRTaXD32p6dL6gJOaqdGIqeaPqLqVNU07Ntt3baS3+Qxq069WKdFOLTWpX7nxXZclwarqL569+3/AH3ATgAAAAAAAAAAAAAAAAAAAAAAAAAAAAIlRlFWhXqRiuCSju9BfGnFU9DWpdN+kw1Wq06jcvGipOMnKaSvutx7yT2YrxioLVP3vjq0u5/UBJzGlWpVZ011LevM+A5qq/fYmduyKRGsYnwgtyu25pK17eUkr1nGnFxai577y4RVrtsC+lThTTUVx4t72+9l5g+6unr90V96fO2nb5NreQlhWdOk9WqTu3FPc7LpfUBJKitTnTnKnJ8XHp8nAtlRqyi4zxEnFqzWhb0WezI6JNpWW68ZJq/b1EUK1TVCi6sW56XqU1u3K68vQBnaYuGhpONrWZFzDirUq06a6tzXpIKGMbpJyjF6UlKSmt/auu5LHFKUktG6V7Wkm93HcBXFTjGpRUmorVdttJJWfrMJTUqcE1FaIQi05re1JN2379yPTaT4pPvGmPwV5gPOjVisRzrs465PTqV96ir28jI+lJONnQUG1JNRe7jbo3W8p6umN76VfuCjFcEl5APPrVY1k/xdNqlKKTqR8ZtcNz4d/YWYatGlNN6ZSUWnFySau27q78/cenoh8GPmMevhIVXd6Wr3tKN0n2cGgMem03RqQ0zjFzk1DeknLo67fUQU4yg4aFQUoO6abkr9i13856dCjGktzu7W4WSXUkSKMU7qKv12A8iEUlTpyVJxT3pyScFff037ek9TDOToQcr3t0qxe4xbu4pvuKgAAAAAAAAAAAAAAAAAAAAAAAAAAAAAFleWmjN9hg0asaN17nVbhFP3SK02Vrb3w7u09Epoh8GPmA8/m1zSqP3kYxptr85cG1515ibA02pNylrcPE1dcuMn593kJ69LnVHxtLi7rcn9JWhT5qLV73d3utvAxsXFxqud0k2pJvgmk1Z9V0+JjQVPnYynzShfenGEm/N9LPVKKEVwilfqQHkqMlSpqUYXUpSTk2m0+p3S7CtOEvEl7moQqKXi33Xkr3bbvwPVcYtWaTXU0VsrWsrdQHlp2p076fFil75Wdpp7n3EuKpxdVty0wkuce7ilZSXlVjO0xtbSvMQ1sMqk5S1pKSs04J7vKBfhoONJavfy8aXezEqVoxrObtuq306le2lq9u8z4qyS6immN76VfuA8uUkqU4+K5SpaVaadneTs9+7iiRVIa7Nwtzs5a9StZppb/Kj0NMfgrzDTG1tKt3AeZhanNRpylFNxUo2ckuLvdN7n1cSk5RvSmpQajOUpRjJPTvTt6H5T1HGLVnFNdxSdOEouLirNW3AefTrU3Rp0dVNrnI2qa1v8a/Djd9xbVi+bd4wd6rnFybV1vVk7rf3vpZk+wlzvOao6vhKHjeq/bYyYwjGCgorSlZIDyVGTtbm1HnFJuLbcXwTb1NeQlwl+eUlGnqbVnBp6lvu7Jvvvu4npKMUrJJLqsFGK3qKXcgKgAAAAAAAAAAAAAAAAAAAAAAAAAAAABiY5rnKcXNU0lJuTdrXi1u6zLDSfFJgeeqsZKjFU4e58FGaerc1ZW7+ktlS5nTFy/FpT0/Cv+b/SS87PRUYp3UUn3EE8NqnKWvdJptaU+HDeBfTpacPzTd209T62+LMGomrxnbU7aotxTula61bmrLyHplJRjL30U+9AeToUqWiHNyq600oxS8XqulZ8N4qpSqTsqKUp6ruTVunetV7+Q9ZJLgluGmOrVpV+uwHmwUoVlOdlJyjNr3t/fXsm+3gX4aMZylSlZqdNxe/enql60Z7Sbu0mUlBOLXC6tdcQMClTc6kdUrub8ZW4aX43naRmYyWnDVN17xaXlLaOH5uop6k7JpJQSt5id7+IHnurDndOqGnnIz1a1aySX0kOpOlTitMXGkotOaV3qi7Lr4M9XRG1tMfMNMfgrzAebWmpSU4JX55S06lqasujvRV1I8zzLcEternNa673txv5OJ6OmN76VfuGmN76VfrsB5WuMK03KULOrqjeS0ys27X8t+8lqSWIdXQ4xlLRHSpJvi97t/vcZdfDxqq25brNWumu1FuHwkKTT8Wyd0oxsr9fW2Bg11qqVHoorWkmnNxtutaXjL0LgUevVOUubblpumrKaS3NJvot1nrOMW7uKb7UHGL4xT70BjZf+LaSSjZbk7pO29J9JlBJJWSsAAAAAAAAAAAAAAAAAAAAAAAAAAAAAADzucjGtzrlBvnJNQc0nZpK/f39ZVQ9kSlpSi3NzvFp6Xay38L33+Qz3GL4xW/sKTgpU3BeKn1AYOGhrrJ6rqfujj8FL83+ld+QycbDVFOzcbOMkuNmrMrQoc3LU5JvTpVopburcTAeTV8f8+jq+G9El5nv8hWcYydWVOMOanCKjqTik9z32ta56miOrVpV+uxWy6kB5NOEpzaiqa1JJ2blKy3/AAmkX0Woxim1ZOm27rdZJO/UelGMY+9il3IaY7/FW/juAwFFSwdB8GkqUmrPjZJrudmTYGnbVJu9vET67cX5XclrUec06ZKLjvXip/SXUKapU9Cd99+FgLwAAAAAAAAAAAAAAAAAAAAAAAAAAAAAAAAAAAAAAAAAAAAAAAAAAAAAAAAAAAAAAAAAAAAAAAAAAAAAAAAAAAAAAAAAAAAAAAAAAAAAAAAAAAAAAAAAAAAAAAAAAAAAAAAAAAAAAAAAAAAAAAAAAAAAAAAAAAAAAAAAAAAAAAAAAAAAAAAAAAAAAAAAAAAAAAAAAAAAAAAAAAAAAAAAAAAAAAAAAAAAAAAAAAAAAAAAAAAAAAAAAAAAAAAAAAAAAAAAAAAAAAAAAAAAAAAAAAAAAAAAAAAAAAAAAAAAAAAAAAAAAAAAAAAAAAAAAAAAAAAAAAAAAAAAAAAAAAAAAAAH4H79M0/R8H/Ql9offpmn6Pg/6EvtH5oAfqJ7X5zBQc8HhoqavC9Ka1d3jby+G1WfTr8xDL6Mqtr6FRm5W43tqPHzDG1qmGy+t7LqTxFOE7z5xucXrdt/FbibVUxePqyWOhBTw1JVZSrRjKp4kLxvJrfdb9/QB6lPabaKpVnSp5XTnUp+/jHD1G496vuKR2n2glCpOOW0pRptqo1QqWg1xT37jFp1q0+djKplfOaqaccRUhUWiMbJ6rtN8b237zLwmJwsFTWHqYL2PCtVeqpW0zpRcn72P527etz6twFstqs+jh1iJZfQVF8Kjoz0vy6rFPvszu9NewcPep7xc1Pxu7xt5jYirT0YrFey6Lw1XCRp06CqJyUrRSWjos02Y8sTUxKy2Usw0YhU6idWpO7i7ysm+KvuXlA9R7TbQquqDyymqrV1B0KmprrtcQ2m2hnVnShllOVSn7+KoVG496vuIefhoo4ac8Er0KkJU6WLsraote6O9pNp7m7bu0vr16c8RR9j4rBzjQjCM6FbEWi2r2kp3Wq17eTgBG9s81TaeHwaa3NOEvtH7XLa88Tl2GxFRRU6tGE5KPBNpPcfLc0lCeZYmdOoqkZVZNTSte74n07Iv/4TAf8Atqf+VAZgAAAAAAAAAAAAAAAAAAAAAAAAAAAAAAAAAAAAAAAAAAAAAAAAAAAAAAAAAAAAAAAAAAAAAAAAAAAAAAAAAAAAAAAAAAAAAAAAAAAAAAAAAAAAAAAAAAAAAAAAAAAAAAAAAAAAAAAAAAAAAAAAAAAAAAAAAA/NfeXlf6RjP6cfsj7y8r/SMZ/Tj9k/SgD8195eV/pGM/px+yPvLyv9Ixn9OP2T9KAPzX3l5X+kYz+nH7I+8vK/0jGf04/ZP0oA/NfeXlf6RjP6cfsj7y8r/SMZ/Tj9k/SgD8195eV/pGM/px+yPvLyv9Ixn9OP2T9KAPzX3l5X+kYz+nH7J+hwlCGGwtLD03JwpQjCLlxaStvJAAAAAAAAAAAAAAAAAAAAAAAAAAAAAAAAAAAAAAAAAAAAAAAAAAAAAAAAAAAAAAAAAAAAAAAAAAAAAAAAAAAAAAAAAAAAAAAAAAAAAAAAAAAAAAAAAAAAAAAAAAAAAAAAAAAAAAAAAAAAAAAAAAAAAAAAAAAAH//Z;clipPath=inset(26% 28.33% 23% 27.67%);" parent="1" vertex="1">
          <mxGeometry x="337.02" y="243" width="37.96" height="44" as="geometry" />
        </mxCell>
        <mxCell id="PBqsT4uJmQTrFhfudgir-67" value="" style="rounded=0;whiteSpace=wrap;html=1;" parent="1" vertex="1">
          <mxGeometry x="320" y="400" width="280" height="70" as="geometry" />
        </mxCell>
        <mxCell id="PBqsT4uJmQTrFhfudgir-69" value="&lt;span style=&quot;font-size: 21px;&quot;&gt;&lt;font color=&quot;#707070&quot;&gt;&lt;span style=&quot;background-color: rgb(189, 255, 168);&quot;&gt;unit converter&lt;/span&gt;:&lt;span style=&quot;background-color: rgb(255, 255, 201);&quot;&gt;distance&lt;/span&gt;&lt;/font&gt;&lt;/span&gt;" style="rounded=0;whiteSpace=wrap;html=1;strokeColor=none;" parent="1" vertex="1">
          <mxGeometry x="383.98" y="434.5" width="215.02" height="25" as="geometry" />
        </mxCell>
        <mxCell id="PBqsT4uJmQTrFhfudgir-9" value="" style="rounded=1;whiteSpace=wrap;html=1;" parent="1" vertex="1">
          <mxGeometry x="326" y="405" width="60" height="60" as="geometry" />
        </mxCell>
        <mxCell id="PBqsT4uJmQTrFhfudgir-26" value="&lt;font style=&quot;font-size: 20px;&quot;&gt;km&lt;/font&gt;" style="rounded=0;whiteSpace=wrap;html=1;strokeColor=none;" parent="1" vertex="1">
          <mxGeometry x="341" y="415" width="10" height="10" as="geometry" />
        </mxCell>
        <mxCell id="PBqsT4uJmQTrFhfudgir-27" value="&lt;font style=&quot;font-size: 20px;&quot;&gt;mil&lt;/font&gt;" style="rounded=0;whiteSpace=wrap;html=1;strokeColor=none;" parent="1" vertex="1">
          <mxGeometry x="364" y="442" width="6.98" height="10" as="geometry" />
        </mxCell>
        <mxCell id="PBqsT4uJmQTrFhfudgir-30" value="" style="endArrow=none;html=1;rounded=0;exitX=0.041;exitY=0.951;exitDx=0;exitDy=0;exitPerimeter=0;entryX=0.967;entryY=0.047;entryDx=0;entryDy=0;entryPerimeter=0;" parent="1" source="PBqsT4uJmQTrFhfudgir-9" target="PBqsT4uJmQTrFhfudgir-9" edge="1">
          <mxGeometry width="50" height="50" relative="1" as="geometry">
            <mxPoint x="361" y="485" as="sourcePoint" />
            <mxPoint x="411" y="435" as="targetPoint" />
          </mxGeometry>
        </mxCell>
        <mxCell id="PBqsT4uJmQTrFhfudgir-73" value="&lt;span style=&quot;font-size: 21px;&quot;&gt;&lt;span style=&quot;background-color: rgb(189, 255, 168);&quot;&gt;단위 변환기:&lt;/span&gt;&amp;nbsp;&lt;span style=&quot;background-color: rgb(255, 255, 201);&quot;&gt;거리&lt;/span&gt;&lt;/span&gt;" style="rounded=0;whiteSpace=wrap;html=1;strokeColor=none;" parent="1" vertex="1">
          <mxGeometry x="390" y="409.5" width="196" height="25" as="geometry" />
        </mxCell>
        <mxCell id="PBqsT4uJmQTrFhfudgir-74" value="" style="rounded=0;whiteSpace=wrap;html=1;" parent="1" vertex="1">
          <mxGeometry x="320" y="300" width="280" height="70" as="geometry" />
        </mxCell>
        <mxCell id="PBqsT4uJmQTrFhfudgir-75" value="&lt;span style=&quot;font-size: 21px;&quot;&gt;&lt;span style=&quot;background-color: rgb(189, 255, 168);&quot;&gt;단위 변환기:&lt;/span&gt;&amp;nbsp;&lt;span style=&quot;background-color: rgb(255, 222, 255);&quot;&gt;마트&lt;/span&gt;&lt;/span&gt;" style="rounded=0;whiteSpace=wrap;html=1;strokeColor=none;" parent="1" vertex="1">
          <mxGeometry x="390" y="310" width="196" height="25" as="geometry" />
        </mxCell>
        <mxCell id="PBqsT4uJmQTrFhfudgir-76" value="&lt;span style=&quot;font-size: 21px;&quot;&gt;&lt;font color=&quot;#707070&quot;&gt;&lt;span style=&quot;background-color: rgb(189, 255, 168);&quot;&gt;unit converter&lt;/span&gt;:&lt;span style=&quot;background-color: rgb(255, 222, 255);&quot;&gt;market&lt;/span&gt;&lt;/font&gt;&lt;/span&gt;" style="rounded=0;whiteSpace=wrap;html=1;strokeColor=none;" parent="1" vertex="1">
          <mxGeometry x="368.98" y="336" width="210" height="25" as="geometry" />
        </mxCell>
        <mxCell id="PBqsT4uJmQTrFhfudgir-77" value="" style="rounded=1;whiteSpace=wrap;html=1;" parent="1" vertex="1">
          <mxGeometry x="326" y="305" width="60" height="60" as="geometry" />
        </mxCell>
        <mxCell id="PBqsT4uJmQTrFhfudgir-80" value="" style="shape=image;verticalLabelPosition=bottom;labelBackgroundColor=default;verticalAlign=top;aspect=fixed;imageAspect=0;image=data:image/jpeg,/9j/4AAQSkZJRgABAQEBLAEsAAD/4QDnRXhpZgAASUkqAAgAAAABAA4BAgDFAAAAGgAAAAAAAABTaG9wcGluZyBDYXJ0IGljb24gVmVjdG9yIElsbHVzdHJhdGlvbi4gU2hvcHBpbmcgQ2FydCB2ZWN0b3IgaWNvbiBkZXNpZ24gZm9yIGUtY29tbWVyY2UsIG9ubGluZSBzdG9yZSBhbmQgbWFya2V0cGxhY2UuIFNob3BwaW5nIENhcnQgaWNvbiB2ZWN0b3IgZm9yIHdlYnNpdGUsIG1vYmlsZSwgbG9nbywgc3ltYm9sLCBidXR0b24sIHNpZ24sIGFwcP/hBhBodHRwOi8vbnMuYWRvYmUuY29tL3hhcC8xLjAvADw/eHBhY2tldCBiZWdpbj0i77u/IiBpZD0iVzVNME1wQ2VoaUh6cmVTek5UY3prYzlkIj8+Cjx4OnhtcG1ldGEgeG1sbnM6eD0iYWRvYmU6bnM6bWV0YS8iPgoJPHJkZjpSREYgeG1sbnM6cmRmPSJodHRwOi8vd3d3LnczLm9yZy8xOTk5LzAyLzIyLXJkZi1zeW50YXgtbnMjIj4KCQk8cmRmOkRlc2NyaXB0aW9uIHJkZjphYm91dD0iIiB4bWxuczpwaG90b3Nob3A9Imh0dHA6Ly9ucy5hZG9iZS5jb20vcGhvdG9zaG9wLzEuMC8iIHhtbG5zOklwdGM0eG1wQ29yZT0iaHR0cDovL2lwdGMub3JnL3N0ZC9JcHRjNHhtcENvcmUvMS4wL3htbG5zLyIgICB4bWxuczpHZXR0eUltYWdlc0dJRlQ9Imh0dHA6Ly94bXAuZ2V0dHlpbWFnZXMuY29tL2dpZnQvMS4wLyIgeG1sbnM6ZGM9Imh0dHA6Ly9wdXJsLm9yZy9kYy9lbGVtZW50cy8xLjEvIiB4bWxuczpwbHVzPSJodHRwOi8vbnMudXNlcGx1cy5vcmcvbGRmL3htcC8xLjAvIiAgeG1sbnM6aXB0Y0V4dD0iaHR0cDovL2lwdGMub3JnL3N0ZC9JcHRjNHhtcEV4dC8yMDA4LTAyLTI5LyIgeG1sbnM6eG1wUmlnaHRzPSJodHRwOi8vbnMuYWRvYmUuY29tL3hhcC8xLjAvcmlnaHRzLyIgcGhvdG9zaG9wOkNyZWRpdD0iR2V0dHkgSW1hZ2VzL2lTdG9ja3Bob3RvIiBHZXR0eUltYWdlc0dJRlQ6QXNzZXRJRD0iMTMyMzQzMzkzNSIgeG1wUmlnaHRzOldlYlN0YXRlbWVudD0iaHR0cHM6Ly93d3cuaXN0b2NrcGhvdG8uY29tL2xlZ2FsL2xpY2Vuc2UtYWdyZWVtZW50P3V0bV9tZWRpdW09b3JnYW5pYyZhbXA7dXRtX3NvdXJjZT1nb29nbGUmYW1wO3V0bV9jYW1wYWlnbj1pcHRjdXJsIiA+CjxkYzpjcmVhdG9yPjxyZGY6U2VxPjxyZGY6bGk+aHR0cHM6Ly85OWRlc2lnbnMuY29tL3Byb2ZpbGVzL3RoZW1hc3RlcnBsYW5zdHVkaW9zPC9yZGY6bGk+PC9yZGY6U2VxPjwvZGM6Y3JlYXRvcj48ZGM6ZGVzY3JpcHRpb24+PHJkZjpBbHQ+PHJkZjpsaSB4bWw6bGFuZz0ieC1kZWZhdWx0Ij5TaG9wcGluZyBDYXJ0IGljb24gVmVjdG9yIElsbHVzdHJhdGlvbi4gU2hvcHBpbmcgQ2FydCB2ZWN0b3IgaWNvbiBkZXNpZ24gZm9yIGUtY29tbWVyY2UsIG9ubGluZSBzdG9yZSBhbmQgbWFya2V0cGxhY2UuIFNob3BwaW5nIENhcnQgaWNvbiB2ZWN0b3IgZm9yIHdlYnNpdGUsIG1vYmlsZSwgbG9nbywgc3ltYm9sLCBidXR0b24sIHNpZ24sIGFwcDwvcmRmOmxpPjwvcmRmOkFsdD48L2RjOmRlc2NyaXB0aW9uPgo8cGx1czpMaWNlbnNvcj48cmRmOlNlcT48cmRmOmxpIHJkZjpwYXJzZVR5cGU9J1Jlc291cmNlJz48cGx1czpMaWNlbnNvclVSTD5odHRwczovL3d3dy5pc3RvY2twaG90by5jb20vcGhvdG8vbGljZW5zZS1nbTEzMjM0MzM5MzUtP3V0bV9tZWRpdW09b3JnYW5pYyZhbXA7dXRtX3NvdXJjZT1nb29nbGUmYW1wO3V0bV9jYW1wYWlnbj1pcHRjdXJsPC9wbHVzOkxpY2Vuc29yVVJMPjwvcmRmOmxpPjwvcmRmOlNlcT48L3BsdXM6TGljZW5zb3I+CgkJPC9yZGY6RGVzY3JpcHRpb24+Cgk8L3JkZjpSREY+CjwveDp4bXBtZXRhPgo8P3hwYWNrZXQgZW5kPSJ3Ij8+Cv/tAShQaG90b3Nob3AgMy4wADhCSU0EBAAAAAABDBwCUAAgaHR0cHM6Ly85OWRlc2lnbnMuY29tL3Byb2ZpbGVzL3QcAngAxVNob3BwaW5nIENhcnQgaWNvbiBWZWN0b3IgSWxsdXN0cmF0aW9uLiBTaG9wcGluZyBDYXJ0IHZlY3RvciBpY29uIGRlc2lnbiBmb3IgZS1jb21tZXJjZSwgb25saW5lIHN0b3JlIGFuZCBtYXJrZXRwbGFjZS4gU2hvcHBpbmcgQ2FydCBpY29uIHZlY3RvciBmb3Igd2Vic2l0ZSwgbW9iaWxlLCBsb2dvLCBzeW1ib2wsIGJ1dHRvbiwgc2lnbiwgYXBwHAJuABhHZXR0eSBJbWFnZXMvaVN0b2NrcGhvdG//2wBDAAUDBAQEAwUEBAQFBQUGBwwIBwcHBw8LCwkMEQ8SEhEPERETFhwXExQaFRERGCEYGh0dHx8fExciJCIeJBweHx7/2wBDAQUFBQcGBw4ICA4eFBEUHh4eHh4eHh4eHh4eHh4eHh4eHh4eHh4eHh4eHh4eHh4eHh4eHh4eHh4eHh4eHh4eHh7/wAARCAQABAADASIAAhEBAxEB/8QAHQABAAICAwEBAAAAAAAAAAAAAAIDAQQGCAkFB//EAFUQAAICAQEEBQYHDAgGAgECBwABAgMRBAUSITEGE0FRYQcicYGR0QgUMlKhscEVFxgjMzRCVnKUldIWVVdic4KS4SRTVLLC8AlDovFjkzUlNkR0g//EABQBAQAAAAAAAAAAAAAAAAAAAAD/xAAUEQEAAAAAAAAAAAAAAAAAAAAA/9oADAMBAAIRAxEAPwDuWAAAAAAAAAAAAAAAAAAAAAAAAAAAAAAAAAAAAAAAAAAAAAAAAAAAAAAAAAAAAAAAAAAAAAAAAAAAAAAAAAAAAAAAAAAAAAAAAAAAAAAAAAAAAAAAAAAAAAAAAAAAAAAAAAAAAAAAAAAAAAAAAAAAAAAAAAAAAAAAAAAAAAAAAAAAAAAAAAAAAAAAAAAAAAAAAAAAAAAAAAAAAAAAAAAAAAAAAAAAAAAAAAAAAAAAAAAAAAAAAAAAAAAAAAAAAAAAAAAAAAAAAAAAAAAAAAAAAAAAAAAAAAAAAAAAAAAAAAAAAAAAAAAAAAAAAAAAAAAAAAAAAAAAAAAAAAAAAAAAAAAAAAAAAAAAAAAAAAAAAAAAAAAAAAAAAAAAAAAAAAAAAAAAAAAAAAAAAAAAAAAAAAAAAAAAAAAAAAAAAAAAAAAAAAAAAAAAAAAAAAAAAAAAAAAAAAAAAAAAAAAAAAAAAAAAAAAAAAAAAAAAAAAAAAAAAAAAAAAAAAAAAAAAAAAAAAAAAAAAAAAAAAAAAAAAAAAAAAAAAAAAAAAAAAAAAAAAAAAAAAAAAAAAAAAAAAAAAAAAAAAAAAAAAAAAAAAAAAAAAAAAAAAAAAAAAAAAAAAAAAAAAAAAAAAAAAAAAAAAAAAAAAAAAAAAAAAAAAAAAAAAAAAAAAAAAAAAAAAAAAAAAAAAAAAAKp3T35RrplZuvDaklx59vpM02ObkpQcJR5pvIFgAAAAAAAAAAAAAAAAAAAAAAAAAAAAAAAAI2zjXDelnuSXNsrlbZCO/ZTiHa1LLj6QLgRnOMIOcpJRXHLK1bZN/i6JY+dN7v+/0AXAqdl0edG8v7k8/XglVbCzKi3lc4tYa9QEwAAAAAAAAAAAAAGLJKEJTlyisspldbFNy001FcW96PvAvBiLUoqS5NZMgAAAAAAAAAAAAAAAAAAAAAAAAAAAAAAArna1Z1dcN+WMvjhJeIFgK4Wt2dXZDcljK45TXgLbYwajxlN8oxWWBYCpTvaz1MY+Ep8foTMdfKH5WmUF85ecvoAuBiLUoqUWmnyaMgAAAAAAAAAAAAK7bHCSjGDnJpvCaXD1+kCwFULpOxQsqlW5Zxlp59haAAAAAAAAAAAAAAAAAAAAAAAAAAAAAAAA+CywAKY22Tjv105h2Nyw5egsqsjZDeWV2NPmmBIFPX7zxTXKzHNrgva/sMud6Wepg/BWcfpQFoKoXxclCSlXN8oy7fR2MtAAAAAAAKVpaVxSmn3qcveYbso4zk7Ku2T5x9PegLwQtsjXDffHuS7WQVdlnG6bivmQeMel82BcClaWlclNPvU5e8w+so4uTsr7c/Kj7wJUflL/8T/xRin85v/y/UZo/KX/4n/iitWRrvvlLviklzbxyQGyCmFc5+ddKSb5RjJrd9nNlaipW7tLniL86bnJpeC48WBtAAAAAAAAAAAAAAAAAAAAAAAAAAAAAK9QpbsZxjvOEt7Hev/WQlqIOLVeZzfKOH9PcT1LcaW08PKXtaIX1qumdkZWb0VlZsk/tAxTXvWKMuMaUor9rHP6idlslZ1dde/PGXl4SXpMQfV6mcJcFZ50X3vGGvoRmyufWdbVJKWMOMuUl9gGHZdB5nR5vfCW9j1YQqUp2u6SaXyYLw7wr1F4uhKp974x9vvFnn3wg3LdcG+EmuOV3ekBbmWohXvSUXBy8145Ne8jh16muKnNqSlnelnlgshTCNnWLfcsYy5t8PW/AzZVCxxlLezHk1Jr6gJgosgq1GUHPO9FcZt8G13szKc7ZuFT3Yp4lPGePcgLgU/Fqnxm7Jvvc2Pi8Yr8VOdb/AGm17GBcCqqyW+6rUlNLKa5SXehbZJz6qpJzxlt8ooC0FPxeMvyk7LH4ya+hD4vCP5OdkH3qTf0PgBnWfml37D+olqPyFn7L+oovnP4vfVYlvKttNcmvsL9R+Qs/Zf1AKPyMP2V9RM142ScIVU4c91Zb5RWO33Ep111wc7LLMLm+slx9SAuBTpoz4zlvRi/kxlJt+vJcAAAAAAAAAAAAAAAAAAAAAAAAAAAAoc1TdNzTUJ4aljk8Ywy8pkt/UOEnJRUE1iTXa+4CFlqlJWRTcKk5OWMZ4ckW6evchmXGyXGb8fcVzr8+VKlLdnXLOZN8eC7fSWUWdZWm1iS4SXc+0CELrbFv1UpwfyXKeM+OMMO61RcXRJWfo9sX6xCN1EVCCVta4JZxJLu7mTruhN7qbUlzjJYYGaYdXWo5y+197KqYdbBzlOxPekuEmlwbRmmCtg5zc870lwm1ybXYy2quNUNyCaWW+Lb5vPaBDSybhNNt7s3FN9yLSr4vXmTW+t55eLJLj7SKkqZ2JuW5GMWstt5ee/1AXgpULbfOtlKEeyEXj2v3D4rT82X+uXvAuBS67KvOqk5r5knn2P3lldkZ176fDtz2ASBRF2XrejJ11Pk18qXj4Iy9LS+LU2+9zl7wLiqX53D/AA5fXEw6rK+NM218ybyn6+aMQmrNRVNJpOuXP0xAzb+dUf5vqLii9qOppbaSSllv0CLne97MoVdmHhy8fBAXg1rowjJV19ZKx8l1ssJd748jYrTjBKUt5pcWBkAAAAAAAAAAAAAAAAAAAAAAAAAACNsd+qcM43otEgBRHUQjFKzMJrg44f0d5DEptQknFWyc5Lt3Uksevh9JOitWUwslKzeksvFkl9pCMnFV3SeYxcoSb7Fnn9CAutmqoRSg2292MY9pHf1CSbog+9Kzj9RK6vrFFxluyi8xfPiR62yH5ap4+dDivZzAxmV84pRlCEfOlvLDb7ES1UnGtYbWZxjw8WkYusUqYyrllSlFZT7G0mZenrbWeseGms2S5rj3gV6iHVVOyNlmU1zm2uZskbYRsg4TTcXzw8EHTBLO9Z//ABJe8C0GvG2bqqjFKVsoJvPJeLJfF1JfjbJzf7TivYgMPS1JN15rn86L4/7k6JOylOaW9xjJdmU8Mg9VU1ituyfZGK4/7E6IuulKbW9xlJ9mW8sDX0uZXut8qMpZ8W8fR9Zdc5TtjRGTimt6bXPHcv8A3sKdL5t7sfK/LT9DePof0F1ylC6N8YuSxuzS547H/wC94GPitK4xThL5yk8mY0ylJSunv7vyVjCz3+kx8bo5Rk5S+ak2/YOushiV1e7B9qed30+8CVH5S/8AxP8AxRlU1q+V2Mzaxlvl6DGn/KX/AOJ/4xK3fOGps30nTHHFc48OfoAlKUr7J1QbhGDxN8m/Be8uhGMIqMUlFckiu6tyatrajYlwfY13PwJU2qxPg4yjwlF80wJgAAAAAAAAAAAAAAAAAAAAAAAAAAAAKtX+R/zR/wC5DWfmtn7LGr/I/wCaP/chrPzWz9lgTshGyO7NZRXu31/IkrY90+D9odllkmqd1RjzlJcG+5e8fGYwWL06mu9cPUwJV2xsbg4uM0uMJLjj7SmymuFkISgpVTeFF/ovw8DO+r9RVKrLjDLc8cHwxhd/+xPU8XVFc3Yvo4gQhTVVrY9XBRzXLOO3jEzqoQs1NELIqUfOeH6ic+Grrb7YSS9OU/sI6lqFtVsuEI5Un3ZXP6AI3U00Uztrqgpxi8NLtLfN0+nfPdrjl97wQtnXqKLK6rYSk48MPJPzdRp3z3bI48VkCuGnVkFLUZnKXFrPBeCQlD4vKMq8qtyUZQzlcXjK7hDURrio6j8XNcG2uD8UxKfxiUY1ZcFJSlPHDg84XeBLWebUrVzrkpert+gaNfiFN87PPb9P+2ENZ51SqXOxqPq7foyZ0b/EKHJ1+Y16P9sMCuuC1Kdljbg21CGeGO995PqOradEtzvi+MX6iFc1pk67U4wTe7PHDHc+4kr1Y0tOt/vl+ivWBG6pV6O55cpSg96T5vgbE4qUHF8msM1r7d7TXVzjuWKD4dj4c0+02Lm41Tkuai2gIJVaXTPCahBZfa2Yrg7JK63GecYrlH3sxprZSjGFySs3U+HKS70Yaeme9FZo7V8zxXh9QGwAmmsp5TAAAAAAAAAAAAAAAAAAAAAAAAAAAACpfncv8NfWy0qX53L/AA19bAP87j/hv60ZspUpb8ZOE/nR7fT3kLpxr1ClJ8FW/rQ39QkpyrTi+cF8qPvAz1l1f5StTj86v3f/AKkpRq1FaecrnGS5r0EfjVC4Oe7L5rTT9g0kZKNk3FxU5uSi+aWF7s+sCuqmmxzV1UJWQeJPHPuZPQpR0+6lhKc0l/mZmnjqLpLksR9aX+5nScK5R7VOWf8AU2BTRp6bHbOyuMpdZLi0S6uuOorqhBRik5tJc3yX1iq2umdkLZqDc3JbzxlPuJSlH4xVapJxknDK5Z5r6gM6iUnOFMJOLnluS7Euf1ofFaObg3L5zk8+0aiMlOF0IuThlOK5tPnj2Ix8b0/J2YfzcPPsAzQ5RnOmbct1Jxk+bTzz9hTev+K6jlG5pv1Zz7UkXUKUpzulFx3sKMXzSXf7Sm9/8Ur/ANGnCfrzn2JoDY1E3CtbmN+TUY572Q+K1PjNOyXzpN5/2J6mEp1pwxvxalHPeiHxqlcJydcvmyWGAdE2urldJ1Z5P5TXdnuMtKOqrSSSVcsJemJjrbWnONL3E+T4Sa78CM42amuUXldXL64gTuprtlCU1nceUs8PWYvtanGmtLrJptN8kl2+PoI6my2FtSqSlnO9F9qS7CTVeoqTTeOaa4OL94Eqq41p4y5PjKT5tkyqqySn1VuFPsfZJd69xaAAAAAAAAAAAAAAAAAAAAAAAAAAAAAAVaP81r/ZQ0qzRh/Ol9bGj/Na/wBlFVNkurVVaTm5Sbzyit58WBZ1U6/yE0o/MlxXq7jMbsSULoOuT4J5zFvwfvMdbOt4ui8dk4rK9fcV6i2vUUyqpfWSlwWOUfFvsAlqa4xjK6MVwWZx7JL3kLtPRCFdldUYvrIYaX95GxfJQpnJ8Uov1lVsd3SVqX6Dg36mgM69Z0s0+Twn7UZWk0yeeoh7DOsi5aaaim3weF24eRDU0TaUboZfZnj7AMaRJwlZjjOT9ieEvoIxj8YnOU3Lq4ycYxTxnHNv1ktJ5sZVdsJP2N5X1kYy+LznGal1cpOUZJZSzzT9YEvjVL5OTfcoP3GGrL+EouurtT+VLw8EWW2qDS3ZSb5KKM1zVkd5ZXHHEDFtcbIbr4dqa7GQVtlfC6Da+fBZT9XNFwAp+NU/Ok/BQfuMN2Xeaoyqr7W/lP0dxeAKISjTOxSjPEpZjiDfDCXZ6DNHnW2zw92WMZTXZ4lwAoSlp5YinKl9iWXD/YhdOEmrK+sjZHk+qlhrufDkbRRZq6a7HCTeV3LPd70BdBuUE2sNrijJiElOKlHkZAAAAAAAAAAAAAAAAAAAAAAAAAAACvUpypaSzxT9jRXfZGymdcFZvSWFmuS+wvnJQi5PkiNVkbM4TTTw0+aAhuW1Nurz4fMb4r0P7B8ZrXy42QfdKD+tcC4AU/GYS4VxnY/CLS9rM1Vy33ba05tYSXKK7iVtka0t7OXySWWyD1G7jeptWf7ufq5ASvrc4pxeJxeYvxI/GFFYuhOt+hte1FsWpRUlyayjFk1CO9LPNLgBRK2Ft1XVZk4y4+a+WH/sTcJ1Tc6lvRbzKGcce9e4z8Yr8zi/OWV7cFoFPxmpcJb8H3ODHxiMvyUJ2Pwi0vay4peojn5M93ON7HDIGaq5b7ttac2sJLlFdyFlc1Prasb2MSi+UkWgCn4zCP5SNlb7nFv6VwHxmt8IRsm+5Qf1vgXADWtqtsqslPG84NRgnwWV9LJW3QlXOEVZlxaX4uXuLwBU6lOiEZZUopYa5pmI3Sgt26Mt5dsYNp+PAuMWSUIOcuSWWBr0tRu3alPq5fouDW6/DK5eBslFerpnJRTec45eOPrLwAAAAAAAAAAAAAAAAAAAAAAAAAAAFM5dXqHOSluuCSxFvtfcXFdt0a3hqTwsvC5ICuUVfcmt+KUXx3XFp5XeSU7q+FkHNfPgvrXuLk8rKAFPxqntlJeDg/cHZZZ5tMJRT/TksY9C7S4qlfHfcYRnNrnurgvXyAnVCNcFCOeHa+b8SucZ1WSsrjvxl8qK5570ZhfGU9xwnF/3o4LQKfjVK4Nyi+5wfuI0xjark0+rlLMeDXYvtLJXQjaq3neePp//AEZmq2Fjajnh/wC/YBBTtq822Mpx7JxWfavcPjVHzpf6H7i4jZNVx3pZ9QFbsss82mDin+nJY9iJ11xhXuJZXbntMV2qcnHdlFpZxJFgFEeso81RdlS5Y+VHw8UZ+NU9spJ9zg/cXACl3Ts4U1y4/pzWEvVzZHd6myE25yW7JSlhtttru9BsACjeVuorlFSxHOcxa+szZCUJu2lZb+VD53+5cANe2ymyG7KNq7U1XLKfeuBPTSnKvz+LTxnDWfHDF99dLSnnjy9uPtRmm6Fybg3w71gCwAAAAAAAAAAAAAAAAAAAAAAAAAAAABr0WRrphXNWb0Vh4rk/sMVVWRgp1y3ZNtuMuTWX7C2u6E5qKUllZWVzLAKev3V+NrnB+C3l7UPjNT4R35PuUGXGJyjCLlJpJc2wKVGd0lKyO5BPKh2t979xdOMZwcJLKawyp6jzd7qbnHv3fs5/QWVzjZHMcrDw00BVGydS3boyklynFZz6Uu0hqL6rKJwg5OUovdW4+fZ2G0+CyUrUVuG8s80sY4vPIDM4SbjbW1GxLinya7mY+MKK/GwnW/2W17UWwkpwU4vKayjIFN8VvUZ4tT5+pmkopU1pRXGqDjxaw20ux8jevrnOUJwlFODylJPGfUzXWjmo7qnBrCXHe4JPKS4gVqEnb1Sa3lKSfPd4JPOM8+K7THXTUNzju9WrMJvuXm554yy5aSzOesinlveSe9l48fBBaOWU3KCcY7iSTaa7mm+IFV1fUp76hJ9XKUd3eSylnis8UKFO9xi5Jvdb8/LSWWkks+BbHSWJSWasSi4vKk8ru4vh6jWurtqlupwaTeFNuPPtUs/QBOKlv0wg9yUpSUpbzfJ9mX6foKqrlvRlKVNcW/lq5Zj3PO9xNnS1SshHf3VuRwpQWFnOeGe7C49pKOjlvc4Jd8U+HoTeEBqxsna65SVcpt+fByw3x4Y48sdxu16em2qE55m93GeWeXuK/iclKO662ovMc72eeeOHxNuqCrrUE28dr7QMwioRUY8kZAAAAAAAAAAAAAAAAAAAAAAAAAAAACNyTqmmsrdZ8/T09as1qCarhvOeXl7q5ceHA+hbFzrlBPGUastJZLGXVwSiklJcO7g+PrA13vt8t5TrUq8ttxeOWc8eTx6i3RrrZwnF5T8/eecuOfN7cccP1E76+qpSyt6Uk3LHCOMckvqLdHxVk8LMpviu7s+gCnUv8fJNvG9GL8ItN/S8IqTg7IwrqqqlLzVhyi34PzcG7fSrOKaUsYeVlNdzRRDS2ReVOEGu1Jt+ji3hegDXsudkISSgouTjGMppJJcOTay8kYWtzpW9W8WJSgp7yXnLD4PgbT0eIJQlHnl5yuPemnlEo6RqC86O8mmsLgsPPpYGpGP4v5Nf42MXyfm+clhcfX6TNylU9xY3k93PHMm/k548nxT+w2Ho5biSlDljGHhcU+HHPNGNVKUbJYeJKtxTect8MPl2cQLNHDjKyLxBvEUs8UuGeZCyEZahxwlm7njt6t8TaqSjXGMVhJJJdxrT01kpPFkUnLe3uO8njHfjkBrPO47FGPmV70lmXHi+XHhy5k1Ce82pZW/KCk295NJ8c5xzXLBY9HNxacoJbu7hb2Gu58fFkvi1qlvqde9lyxh7uXzfPxAqrc9VKDbXnJvzstJJ45Z4srbcJ1xg92bm4yllvtS4ZfLiXrROMFGMo8HlJ54ehp5MW6Wzq1xg9xNx3E019PgBBQ3qoXtLclJLGZb2G8c88/AhOUowm8w3VbuRi57qXPjxfHguWe8jDrVem3S0pbza3sv/ACZ4P1eJt/FZSqTe6pvjJPlnLfZxTWeYGpG9xW6pwWZpSjCxN7na8JvBZpfOtxLq91yxvQfBrD4Ne8ujo3hNyipJ7ySy1nxy8szRpHCe9JwSym93PHGcc28LjyAthpaYT3oxec55+OS4AAAAAAAAAAAAAAAAAAAAAAAAAAAABqbQUN6tzi2sTzjnjdZtlN9U52RnCUU4p43k3jxA1epmoV4lGDsWE4N5i8ZXN8eRSpSkq8JRlN7uFnDfB8ePLd4+pm1DRyTw5QSxjzU848MvC9RDUP8AGWQilHMVDGHlrPHs4cG8ekC7Tpx007ILCkm4Ljy7OfaaycP0oRsUVHcUk8YazvYSfN54n0kklhcjVt0reNxxwuSllNehp5x4Aa0btyLnXGGFLcilJ4jJ+DSIWWONs89U1GeHJ2pS8Xne4Pwwba0bcVCc4uvOXCMcLP1mHpJuzO9B8c5afHxazhv1Aa0W7ZTr3oT35xStXF487DTT8PrJRg7FvRhBOuvO7FNb3nS4c/D2mzLSect2Sxwy5ZzlZ4rHpZmuiVM3ZlSSi0kk8tZb+0DUT3pzhFKSXyVxx53ycce7Lfo7DdtrUdFZCT3vMfP0FGl421x4NQ3nwzwbfDmuxcDb1FbtqlBPGeYGpKK6yTwuNsYvxzGPcU+dGqMuW/BSjiTzzSw3njzXcbPxa3rOs3697KeMPdyuGcZ7iK0ckkt6DW7u4alwWU8Lj4ICDlZRLcTinKfV5SeOKTTw34mHDNPXvG5vYazLfxnHPPPw9RbLRzl5spxa3t7e472cY7w9JZ1m8pV5znLT59+M4z44AojKTsnWnhdZuRjl45vi+OeSM3w6mNuUnKKi04tpYbxyzwY1NFte9JOvz8uWU91vOe/K78jSRsm3GSralJN7rcsJd8m3ns4AV3ynCycW6pyillysWW8Z+ct0zO5z30ra5xWOrlKWYtdvFcMrlxNmejbl5rg44x52eXc8PD9Yno5cd2UXvYbcsp5XdhrADTVQtrcbI4aae7nOOC7fVk2aaoVJqCwn4kdNT1MMZWcJJLkklhItAAAAAAAAAAAAAAAAAAAAAAAAAAAAAAPnOuM9Q4KKUnbLDecJYjngufYRtUq3xw4wnuzis4axvZXHg8Z4GxLS2NNb1eN7e4p5b7854eolCnqYOckpNJ4jFPHHm+1tgatacrJQ4SlGSgs5wnnPDjy3ePrRs6vejGtR85xUnFNZzJLh7yOiWbIZakoV4TSaw+3mu7HsNq2tWRw2008prmmB86yVMIZ6uDWN7rZOW8/HKTM2WzjG2t7qcIqcs2YUm+C4vH2F3xSe/n8VzzyftxnGSXxRvelKxTsaw3KPCS8UBpdY0pR36oNpYUZrzuPFYTZZT506rdytY6uO6k8cUuPPs7DZq0jTzNx9WW36237DEdJKKWJRTju44PjjlniBqxg69PCeI+fDejjK3ccWks92cegu0kXbOMk8YW85LOXn5Pb3cX6UTsh1NNVbaSjNPPHCSfJc3yLdFnqpSa4yk2/s+jAF4AAAAAAAAAAAAAAAAAAAAAAAAAAAAAAAAAAAAAAAAAAAAAAAAAAAAAAAAAAAAAAAAAAAAAAAAAAAAAAAAAAAAAAAAAAAAAAAAAAAAAAAAAAAAAAAAAAAAAAAAAAAAAAAAAAAAAAAAAAAAAAAAAAAAAAAAAAAAAAAAAAAAAAAAAAAAAAAAAAAAAAAAAAAAAAAAAAAAAAAAAAAAAAAAAAAAAAAAAAAAAAAAAAAAAAAAAAAAAAAAAAAAAAAAAAAAAAAAAAAAAAAAAAAAAAAAAAAAAAAAAAAAAAAAAAAAAAAAAAAAAAAAAAAAAAAAAAAAAAAAAAAAAAAAAAAAAAAAAAAAAAAAAAAAAAAAAAAAAAAAAAAAAAAAAAAAAAAAAAAAAAAAAAAAAAAAAAAAAAAAAAAAAAAAAAAAAAAAAAAAAAAAAAAAAAAAAAAAAAAAAAAAAAAAAAAAAAAAAAAAAAAAAAAAAAAAAAAAAAAAAAAAAAAAAAAAAAAAAAAAAAAAAAAAAAAAAAAAAAAAAAAAAAAAAAAAAAAAAAAAAAAAAAAAAAAAAAAAAAAAAAAAAAAAAAAAAAAAAAAAAAAAAAAAAAAAAAAAAAAAAAAAAAAAAAAAAAAAAAAAAAAAAAAAAAAAAAAAAAAAAAAAAAAAAAAAAAAAAAAAAAAAAAAAAAAAAAAAAAAAAAAAAAAAAAAAAAAAAAAAAAAAAAAAAAAAAAAAAAAAAAAAAAAAAAAAAAAAAAAAAAAAAAAAAAAAAAAAAAAAAAAAAAAAAAAAAAAAAAAAAAAAAAAAAAAAAAAAAAAAAAAAAAAAAAAAAAAAAAAAAAAAAAAAAAAAAAAAAAAAAAAAAAAAAAAAAAAAAAAAAAAAAAAAAAAAAAAAAAAAAAAAAAAAAAAAAAAAAAAAAAAAAAAAAAAAAAAAAAAAAAAAAAAAAAAAAAAAAAAAAAAAAAAAAAAAAAAAAAAAAAAAAAAAAAAAAAAAAAAAAAAAAAAAAAAAAAAAAAAAAAAAAAAAAAAAAAAAAAAAAAAAAAAAAAAAAAAAAAAAAAAAAAAAAAAAAAAAAAAAAAAAAAAAAAAAAAAAAAAAAAAAAAAAAAAAAAAAAAAAAAAAAAAAAAAAAAAAAAAAAAAAAAAAAAAAAAAAAAAAAAAAAAAAAAAAAAAAAAAAAAAAAAAAAAAAAAAAAAAAAAAAAAAAAAAAAAAAAAAAAAAAAAAAAAAAAAAAAAAAAAAAAAAAAAAAAAAHGfKP022B0B6NXbe6Q6rqtPXwrrjxsun2Qgu1gcmB0m6U/C96XanXS/o7sPZuz9Gn5i1ObrGvF8EfI/Cz8p//J2H+5v+cDvgDof+Fn5T/wDk7D/c3/OPws/Kf/ydh/ub/nA74A6H/hZ+U/8A5Ow/3N/zj8LPyn/8nYf7m/5wO+AOh/4WflP/AOTsP9zf859fYvwwemOnkvur0a2Rra+3qpzpl9v1Ad2Qdd+hfwsege1p16fb2h2hsC6XDfni6pf5o8foP3Po50g2L0i2dHaGwtq6TaWkl8m3TXKa9eOQH1QAAAAAAAAAAAAAAAAAAAAAAAAAAAAAAAAAAAAAAAAAAAAAAAAAAAAAAAAAAAAAAAAAAAAAAAAAAAAAAAAAAAAAAAAAAAAAAAAAAAAAAAAAAAAAAAAAAAAAAAAAAAAAAACFtka8Zy2+SSy2TKZyjDVKU+ClHdjJ8k88vXw9gEo2pz3JRlCT5KS5k5zjCLlOSil2sq1EoynCuOHPeUuH6KXN/Z6zFEetl18+PF7ifYu/0sCSu3vkU2yXfjH14MPUQi/xkZ1+Mo8PauBmV633GFc7GuD3UsL1sx8ZgvykZ1PGcSXP2cALk01lPKBTpYOMHJxUN55UF+ig+sstnGNu4otLhFPPDIFwKqXNWTrnLe3UnnGOefcWgAAAAAAAACFtka0nJN54JJZbJlN/5fT/ALb/AO1gZhqISkouNkcvC3oNFpRqvlUf4q+pl4A6JfDn6T6zanlXr6PO1/Etj6WChX2dZYt+cvZuL1He06QfDt6HazZ3lB0vTCuly0G1aIVTsS4QvrWMP0xxj0MDrgAAAAAAAAAAB9rof0s6RdEdqx2n0c2tqtnamHbVPhPwa5Nek+KAO73kF+EzsvpRZRsHpv1GydsTxXTqo8NPqH4/Mf0eg7HxaaynlM8kjtb8E/y93U6nSdA+mmsnZTZLqtna+6eZVvsqsb7O5+oDuCAAAAAAAAAAAAAqdy3nGEJz3ebiuCJ12RsjvRb7mmsNFWklFVdW2ozh8pP6/XzIOxuVk6f03GEX2N8cv2fUBdZdXB7rbcue7FZfsRjrZYz1FuPV7zMY16eptvCXGUnzfiyPXy5rT3Nd+F9WcgSrvrnLdy4y+bJYf0lhrXWQvgq60pTk+1cYePgXWycKZSXFxi2BMFG5du73XvlnG6i2mTnVCb5yimBIAAAAAAAAAAVTvjGTju2Sa4Pdg3glVZGxPdUk1zTWGiGm/Kaj/F/8UYo/OdR+1H/tQF4AAAAAAAAAAAAAAAAAAAAAAAAAAAAAAAMTlGEXKTwlzZX16STnXZCL/SkuHr7vWNVwjCbWYxmnJeHf6ufqFttSpcm1OMlhJPO94IC3syVfGISeK4zs8Yrh7eRXCDscabOMa4rfXzpY5egtttjW1FRlKTXCMVxwBh37vy6bY/5c/VknXOFkd6ElJd6K/jCj+UqsrXzpJNfQ3gxVizUStikopbuUvlv3IC8FVzm7IVwlu7ybzjPLHvMLrK7YRlbvqTa4xSxwyBcAAAAAAAAAAMTkoRcpPCSyyl6mC513JLm3W8Gdd+Z3fsMlq/zW39iX1AWJ5WVyYI1fkofsokAAAAAAAAAAAAAAAAAAAAAAAAAAAAAACq/elOFSeFJNt4T5Y7/SWlU/zqr9mX2AQhB0WQipJqbaa3Uuxvs9BPSP8RGD4OHmNegXflaP23/2sWVNz6yuW5PGHwyn6UBCO/Q5Lcc63JyzHmsvPFdvqLa7K7V5slLHNdqIddKH5atx/vR86PvRKdddyU0+OPNnF8faBH8ZZbOMbHBRaXBJ54ZJU1utzbm5uTy20u7BVXBysnCc5xsWG3B4Ul2Mnp1KM7YOcpqMljefLggMzqk7XZC2UMpJpJPln3kU7IaiFcrHNTTfFJYxj3iUZWama62yKjGOFF47yF1W6opTslOb3E3Lknzx6kBZ1llrapwop4c5cV6l2h0zfF6m7Phu+4lbJU0+bHOMRjFcOPJIiqrWsz1E1L+6kkv/AHxAPr6uOeuh3YxJfY/oLa5xnBTi8p8iumc1OVVrTlFZUl+kveU3ydNkoQeOu+T4Syk39KYFsrJzk4UpcOEpvkveHTY+MtTbn+6kl9RKThp6MpebFcEub/3IRqtkt6y6UW/0YYSXvAy1fXxjLrY/Nkkpe3kRnONlumlHON981xXmszjUpOClGWeVjXFL0drMTgq7dNFNvz3lt8X5rAzqvlUf4q+pmZWSnY66ccPlzfJeHpM6ml3RglNw3Zb2VzEpV6euMYx8IxXNsCFqnXHelqZdyW6st93I+Z0m6P7L6U9HdRsTpFoq9XotTDFtc/oafZJd59aquTn1t2HPsS5RXcveWgdTulHwO9LbtCdvRvpdPS6WUsqnW6brHHw34tZ9h8j8Dbbf67bO/c5+87kADpv+Bttv9dtnfuc/ePwNtt/rts79zn7zuQAOm/4G22/122d+5z94/A223+u2zv3OfvO5AA6Z3/A42/GH4npnsyb/AL2kmvtOFdMfgw+U/YVNmo0Wi0u3KYcZfEbvxmP2J4b9WT0BAHkxtDQ6zZ+ss0ev0t+l1FbxOq6DhOD8Uyg9LPK75JeiflJ2VOna2jhRtCEGtPtCqOLqn4v9JeDPP7yp9A9ueTvpXfsDbda3l59Goj+T1FfZOP8A7wA4oZTaakpYa7TAA76/BA8qc+nHQ17A2vep7c2NXCDm3x1FHKNni1yfq7z95PMXyI9NL+gPlJ2T0hhOS00LFVq4L9OifCa+31HprRbC6qFtU1OuaUoyXJpgWgAAAAAAAAADW6t3uUpSSxJpLcT5PxMSk4pSk8qm1Jvlwa5/SW6b5E/8SX1ilJzvT4rf/wDFAS1FbsqcU8PKafinn7CHX7nC+Drfzucfb7zChbSsVYnDshJ4a9DJQvhKShJSrm/0ZLGfR2MCVklGqdkcPEW895XKqyytxeoklJYeIrt9Ri2jcjKVKxledX2SX2MjOCellbXfdjcco+d4AbOPN3fDBTCmyEIwWoniKwvNXuLcvq89uCiilyphKV92XFN+d4ASruxTKVjzuzceC4vDwZSvs4yn1S+bFJv28iNNa+MSxlxr5Z+c+Lf1e1krZWSt6mp7uFmUsZx3JeIDqbFxjqbc/wB5Jr6hGycJqFyXHhGa5P3MxKu6C3q7pSa/RnjD+jgTW5qNOsp7s1y7V/uBKycYQcpPCRWuvs456mPdjMvcirTyd1sYzabpXneMstZ+h+0uunN2KmppSay5NZ3V7wMKma4rU258d1r6grLK2lck4t4U4rhnxXYHTalmGonvf3kmn6vcNy22SduIQX6MXnL8X3ANN+U1H+L/AOKI1yjC7Uzm0oprLf7KJab8pqP8X/xRhaaPxmV0pOSbTUexNLmBmPXW+dvOqL+SscfS8/UQbtVqrhdKyX6SwsJeJOyyU5uql+cvlT7I/wC5ZVXGqG7FeLb5t97AkAAAAAAAAAAAAAAAAAAAAAAAAAAAAAhqJOFTceeUva8FE6nTGdymm4pv5EVn6C3V/kf80f8AuQ1f5rb+w/qAVvd1FsH+lia8eCT+r6TFkbIXddXFTzFRlHOHwb5e0nbWrEuLjJPMZLmmQ37q+Fle+vnQ5+te4CVd9c5bmXGXzZLDMWuXWQrhLcym8pd2PeZTp1FePNmu580/sZTKtxthCU57ryoSzxT7vH/YC2FUlarJ2ynhNJNJc8e4zdW7HBqbg4vKaS7sEIxlXqYLrbJKUZZUnnuM6hSlOqCnKClJ53Xz4MCN3W0w3+ucsNLDiu1pE7LXv9XVHenjLy+EfSQsqjCuU52WSjFbzTlw4cSzTwcKk5fLl5034gR6q2Xy9RNP+4kl9o6u+HGF2/4WJcfWiNasvj1jslXCXGMY4zjvbMp2U2RjObnCbwpNLKfuAspsViaw4yjwlF80YttcZKEI79j7M8F4shqcVyhfy3Woy8U/9/tM6RZq61/Ks85v6l7AHVWyXn6iUX3QSS+nI6u6K8y9y8LEnn2YIw6zUeerHXVyju4zLxyS3b635sutj3S4NesCvU2b+kvjKLjOMHlfavAu1f5rb+xL6inUVyjo752S3pyg8vsXgjYth1lU4ZxvRayBW7d2uuEFvWSisR+1+AcLVHMtQ1hccRWBVXDTVNynl48+cu0woy1DUrE41LjGD5y8X7gM6aU5b0nJyh+i2km/9i4AAAAAAAAAAAAAAAAAAAAAAAAAAAABVP8AOqv2ZfYWlNrUdRU5NJbsuL9QGbvytP7b/wC1kfjHOUa5SrTw5L3dqI6ndudcIzXFvOHy81ko3dUlC6KrxwUkvM/29YFsJwnHehJST7UyrT7vxi5V/I4Zxy3uOfsJdTp7PP6uuWf0sJ5Eraqkq4pNrlCC4+zsAS/PIY59W8+1Y+0U/l714p/QhRCScrLMb8uxdi7EYtzVd1yi5RaxPC4rHJ/WAg0tXZHPFwi/pY1PCVM3yjZx9aa+0y40aiKfm2Jcmny9ZBVRVsqcfip18s9ueP1oCeqTdalFOThJSwu3HP6CcJwnBThJOL7UyqNrq8zUPGOVnY/T3Mk6dPY991Vyzxzup5AjW1bqnbHjCEdxPsbzx9mCrXcdTTLPCrzpeCbS+x+wvldCP4utKc1wUI9np7hVViEusxKU/l93o9ADVRlOiSisyTUku/Dzj6CdVkLIb0JJr6iqM3RiFuXBfJs8PH3knVRb57rrnn9LCeQMS1EFKSSlNR+U4rKiYtkpXaaUWmnJ4a/ZZKVlNKVccZXKEFx9hRuOuyqc1GG9Y5NLlHzWBfqrnTGDUHPelu4XMSjXqK4zjLxjJc0yGonGU6FGUZNWJ8H4MzOMqpu2pZi+M4Lt8V4gSpsbk67ElYvZJd6LSmyVF0E+tinzjJPimZ09rnmMsb0ebXJ+KAtAAAAAAAAAAA/JvhP+TqjygeTfVRppi9s7Ni9VoLEvObXy6/RJfTg/WTDWU0+QHkm04Nxaw1waMHNvLxsCPRrywdJtk119XTXtCyyiHdXY9+C9jRwkAekHwX+kUukvkR6Pay6e/fp6XpLXn9Kt7v1YPN87m/8Ax97b67oh0h6OynmWk1sNVBeFkMP6a/pA7QgAAAAAAAAACrTfIn/iS+shGyNbulL/AJmElzb3VwM0ThFTUpxT35cG/ErjGTundWozxPk+1bq5PvAtjelLcuj1Unyy+D9feS1HVdTLrcbmOOTCups/Fzwm+DhNYfs7QqNPB76qrjjjndXACWn3+or6zO/urezzzgpjx0NmOT3930ZeCU7Xatyh5zzsXJejvZbGEY1qCWIpYSAR86lY7Y8CGkalpamn+gvqIVTVKVNr3VHhCT5NdnrJvT0Slv8AVrL48HjIGKeF90O1tS9TWPsMbyq1UnPhG1LDfLK7P/fEhXGyVFVscdbBbrzyl3r6C2NtVua54UnzhNcfZ2gStshVDem/Qu1+gjpYSrojGXCXFtdzbzj6QqtPV+M3K4Y/SwlghOb1HmVZVb+VPvXcveBXs/hddLPC3z4+Ky/9vaW2NVapWTeITio57E03j25JW1tqLrxGcPk93o9AjdXP8XYtyb4OEu30d4E5zhCDnOSjFdrZCF8ZSUZRlByWY7yxn/3uCo08HvqquLXFPdXAhbNaiLqqSmnzn+jH0d7Alpvymo/xf/FGFqF8ZnTOO6k0oy7G2s4MaeUYTuUppfjOGXz81GKowtt1KaUoSa+pATshKubtqWc/Lh87x9JZXONkFKDymVQm6ZKu6WY/oTfb4PxI2SjCbtqnBt/LhvLzvH0gbIMQkpxUlyayZAAAAAAAAAAAAAAAAAAAAAAAAAAACrV/kf8ANH/uQ1f5rb+w/qGr/IP9qP1ojqrIS01ijOLbi8JMCVlzU3CuDskllpPGP9yVV1dnyZcVzi+DXpRVFy0+8pQcoNt78Vl+tfaTxp9RxxXbjt4PAEbN343VufL472Pm4fP14Jar5EO/rI49q+zI/EaePKFeexLDfvMQUrbVZKLjCPyIvm33sDNnDVVeKkvqMXtK2ht4W+1/+LJaiEmozgk5weUu/vXsMRnTfFweH3wkuK9QGdTFz09kFzcWl7DKcbqMrKU4/WiqdUaZVyqTXnpS4t8Hle4zx08n5rlS3ngsuL9wGdJYpVKD4WQW7KPczF7VltdMXlqSnLH6KXElu6fULexXZjhng8Byo063VuwzxUYri/UgIbQjv6fqlznJJe3P1Jk9I86at9u6k/SuZiuM52ddYt3CxCPd4vxMNSonKcYuVcnmSXOL70A0clGtUSeJ1rda712MnZdGElBZlN8ormY/EahZxXZjvWce4fiNPHlCvPcsZ94FepshZobnF8oNNPg16S+6fV1TnjO7FvBqamMrKrrdzcXVuK4edL0l2psremtSnFtweFnwAzVZDU1NShh4xOEuwxCUqZKuxtwfCE39TDqcoQsre7ZGKw+/wfgZVtVkHGzdi+UoSfIC4GvTZuWKpzU4v5Mk8teD95sAAAAAAAAAAAAAAAAAAAAAAAAAAAAI2utR/GuCX94kUavK6qSbTVkVw7m+IFsIVx4wjFZ7UiRoUytrpglObgnuqbit18ccuePEitVdub0nuyUnGUXjCaWfsfsA3JabTyeZU1t/sol+Joh+hXH1Iq007Jze85NJLO8ksPCeOBQp79u+5OLw22llpZwkvZxA3IXVTxuWQlnukTNDfSlvS63cWG5TqaaSecZxyMW6ySlluazFSSilyfLnzfgBt21aeTTsrrbfa0iVcKa241xhF9qSSNGdsrHJWb2FS3FwSWU8ccPk/wDcRd2+vldf1jzyx8mOfo+kD6L48yqen03GUqavFuKNVaixzjFTeJYeWllZz9WHn0GxXvW6Vue9iSzFvg8AWUypaxTKtpdkWiZ8+qy2ShNzk3iuLfDhvJcfaS6+9Jt2PgpPelBbrSfHCXH3+AG8VS02nk8yprb/AGUay1U6m3bvYXOMks8U2sY9DMyuv3Zz3pYi8SlGKcY9/Dm8eoDbhCEFiEIxXgsGZRUliSTXc0ac9RbCyde9lRSzLdXhwS8cpcRK26DlvzsjiG9hxi2+PY1w/wD1A2411xeYwin4IkfOnq7Fu77lFuKklFLl35ff3Enq7WlFKTfV9YnGPGS9D5P3AbdkaI+dZGtZ7WkZr6r/AOvc/wAppxT1tMoOcsYxl8Gm8prh6jY02n6mcpuSe9l8FjmBeAAAAAAAAAAAAA6MfDy2J8Q8q+i2xGGK9qbPg5PvnW9x/RuHXg7q/wDyA7D+NdA9hbfhDels/XTpm+6FsPfWjpUAP3/4Cu3Pub5YbNlTnivauhsglnnOHnr6Ez8AOY+RPbf9HPKz0Z2xv7kKNo1Kx/3Jvcn9DYHp6DCeUmjIAAAAAAAAFbVErN1quU+54yTilFYikl3I0tRvK+ajZJbs4SjFLLballIxbffUnlT83G8mlvJPk12PjwA3pxjNYnFSXc1krWm06eVRWn+yjVeosU5R6yTjHL3klnCSefRxXtL7JWLTxUm4znJRz2rL+vAFkrqa3uythF9zaROMoyWYyUvQzRqkurUoytipcYxrhnC7G+Dy/SZrt3PNSUZyWIp1uKSWW3j1gbzSaw0mvEo6jSuT/FVZXPguBq1ayyckoOcpNNqMorjhcuHJ+nJCycpadSi7OMZuzGOWeOPsA+nDd3VuY3ezHIxOEJrE4xkvFZNNTsjbNRc1W7Gk8L5XHh6O4Vai6xLEm22lFJLDys8fR9oF7q0lLTcKYPsbSRdFppOLTXZg19Y5QnXOMmm1JPx81v6ylTuhDEZyylFpYT3t77cgb5icYzWJRUl3NZNLrr+CzN8/NUVvLHPL5d3tM/G24OKkt5Lect3saWOHe8pAbC02nTyqK8/sotSSWEaUrL4uW9OyG7Bzw4xbkl3NcBC6+zCW9nGcQS5Zxlt9/HgBtyrhJ5lCLfijMYxisRSS8EaS1F2a1GW/KeeDiopYb5+K+whVq5znFQnOTlyUopJ/bH1gfRaUlhpNdzKWtMpbrjUpd2EavxyUlCzNka5t8VFYjxxh+JOekd+LJT3ZSjxWMrjj3AbkcYW7jHZgyRqhuVqOc+JIAAAAAAAAAAAAAAAAAAAAAAAAAAAMSxuvexjtyQhGiXnQjW/FJGb1vUzTzy7DSpldlyhOyblCMpKKjwe6u/m/AD6BCymmzjOqEvTE0nqrcyzJ8Ib8XFLEl6+T58PAsquunZFbzbcmsJLdwub7/ADYhVTVxjXCHilgR1FEnhXVvH95Gvq5OV25w4OMY5WVl5eWvBLgRlJpxlF3WYefPqbXpWFwA3iFsKprNkISS+cjTnqdyuEYSluRxDKXFtLjz5EfjM7Iwy5Ot2KLeEmmmuHc/SvEDchVpq2pQhVFvk0lxLT5km8z33Zu4luYx89fb9BZPUX1x8+WJp4kmlhcM8P/AHsA250UzeZ1Qk+9xMVfFoS3K3VGXdHGSGmnZOct5ycUuO8ksPCeOBR+M6x1Rm2lZLdT8Ippe1gb4NHrrvNkpzcXGMs7sfN3u/v9Q+MXRzKbfDe/RW63Hml29j4+AG3ZTTY8zqhJ+KFdNVfyK4R9CNbr7LZ/it7DTaUcZxnGW36yPX3Lq8S33NtYcVHGHjD8eP0AbxDqqs56uGf2UaqtukoSU5qE5JKbgt18e7ms9hB6uxQbbkoqe6pYWW/qXpA+gRnGtrenGLx2tGlDVz3Vh5UpqtOS+S36OaFVs7pypk7E3lOM0k8cePD1AbVfxfKdfV57MYLTUq0W5ap9ZnDb5cflZ5m2AAAAAAAAAAAAAAAAAAAAAAAAAAAAo1alJV7sZSSmpNRSzw9JeANCMLsKrq7FWnlQaWOecb2eXqFtUYyUZQlb5rlYop8WnvL6c8PE3yuyiqyW9OCb7wMaWO7RHim35zfe3xZr30Si3uxco8cbqTxnmmnzWeJupJJJLCQA+bDTSULFGhrrIuMpNKOPQkSsoui0k7uEVHMHlNLk+awz6AA0HppxrbxY3KMo/K35LOMc2ThC5aiM5QeXLeeEsYaSfb4G4APnzhGVksQlhz3Izw8JS4y+rn4m7apdVJQXHGEYVFKnvqtb3eWAfPjXdFRUa7Nxbm9mKz5uOXHtwHXc69xws3d2UY4is+d38ew+gAPm303Xb2/CalLdw0lhYT8fEnOGoSnWoTUZ5clFLDb54eeGfQb4A+berFbKfVWYn+gsbywly48cYyRjbK/fclZJuO4pOG6strgll5fb6j6VkIWR3ZxTXiYjTXGW8k3JcnJtte0DStoujJKLtwo7q3XlYXLhlYZGWlsSbcbZJrzcy3pJ97y/TwR9IAauirsi96e9wju5lzfFvvfI2gAAAAAAAAAAAAAAD80+E3sP7v8AkP6TaZQ37dPpfjdfpqe/9SZ5uHrJtTSVbQ2bqdn6hb1eppnVNd8ZLD+s8qOkGz7Nkbc12zNQsW6TU2Uz9MG19gGkSqsnVbG2t4lBpp+JEAd9ujfwmvJeuj2z1tPa+qq1q0ta1MPiljxZuLeWcceOT6P4Tnki/rvV/uVnuPPgAeg/4Tnki/rvV/uVnuH4Tnki/rvV/uVnuPPgAeg/4Tnki/rvV/uVnuH4Tnki/rvV/uVnuPPgAeg/4Tnki/rvV/uVnuH4Tnki/rvV/uVnuPPgAd/LfhLeSaVk5/dvWbzlFxa0M/Nxnjy48zK+Er5J5WZs27qpct5/ELFwTykljvOgQA9B9R5f/JjpNNRq9Tr9fVTZPdU5aG3jGLzFNY4ceXekQu+Ex5IrK3H7u6tPKafxGzg1y7Dz/svvsgoWX2ziuUZTbRWB35l8JHyST+VtrVLi24/c+csfstrh6xH4SXkmXVOO2NVDqouMY/FLeKfjjmdBgB34/CR8k+Ev6Q7QfdnSWrHi2ufqJT+En5J9yUIbb1XGM4/mNmMN8Ow6CgD0Bp+Ej5Kr+soo2xrrLLJOVcY7Psct7nwSXHkX6n4Q/ks2XrnTq9p6yiajvKPxKxpuXFtPHFdnqPPiE5QmpwlKMlycXhozbbbbLetsnY0sZlJt/SB3+1Pwl/JJZOH/APXNZuxT5aGzOWmu7xKV8JXyU85bc1e8t3dxoLMebnn6cnQUAd+/wlvJSmpR25qt5729nQ2Y87HLh2YK18JDySqWVtzWOLgotPQ2J8MYa4c+GToQAO/kvhLeSie8rNu6ybdbipLQTSjnw7S/T/CG8nHxWGrq2nr3VJuCsr0E7E8POGlxi1nhnmefhdptXqtLvfFdVfRvc+rscc+wDv5rPhEeS/Q20rUbW1dV3V9YoT0k97i38rC4NrPDsyav4SPkn3Uv6QbRklyT0tyfra5+o6ETnOybnOUpyk8uUnlswB34r+Ej5JoShJbe1sZRxvY0Nnn4fL2d5t6f4TPkkrpjCW3NVlLs0VnuPPwAeg/4Tnki/rvV/uVnuH4Tnki/rvV/uVnuPPgAeg/4Tnki/rvV/uVnuH4Tnki/rvV/uVnuPPgAeg/4Tnki/rvV/uVnuH4Tnki/rvV/uVnuPPgAeg/4Tnki/rvV/uVnuH4Tnki/rvV/uVnuPPgAeg/4Tnki/rvV/uVnuH4Tnki/rvV/uVnuPPgAeg/4Tnki/rvV/uVnuH4Tnki/rvV/uVnuPPgAeg/4Tnki/rvV/uVnuH4Tnki/rvV/uVnuPPgAeg/4Tnki/rvV/uVnuH4Tnki/rvV/uVnuPPgAeg/4Tnki/rvV/uVnuH4Tnki/rvV/uVnuPPgAeg/4Tnki/rvV/uVnuH4Tnki/rvV/uVnuPPgAeg/4Tnki/rvV/uVnuPrdF/L15LOkW0I6DRdKaKL7HiC1cHSpvwc+B5xAD1pse/p26mpby81o1Yxurx1ULYZiovzYvOFjPPg/adYfgPeU/aO1Janyf7b1U9Q9PR1+zbLJZmoR4Trz2pZTXrO1oGjKp11RluvfTiq4ri8Lsfpy8+kt0NcIb+7FxUX1cU1xSXveX6y+yuFixOKkvEVwhXHdhFRQFOppcm5xTeUlJJ4fDk14o1YUS61WfF3KcXlZioL18Xk+kAPnvT2wh5vWJObn5j4pvsaysoQ01jTm+tbWHicm8vPYstI+gAPnyqtlHjCePOSwllZknxWfAnqUpWJzqlZiG9OMU+a4r6eGPE3SuyiqyW9OCb7wGlju0R45b85vvb4s1HC9WOca57++5cUt3iksc/A30kkklhIAfPVdyhuqFm7uxjLMVnze7j2idd0liVdm5mbSSWfOzz4+J9AAfPrq1FMYuKlvJYyop5Wc4ayjFkbYxhNQnF1tybnjzstPnnhy+k+iGk1hrKA+XXbLfhQ4XKEJJ7jilupPm5Z5L6eBNU29RGUOsSk9/EXhp+KysrHj2G4tPTwW7wXKOXherkWgfNWmtliclbJZ85Sk+K7kstL6yelptUkmrN1STW+sbuM8uL4vPoN8AAAAAAAAAAAAAAAAAAAAAAAAAAAAAAAAAAAAAAAAAAAAAAAAAAAAAAAAAAAAAAAAAAAAAAAAADzj+FbsT7heXXpBTCG5Vq7Iauv0WQTf05PRw6Zf/ILsPqelXR3pHCHDU6SeksfjXPfX0WP2AdXgAABfoNJq9frKtFodNdqtVa92uqqDnOb7klzOQ/e58oP6k9I/4Zb7gOLg5R97nyg/qT0j/hlvuH3ufKD+pPSP+GW+4Di4OUfe58oP6k9I/wCGW+4fe58oP6k9I/4Zb7gOLg5R97nyg/qT0j/hlvuH3ufKD+pPSP8AhlvuA4uDlH3ufKD+pPSP+GW+4fe58oP6k9I/4Zb7gOLg5R97nyg/qT0j/hlvuH3ufKD+pPSP+GW+4Di4OUfe58oP6k9I/wCGW+4fe58oP6k9I/4Zb7gOLg5R97nyg/qT0j/hlvuH3ufKD+pPSP8AhlvuA4uDlH3ufKD+pPSP+GW+4fe58oP6k9I/4Zb7gOLg5R97nyg/qT0j/hlvuH3ufKD+pPSP+GW+4Di4OUfe58oP6k9I/wCGW+4fe58oP6k9I/4Zb7gOLg5R97nyg/qT0j/hlvuH3ufKD+pPSP8AhlvuA4uDlH3ufKD+pPSP+GW+4fe58oP6k9I/4Zb7gOLg5R97nyg/qT0j/hlvuH3ufKD+pPSP+GW+4Di4OUfe58oP6k9I/wCGW+4fe58oP6k9I/4Zb7gOLg5R97nyg/qT0j/hlvuH3ufKD+pPSP8AhlvuA4uDlH3ufKD+pPSP+GW+4fe58oP6k9I/4Zb7gOLg5R97nyg/qT0j/hlvuH3ufKD+pPSP+GW+4Di4OUfe58oP6k9I/wCGW+4fe58oP6k9I/4Zb7gOLg5R97nyg/qT0j/hlvuH3ufKD+pPSP8AhlvuA4uDlH3ufKD+pPSP+GW+4fe58oP6k9I/4Zb7gOLg5R97nyg/qT0j/hlvuH3ufKD+pPSP+GW+4Di4OUfe58oP6k9I/wCGW+4fe58oP6k9I/4Zb7gOLg5DtDoL002forddr+iW3NLpalvWXXaGyEILvbawjjwAAAft/wACbQarV+XPSamiL6nSaO+25rsi1uL6Wjv+dafgGdEPuZ0G2l0s1NWL9r3qqhtcqa88vTNv2I7LAAAAAAAAAAAAAAAAAAAAAAAAAAAAAAAAAAAAAAAAAAAAAAAAAAAAAAAAAAAAAAAAAAAAAAAAAAAAAAAAAAAAAAAAAAAAAAAAAD8A+HVsT7peRqO1YQzZsrXVWt90Jvq39Mon7+cP8tOxF0i8lHSbY+5vyv2dY4L+/Bb8fpigPMEBrD3XzAH1ehm1p7B6W7K23XJqei1dV/D+5NM9U9PdDUUQuqanXZFSi12pnkuemPwfduf0h8jXRjaLs37PiMKbH/er8x/UBz0AAAAAAAAAAAAAAAAAAAAAAAAAAAAAAAAAAAAAAAAAAAAAAAAAAAAAAAAAAdc/h19L/uP5ONL0Y01uNTtu/wDGJPj1FeJP2vdOjp+vfC76Xf0s8s+0YU27+j2UloKMPhmDe+/9bfsPyEAbex9Bqdq7V0my9FB2ajV3Qprgu2c3hGofunwKOiH9IfK7XtfUV7+j2HS9U5NcHa/MrX0t+oDu90E2BpuivQ3ZHR3SKKq2fpK6Mr9NxXF+t5frPuAAAAAAAAAAAAAAAAAAAAAAAAAAAAAAAAAAAAAAAAAAAAAAAAAAAAAAAAAAAAAAAAAAAAAAAAAAAAAAAAAAAAAAAAAAAAAAAAAACFkI2QlXNZjJYaJgDyy8pmxpdH/KH0g2I44Wj2jfVD9hTePowceP274a2w/uR5cdZrIwxVtTS1apenG4/pgfiIA7x/AK278f8lm0djTnmzZm0Zbq7q7Ipr6VM6OHZT4AW2/inlB2zsOc8Q2hoVbBZ5zrfukwO7QAAAAAAAAAAAAAAAAAAAAAAAAAAAAAAAAAAAAAAAAAAAAAAAAAAAAAAABxXysdKa+hfk7210kscd7R6aTqT7bHwgva0cqOqnw/Ol3UbH2L0J01nn6m349qkn+hDKgn6W2/8oHT/UXW6nUWai6bstsm5Tm+bb5sgAAO/HwKOiH9HfJFXtfUV7ms25c9S8841LzK19Df+Y6Q9BNganpT0z2P0d0qcrdoauujK/QTfF+pZfqPUfY+z9NsnZOj2ZpIKvT6SmFNcV2RisIDdAAAAAAAAAAAAAAAAAAAAAAAAAAAAAAAAAAAAAAAAAAAAAAAAAAAAAAAAAAAAAAAAAAAAAAAAAAAAAAAAAAAAAAAAAAAAAAAAAAAAAdTf/kJ2HvaPox0krh8iy3R2S9KU4fVM6hnoV8MbYn3a8hW1pwhvWbOsr1sOHLceH9EmeeoA/R/g07b+4Hlx6L6yc9yu/VrSWPwt/F/W0fnBsbM1Vmg2jpddS2rdPdC2DXY08r6gPWYHzujW0a9sdHdm7VqlmGs0td8X+3FP7T6IAAAAAAAAAAAAAAAAAAAAAAAAAAAAAAAAAAAAAAAAAAAAAAAAAAAAABGbjGLlJ4S4tnmp8IjpdLpr5Xdu7Wrt39JC/4tpe7qq/MT9eG/Wd5/hHdLo9DPJBtzatdm5q7afiml48ess8zK9CbfqPNdtttvi2AAAHZP4BnRD7p9OtpdLdTTmjZFHVUN8uvszy9EE/aju2flHwVeiH9EPI1smq6vc1m0V8f1PDDzYlup+iO6fq4AAAAAAAAAAAAAAAAAAAAAAAAAAAAAAAAAAAAAAAAAAAAAAAAAAAAAAAAAAAAAAAAAAAAAAAAAAAAAAAAAAAAAAAAAAAAAAAAAAAAAB8fppsmG3+iO19iWfJ1+it0/+uDR5V31TpvsptThZW3GafY0eth5l+X/AGJ/R3yydJ9mRhuVrXTtrX9yzz19YHBQAB6LfBM2393PIN0esnPeu0cLNFZ4dXY1H/8ADdP1g6s//H3ttX9G+kXR6csvS6mvVVrwmt1/TFHaYAAAAAAAAAAAAAAAAAAAAAAAAAAAAAAAAAAAAAAAAAAAAAAAAAAAABRqtRTpdLbqb5qumqDsnN8lFLLYHT34fnS/4z0g2N0L01ma9HV8d1SX/MnlQT9EU3/nOrRyXyp9KLumXlA2z0kubxrdVOVaf6Fa4QXsSONADmPkX6Jz6beU3YfR5Qbpv1KlqcdlUOM/oRw47ZfAA6IZ1G2+m+pr+QviGkbXfidjXsgvaB24qhCqqNdcVGMUkkuxFgAAAAAAAAAAAAAAAAAAAAAAAAAAAAAAAAAAAAAAAAAAAAAAAAAAAAAAAAAAAAAAAAAAAAAAAAAAAAAAAAAAAAAAAAAAAAAAAAAAAAAAAOjXw9dh/EPKrs/bNcN2raezY7777K5tP6HA7ynWj4f2w/jfQDYu3oQzLZ+udU33QsXvggOlAAA/evgM7c+5flo+5sp4htXZ9tGP78MWL/tftO+h5e+Rzbf9HPKj0b2zv7kNPtCvff8Acbw/obPUFPKTQGQAAAAAAAAAAAAAAAAAAAAAAAAAAAAAAAAAAAAAAAAAAAAAAAAAAPxr4X/S/wDor5Gtdp6bNzWbYn8QpWeO7JN2P/Qn7T9lOi3w6Ol/3a8pem6M6e3e0uw6MTSfDr7MN+xbiA69AADNcZ2WRhWm5TeEl2s9MvIR0Sj0K8lGwtguO7fXp+u1Pe7bPPn7HLHqOjXwYeiP9MfLJsbR219Zo9HZ8e1WeW5XxSfpeF6z0gXAAAAAAAAAAAAAAAAAAAAAAAAAAAAAAAAAAAAAAAAAAAAAAAAAAAAAAAAAAAAAAAAAAAAAAAAAAAAAAAAAAAAAAAAAAAAAAAAAAAAAAAAAAfm3wmdif0g8h/SfRxhv21aX41X6amrPqiz9JNTaukq1+zNVoLVmvUUzqkn3SWPtA8nAb/STZ9ux+kO0tlWrds0eqsoa8YTa+w0AMwbjNSXBp5R6j+S7bS6ReTno9tuMt6Ws2dRZN/39xb305PLc7+fAm229reRHTaOU827L1dulku5fLX/eB+5AAAAAAAAAAAAAAAAAAAAAAAAAAAAAAAAAAAAAAAAAAAAAAAAAAD5nSfa2l2D0e2htvWyUdPodNO+xvuisnlv0q2xqekHSXae3NY29RtDVWamz0zbePpO6/wAOXpf9xPJdV0b09u5qtuXqE8c+oranP2vdXtOioAAv2dpL9oa/T6DSVOzUaixVVwXbNvCQHcv4BHRD4h0Q2r0x1NeLtp3/ABbTtr/6a+bXpm//AMTs4cf8nnRvS9EehOyOjel3dzQ6WFUmv05486XrllnIAAAAAAAAAAAAAAAAAAAAAAAAAAAAAAAAAAAAAAAAAAAAAAAAAAAAAAAAAAAAAAAAAAAAAAAAAAAAAAAAAAAAAAAAAAAAAAAAAAAAAAAAAAAA85vhY7E+4Xl46QVwhuVayyGtr4c+sgm//wA98/KjtJ/8guxOp6TdHOkNcOGp0tmlsfjB5X0TZ1bAHa3/AOPfbe5tLpT0cslwtro1dKz2wbhP64+w6pH6/wDA/wBt/cXy7bGhKeK9oRs0cvHfXD6UgPQ8AAAAAAAAAAAAAAAAAAAAAAAAAAAAAAAAAAAAAAAAAAAAAAAAA4z5TektHQ7oDtrpJc1/wWknZWn+lZjEF65YA6PfDF6X/wBKfLLrdJRbv6LY1a0NOHwc1xsf+tteo/GC7W6m7W6y7Wambsvvsdlk3zbby2UgD9t+Bj0Q/pL5YtPtHUVb+j2JS9bNuPDrM4rXtef8h+JHfD4EPRD7g+Sh7d1Fe5q9uXO/L59VDMIfa/WB+/AAAAAAAAAAAAAAAAAAAAAAAAAAAAAAAAAAAAAAAAAAAAAAAAApWq07eOuh62XJprKeUAAIznCtb05Riu9vAEgUrV6b/nQ9pcmmspprwAobussmq7IwUJbvGGc8E+/xJUSm52V2SUnDHFLGcoUflL/8T/xRin85v/y/UBcCM7K4fLsjHPe8EY30yeI3Vt9ykgLAAAAAAAAAAAAAAAAAAAAAAAAAAAAAEL5yhFbiTlJ4jkhKN8I70bOskuLi4pJ+juJXxcoZUlGUXvJvkUvUOxdXGVUJPhvdYnj0d4Fs7oquMopyc15sVzZhR1EnmVkYL5sFn6X7jGnglbY/mYrj4LCf2/QZslZO91Qn1ajFSbxlvLfLPoAy67l8i/PhOKf1YM12Tc+rsgoyxlNPKZFwvi8wu3/7s0vrWBBRqcrbpxU5Pm3wS7EBbOcILM5RivF4MQsrm8QnGXoeSjrKrdbCMZwn+Lk2k0+2IvlXVqqXKUYJqSy3juA2QQjdTOW7G2En3KSZMACqWp08ZbruhnuyZrvpseIWRk+7PECwAAfgXw59h/dTyMR2lCGbdlbRqvzjjuSUq2vbOD9R0OPTzyzbKp6QeTDpHsRuMrdTs+1Vwzx30sx+lI8xba7Kpbttc633Si0BE/Tei/Ruvo90l2Zt7T7Rt6zZ2rq1UE4LDcJKX2H5kuaP2nW/md3+HL6gO/ug1MNXoNPq63mF1UbIvvUlk2DgHwd9t/0h8i3RfaTnvz+JRpsf96tut/8Aac7d9CeHdWn+0gLARhZXP5E4y9DySAAAAAAAAAAAAAAAAAAAAAAAAAAAAVSdk7XCEtyMflSxlt9yLTXul1FjmpQ3Z84yko8e9ATi7IWqE5b8ZfJljDT7mYlbOU3CmKeOEpPkveyqVrnGd29DFcW4xjJS445s2aoKuqMFxwuff4gQVduPO1Es/wB2KS+nJjGohxUo2rua3X7eRGnrbq42u5wU1lRglhL0tGXDUbrh1kZJ/p4xJfYBbXNTgpJNeD7DEraovErIJ9zkiKs09KVfWVw3VjDklgho9ydG95ssznx5/pMC+LUlmLTXejJq6a6mHWxlbCLVkuDkljibMJwmswnGS708gZBic4wjvTkorvbKvjem/wCdEC46ufD66XrSdG9j9DNNZ+N19stXqknyrr4QT/ak3/oO0MZwlHfjJSXenk82/hKdLn0z8sO29oV2dZo9Lc9FpX2dXW8ZXpeX6wPzcAthp9ROG/DT2yj85QbQH0uhuw9T0k6V7L6P6SLldr9VXQsdmXhv1LieoWxdmU7G2Ns7Yez9yrT6PSwpr83PmwUYo6ZfAS6IfdXyia3pTqa86fYtG7U3y6+xOP0R3/ad3ZfncP8ADl9cQIxd0LoQssjNTzyjjGPWXlNv51R/m+otnKMFvSkorvbwBkFfxij/AJ9X+tFiaaynlAAAAAAAAAAAAAAAAAAAAAAAAAAAAMTkowcnySyzJicVKDi+TWGBVGN8470rOrk+KioppenvMwtxVKVuIuDxLuKvjDrXVylVOS4b3WJZ9PcZjDNtcZSUs5sbXJtYS+v6AJp6izisUx7MrMn7jLrtx5uonnximvqGonOO5GDSlOW6m+zg39hjqrkljUzz4xjh/QAU7a5JWxjKLeFOPD2oubSWW0l4lChNzVl7glBcEnwz3kdTfTKEIxurbdkFhSXHzkBcrapPCtg33KSJmvrlGGmlLEY4aee7iiz4xR/z6/8AWgLACuy+mt4nZGL7mwMR1NE5bqmsvgsprPt5kZ1Or8ZQsY51rlL0dzLpwjODhOKlF80yvStulKT3nFuOe/DaATuzXB1YlKz5Hd6RCqur8ZNqUlxc5dnuRTo1/wAXfH/l8I/5m2/sLLErNVGuXGMY7+OxvPD2AZWqocsdYvS00n6+RC6MKZxlV5s5P5C5S7+H2mxJKUXFpNPsZCqmut5iuOMZbzw7gMUflL/8T/xRT1jjq7q61vWPdwuxLHNl1H5S/wDxP/FFqSTbSWXzAqrhGmEpzlmT4zm//eCIx375KUswqXyY8nLxfh4Efl6pwu4Jca49kvH0+BsgAAAAAAAAAAAAAAAAAAAAAAAAAAAAAFWq/I/5o/Whq/zWz9ljV/kf80f+5DWfmtn7LAjN9Tc7Hnq543n8195OyuFqjNNp482cXxLCl0RTcqpSqb+byfq5AM6ivmldHw4S9zISuh1sLcy3FGUXiLbTyuDROFk42Kq5RzL5Mo8n4Y7GLV1d0LY/pPcn49z/APe8DNWoqsnuRk97GcOLXD1mbrq6t3fbW9ySTefYRl+ew/w5fXEW/ndHol9gEJ3QtUY17+d6L4wa4JrPNEox+MefPPVfox+d4vwJaxuOlsaeHu4yZul1OmnKCXmQbS7OCAxK6inzHKMcfoxWcepBOjUxa82aXY+a9xnT1xrqSXFvi32t95HUxScLY8JxklnvTaTQCDlVYq5ScoS+RJ80+5mJb19koRbjXF4k1zk+4zreGmlLtjiS9TyZ0a/4Wt/OjvP0vi/rAjN6eivce7FSXJLi/V2nRPprodBR0s21sN9RfHS6yyuVUkm1HeeMp8uGDvZo0pQ69/LseW32LsR0N+Gdsy/o/wCXTU7S0k50fdPRVamNkHhtvMJf9gH5L0x0OztBtbqdnXbyfGyrmqn3Z+zsP07W/md3+HL6j8W4t5by2+LP25pNNNJp8GmB+6fAU12s1fko1eydSpV16PaEp1Z4SlVNJ8O5bylxOxFlkaoxhCOZPhCC4f8A6I6z/BU2nLS9K9pbLik/jWj6yuHJOUJL7JP2HZbSKDh1ik5Tl8qTXHPd4egCVNco5nZLenLn3LwRYAAAAAAAAAAAAAAAAAAAAAAAAAAAAAqX53L/AA19bLSpfncv8NfWwMWRUtQoPk65J+1CizdxTa8WLgs/pLvRl/ncf8N/WidkIWR3ZxUl3MCt0OLcqZutt5axmL9XuHXSreL4KK+fF5j/ALDq7a+NVjkvm2cfp5/WSqmrYPMcNPdlF9jAqquhVFwsc97ek+EG+Dba7C+qyFsFODzF+GCvTZhKynjiDW7nuf8A6xo/yL/bn/3MBLVUqUo70m4vDxBvj7CHXefOyCct5RjBNNZfHvJ6Tlb/AIsvrEuOtgnyjW2vTlIDMKYxfWWtTmuLlLs9HcY+NafOOsWO/Dx7eRjULfvqqlxg8ya78Yx9f0F4HCvLHteGwfJ1tfalF3UaqdDp09sHx6ya3U/HGW/UeaO09FqtJtS3RahOd6ljMf0s8mvSdz/hT9JoT27puh2lszDTVQ1+oiv0Zzc4xi/VGUv8x1u2zpKbOm+x7ZJZcJt+Lgm4/S/oAl0Y6LaTZ9EL9ZVC/WNZbksxr8EvtPp6jbeyNPe6LtoaeFieHHf5enuNXprrLtF0dvsok42TarUlzjl8X7Di3kj6LWdNPKPsXo3GLder1UOva7Klxm/YmB348gnRzTbD8mmi1Mt2Go1//G2Wxxl7ySis9vmpe1n6HXKUrqZTWJOqWfbEjp9FptPCFdNMYQrSUIL5MccFw7y2X53D/Dl9cQK9VZGvUUSll/KSS5t45E6q5Sn1t2N/9GPZH/fxLmk2m0srkzX1UpKUIybjVLhKS557F4Z7wMznK6TrqeIrhKf2LxLoRUYqK5IRjGMVGKSS5JGQAAAAAAAAAAAAAAAAAAAAAAAAAAAAACrSfmtf7KKoKXVQtgnKUJS4d6y8r/3uLdH+a1/soaT8j/ml/wBzAz+K1FeOEo+xp/YyO5fX8iasj82fP2krKYTlv8Yz+dF4ZCU7aFvWNWV9ssYcfF9jAjbapw3cShOMoylFrjjK9pNaqhyS3pJtpLMJLi/UZ1UN6pzj8uHnRfj3EdRJTorkuTnB/wD5IC2yca4Oc3iK5sqeqpawnP8A/hy9xnXfm0vSvrRcBrV784QpTcVCC6yS55xyRZ+I00cebWn7X7zGj407z5ylJv2sxpkpzsukk5ObivBJ4wAc9TNbsaVW/nSkml6lz+gmlDT0cW92K4vtb97ZHf1D/wDoivTZ/sZjVKU1O6Sm1ySWIoCmqMqJRtnwVmd/wbeV9eC+6uTlGytpTjnGeTT7GTklKLjJJp80ypQuq4VyU4dkZvivWBjrNQ/NWnUX85zWPeYkraY9Z1nWJLM1Lh613Eus1H/Tx9dn+wVU5yTvkmk8qEeXr7wGmeZ3Pvmv+2JVixaq6ytt43cwzwax2eJbu2wnN1whJTlnjLGOCXd4EqYSU5zmknPHBPOMAYar1FSabxzTXBxf2MxVZJT6q7Cn2Psku9e4zKuUbOsqwm/lRfKX+5C2N1sN2VNfemrHlPvXADYBiCkoJSeZY4syAAAAAAAAAAAAAAAAAAAAAAAAAAAFWr/I/wCaP/chrPzWz9lkroOdbiueU/Y8ldivshKuVdcVJYbU28fQBiKeoblKTjBZUVF8c979xLOorWHBXLsaeH60+BmdKc3ZXJ1zfNrk/SjG9qY8HVXPxUsfQ/eBiMbbbYWWRVcYZcY5y28Y4mb3vW1VLnvb8vBL/cZ1MuChCvxct5+wnVWq0+LlKXGUnzYELPN1NUnyalD6n9hnURnv12wjvODeY5xlMnZCNkHGXLw7CvOpgsYhau/O6wMTl1sXTZVOvfTSy19jJ0z62nE0t75M4+PaQaussrcq1BQlvZ3854NfaTsqzPrK5bk+/sfpQFcevpjuKHXRXCLUsPHjkyo22zjK2KhCLyo5y2/Ezv6lcHTCXip4+jAzqZ8NyFXi3vP2ANT58o0Li5NSl4RT/wDUNK91OiXyocvGPZ7vUTqrjWnhtyfGUnzYtqVmHlxkvkyXNAV7ttMpdXFWQbb3c4ab7jrf8NDofXtyfRvb+prddemlbprYqXnTTSlFZXJcJHZHe1MeDhXZ4qW79B+W/Cjq1l3kY2xrdPpapW7P3NVHfm3wjLEuC8G+0DoN0r6Py2LdCcL426e2WK95pTXg12+lH6ZrPzO7/Dl9R+P7S1+q2jqnqdZa7LHwXYoruS7Ecru6edZTOv7lNb0XHPxjln/KBzb4MXTr7neU3YGn2lduylqFRC2T+UrE4br8fO4Pt9PPv9bXKM+up+X+lHsmvf4nk7s7U2aLXafV1PFmnthbF+KeT1P6K7QltXo1szamncLqdbpKtRW3LDUZwUu555gfXqsjZDej6GnzT7mSKIwt69WOEYZ4S3Z53vVgvAAAAAAAAAAAAAAAAAAAAAAAAAAAAVL87l/hr62WlU42K3rK4xlmKTTlj7PECvUWOvURaSbcGll4WW0S6myKUo2vrO1v5L8MdhlQlOzethBLdccJ5zn1BVWV8KZpx+ZPjj0MB1moXB6fL71NY9/0EtPXKEZObTnOW9LHLPh7CPWaj/p4+qz/AGDrtt4WuMIdsYvn6WA0737LLV8mTSi+9Lt9uRpeCnDtjOX0vP2lySSSSwkV2Vtz6yuW5PGOKymvECuPWUzmlU7Iyk5Jxa4Z78mJ2LfjfuuKg3CxPsTx/sT39QuHURfirP8AYzRCebJWRS33ndznHDH2AZvrc1GUGlOLzFvl6GUXai2iqdllCjGEXKUt9YSXFvv+gtVdlX5GScPmS7PQ+w/LfhNdO10K8lmuvsp/4jaD+I0KFqy99ec+Xzcgda+mW0Z7b6bba29dY7LdfqnPe7FXFbkIrwUUvpPyjb/SCC6Y6fV0Pfo0T6vMf0s532vbj1Gvtzpfr9oVS09EFpKZLEt2WZyXdnu9BxwD9i12n0u2Nkzpc1OjUQTjOPtTX0H6v8Cbyd6rZXSDbHS7V1w1Eaq1o9FOLxhvjZLD5cFFdvNnV/o90h2jsqSpo3b6JSwqJ8l6H2Ho95G9j6no/wCTfY2it0MatRZp46jUR63LVk1vOPLszj1Acw3NQ05u1RnnhFcY47vH0mK59ZqINrDUJprOeKcSTjfZwm41x7VB5b9ZmVbhKEqox82Liot4XHHh4AV6qMpX0KM3CS3mmvR295ZXNWxlXZFKaWJxf/vFGFG2d0JzjGO5nlLOc+oldVv4lF7tkfky/wDewCtN6dqMm3S+EZP9Hwfh4mwUyd7Ti6apJ8Hmb4/QZ00J1w3Zcs8FvZwu7IFoAAAAAAAAAAAAAAAAAAAAAAAAAAAACrR/mtf7KKaXKxdTGW7FNubT4vznwXvLK1fXCNca65KKwm5tZ+gytPF1xUuE021KL4rLyA3bqn+Lash82Tw16GQsV18HVKrqoS4Sbkm8eGCf/EwWMQtXY291jf1L4KiEfFz/ANgJame5TLHypebFd7fIhfHc0iXPq91+xp/YSrqe/wBZbLfn2cMKPoRaBXqIdbRKMWstZT7M9hDr5xjmyicUubyml9IULauFTjOHZCTxj0PuMWvUWVyrdEYqUWm+s5Z9QEtO9yc6Xw4uUfFP/f7DDhbVZKVUVOMnlxbw0+9E51KcIqTalHlJc0yOdTBY3YW+Od1gZusnGUIw3fP4JtNrPqIVaup1qVk4wb4rmsrsJXuKnRHKT3+C9TNKNkephuWNJ1Q3sS5ZklnweAN74zRj8ovR2+wl1tfV9Zvx3O/PA0Y7jv3HZLcU5JS3nnCSeM88ZbK1OTmsScpOlWR7W5YXHHa8Jgb/AMa06eHak3yT7SUr6VjM1xWUlxNOycNyb01s5pVSc3vt7rxweexkNPKtKPW2OFbzxU2syz2v0YwBvQ1FE3iNsX6xHUUyaSsXHk+x+s02t+WnVjk625fK7VnzW+/s9pRXZLeW/K+x8esg0stduVvYQH1J30wk4ymk1z8DWv1k67GlBSjjKfY+Xb6/oNSqbXUJ22QnnEJZ4SzLtXp4dp9PSqLohiKWFjHPkBKmbnWpNYyTAAAAAAAAAAAAAAAAAAAAAAAAAAAACNsnCuUkstIop1lcnKM5RzHD4J8mk8+HMvuaVU23hbrNCuVahFaiyVa6uPV4k454cXw5sDcepoWPxkePcZjfTKe4rE2aG5Pi96UesjGNiy0lNrnhdvyc+ku0UJykt9OO75zhvPCk+OPUsetgX6i7q+EUm8ZbbworxKvjNmUk63wz50JQ9meZHUprUN4bw4zxzykmvobTKq5zutjDrJTi350oyi1H/wDEDed1cYwc5brkspdpGeohuJ1yUnKSil45PnOyUqlOc5xbm1NpLHDkm8rCM1uTnTLNuVNefLC3ouS4cG216QNta1NJqPJJz4PzeOP9y5amh8rEfPjJdVF9ZPzoxdj33xe+k8+rgWaiuan1UJS3Vxj53yYvm1+y19IG9XdXZwhNMolqLIzeVFJT3cYeeWefo4k9LHej10s703lZfJdi9hTOVfxh70lu9dh//wANgX/GtPnHWrJlaily3VZFvl4GhKz8TKbumnCpSh574veft5LmTSg5OO805WThuJ4WN19nLsyBvWXV1tRnNJvs5s+L0w0Wk6QdEds7ElOM46/Q36aS/bg19ptaeyEoQndY4xlnekpNZl2Jv0ckYulnqFOUnW5yw5N+dHMeL7+GePcB5X6rZ+s01tkLNLclCbrcure7vKW6sMp+L6jr1R1FvWvlDce97OZ+q+VnTbc2N5ftt7JjPUOv7oKxUtPq1TNRny5JKMuZxnrY/F9t6l6nWR1EdfKuyyiKnZClN7qWWsRznl3IDh91VtNnV3VTrn82cWn7GeiHwVduT2l5DNhwvU46rQVS0koTi4vFbxHn/dwdG1e7NDs+yunX6+6Gsi9LZqowi5Y4uCe82148kztL8CHb1es2b0j2R1+tk9Nrq73TquLqlYpJpPtWY8vEDsbTrJztUHBc2vHnj/c3TGF3IyAAAAAAAAAAAAAAAAAAAAAAAAAAAA19VfKl8ljdcuKfHCy0bBra1vraVBJz85pPt81gThqaJJYsXFZWe0ytTRx/GLgaeaJxjHrZzyn1ylJvCxxbXY84Ibtu7BWOT3EnOTk8xi/Oz6eDXsA+lXZCxNwkmlzNeWpk5JQwk+WYuTfjhdniTqhN6aTk31libeXnGez1Gp1jri5KXVqSjh5xjCxu5w8YYGzRfOdijLq2m2k45ysd6fIseopTadi4PDfYvWaE52qh2t2LemoZbTzHtawkyNkpRvlGNlqaniEFFcuxJb3FY8AN2zVKFrXDci0pS7s5930ivVxb/GeYmt6OU+Ky19hp1Y33F70apTj5jlwSe9w4PBZTF2ycXZPrI15g3J8HvS4/UBuPU0JJ9YuJ0l+HN0uq235R9m9FatXuaLZFO9dNRclG6zDk8LnuwUPazt9tvaVOyNk67bGssdOloondObk8qKW9LP7OGl6UeY3S/bWq6S9Kdqbd1W879oaqy+ST5Zed31cgMbZ2RLQa96Ki6WstjFSsVdMlu5Sa9PBo0JUXwhCcqbYxn8huDSl6O85fOV1flKj1crIKe5GW62lKPVrg+9ZwaWydp7Sto2xO266yUKXZWpZarnvJJxX6LSfYByT4OfQu3pb5ZNh7J1emnHS0WfHNWpxcV1Vfn4497wvWejvxjTxSXWxUVwz2e06x/Ah2Lf8A0N1fSzacpzu1Otlo9Pba25dQlGU8N8cOWV/lOye9FLCnL4zv4VeXjGeW7y3ce8Dc+MU7m91kcZwR+NUZx1iz3PmjRjL8ddKUpcLMSll5jHeecd3Z6ETtadVyonKdfmpPeb454pPu5cANyWopi2nYuHPHHHpJSuqik3NedxWOOT5d0lCbjXbbCO6urwlx4c15yy8+Bic+N2VZXFuOcNJwftxhvPaBvX6vdjGVWJxbSyvSl9uSejvd8W3FLHcyGgalB5e+2oy3muaa4G0klyQAAAAAAAAAAAAAAAAAAAAAAAAAAAAABqx1aVqha4xy2sYeU1jh48y34zRjPWLu8TUcl1k3KTjS7Zb0k8diws9xGScpqdEpSlGT6tuT86KWWs9qyBuvU0cPxi4krLFCCkk5OXCKXaaNMJu3dTko2PzZKTzKHym/TxS9psa2D3YKOIrEoJ/NbWF/74gQeqnuuSlVzx8mW7/q5F9dy6uU7XGO68N54GjZdNeZDfylhVRkk/Rhp+3kLXOM7a96f4utODik2s88cuz7QN74xS08TWUs4fBlMdW3iLjiyW7upp8mufqNKMnNSipWWJ4w+GIyz37zfsLaZNuuTnNzTrSzJ8mln2gbdWrpnCLc1FtcU+xli1FLluqxZNGMX8UqlXOT62KUvPfGfNZ9OMP0l2jhKb/Gb2IL5LfBSfFr1cF7QNm2qNmG3KLXbGTTK/itfZKxZ5+e+PpLwBT8Vq5Znu/N33j2D4tX+k5z7t6bePR3FwAp+LQ5uy5tcn1j4GtdpLFY5VStjnthPn4NN/Sb4A1tLpt2LVuZLDjiUt5vLy233sn8WrzxlZKPzZTbRcAKfi0M5UrIruU2kWxioxUYpJLgkZAAAAAAAAAAAAAAAAAAAAAAAAAAAAAABicVOLi+TKvi0FxU7k3z/GPiXADXvpfUquqOY5zJZw328yemhKEJbyw5ScueeZaAI2VwsWJLlyaeGip6WuXy5WTw8rem3h95eAKnp68Ld3oNLGYywwqK1Fx85t85Ntv2loApemraXGee/eeX6SrU02zk1GLcXBwWJJYTxns8DbAGI5UUnzwVS01cm8ueHzjvvHsLgBT8Wrby5WN9jc3w9A+LV8963Pzt959pcAKfi1f6LnF9rjJpv095Gekg4SUZTy/nSbWTYAHTD4Z9Eej3lD2ftWyW0JQ12jUo0K1dTKdcsLMvlY+TwwdaatfrKdbPWU6iyq+yTlKUHjLbyzuf8P3Yfxvye7G29CGbNn7Q6qb7oWQf2wXtOk4G3ftLaF+rhqrtZdO6v5E3LjH0dx+7fAq6V62ryyU7M1+ttuo1+isphGbz56Skn6eDOvxyfyUdIIdFvKT0f6QWzcKdFrqrLmv+XnE/obA9Rwfk34Rfkf8A1tr/AHW7+QfhF+R/9ba/3W7+QD9ZB+TfhF+R/wDW2v8Adbv5B+EX5H/1tr/dbv5AP1kH5N+EX5H/ANba/wB1u/kH4Rfkf/W2v91u/kA/WQfk34Rfkf8A1tr/AHW7+QfhF+R/9ba/3W7+QD9ZB+TfhF+R/wDW2v8Adbv5B+EX5H/1tr/dbv5AP1kH5N+EX5H/ANba/wB1u/kH4Rfkf/W2v91u/kA/WQfk34Rfkf8A1tr/AHW7+QfhF+R/9ba/3W7+QD9ZB+TfhF+R/wDW2v8Adbv5B+EX5H/1tr/dbv5AP1kH5N+EX5H/ANba/wB1u/kH4Rfkf/W2v91u/kA/WQfk34Rfkf8A1tr/AHW7+QfhF+R/9ba/3W7+QD9ZB+TfhF+R/wDW2v8Adbv5B+EX5H/1tr/dbv5AP1krtphY/Oclww8Sayj8q/CL8j/621/ut38g/CL8j/621/ut38gH6mtPWmsysklyUptoqvptnbJ7raeEnvJJJPPLB+Y/hF+R/wDW2v8Adbv5B+EX5H/1tr/dbv5AP1kqnRCUnJOcG+bhJrJ+V/hF+R/9ba/3W7+QfhF+R/8AW2v91u/kA/U46aqM9/Dcu1ttt+kfFq+SlYo/NU2l7D8s/CL8j/621/ut38g/CL8j/wCttf7rd/IB+qSorbT4xwsYi8JruYVMYZlXnew91N8E/Qflf4Rfkf8A1tr/AHW7+Qz+EV5IP1th+62/ygcQ+Gt0pn0e8lkdi0zcNVtq50Nbyb6lPfsly79xes6N022U3QupnKFkHmMk+KZ+r/Cl8pOj8pHlBhqtj23T2Ns+hUaR2Ld35c5zx2ZfD1H5KBvvbO1Xer/uhqOtUXBT3+O63nH0It2br9tajXR0ui1mplfrLlFRjLzp2Se6kz5Z+y/A86If0p8smi1d1W/o9jR+PXZWVvp/i1/r4+oDu/5NeidHRLoJsbo7CU5LQ6SEJree6585PHi2zkj0teMb1ij81TeC4Aaep0jeJVysbXarGpLxT+wxptNap71k7JcU25yy3jkkuxG6AKXp4ZbjKyGeLUZtIPTV8N3ehj5smi4ARrrjWmo548W28tkgAAAAAAAAAAAAAAAAAAAAAAAAAAAAAACl6avOVKxPsxN8DPVbkJOvLsa+VJ5ftZaANbSUzrnmUXFKG7xkn25zy8TYlFSi4ySafNMyAKfi0OW/bu/N33gR01MYbkY4S5YeGvR3FwAqhRCMt5uc2uTlJvBj4tXjGZ47POfm+juLgBr3UyUIxrTklJSacuLaeebJ6WEq6sT5uTfPPN5LQAAAAAAAAAAAAAAAAAAAAAAAAAAAAAAAAAAAAAAAAAAAAAAAAAAAAAAAAAAAAAAAAB+cfCV2J/SDyJdJtFGG9ZXpfjFf7VbU/sPNg9Zdo6WrXaDUaO5b1d9U6pp9qksM8qekuzbNjdI9pbIuji3RaqzTz9MJtfYBoAAAAAAAAAAAAAAAAAAAAAAAAAAAAAAAAAAAAAAAAAAAAAAAAHer4DfQ6WwfJlf0j1NO5qdu3KyDfPqK8qHtbm/WdW/IF5Ltp+U3pjTooV2U7H001ZtDVY4Qh8xP575L2no7srQaTZWzdNs3Q0wo0ulqjTTXFYUYRWEgNsAAAAAAAAAAAAAAAAAAAAAAAAAAAAAAAAAAAAAAAAAAAAAAAAAAAAAAAAAAAAAAAAAAAAAAAAAAAAAAAAAAAAAAAAAAAAAAAAAAAAAAAAAAAAAAAAAAAAAPOj4WexPuF5dtvqMNyrWzhrIePWLL+nJ6LnTf/wCQbYfU9IujXSKuHDU6a3SWPxramvosfsA6sgAC7R6TV62x1aTTX6ixLLhVW5vHqNv7g7d/qbaP7rP3HPvgu9K6+iPlo2NrNVYoaLWTeh1OeWLFhP1T3GejnV1/Mj7APKX7g7d/qbaP7rP3D7g7d/qbaP7rP3Hq11dfzI+wdXX8yPsA8pfuDt3+pto/us/cPuDt3+pto/us/cerXV1/Mj7B1dfzI+wDyl+4O3f6m2j+6z9w+4O3f6m2j+6z9x6tdXX8yPsHV1/Mj7APKX7g7d/qbaP7rP3D7g7d/qbaP7rP3Hq11dfzI+wdXX8yPsA8pfuDt3+pto/us/cPuDt3+pto/us/cerXV1/Mj7B1dfzI+wDyl+4O3f6m2j+6z9w+4O3f6m2j+6z9x6tdXX8yPsHV1/Mj7APKX7g7d/qbaP7rP3D7g7d/qbaP7rP3Hq11dfzI+wdXX8yPsA8pfuDt3+pto/us/cPuDt3+pto/us/cerXV1/Mj7B1dfzI+wDyl+4O3f6m2j+6z9w+4O3f6m2j+6z9x6tdXX8yPsHV1/Mj7APKX7g7d/qbaP7rP3D7g7d/qbaP7rP3Hq11dfzI+wdXX8yPsA8pfuDt3+pto/us/cPuDt3+pto/us/cerXV1/Mj7B1dfzI+wDyl+4O3f6m2j+6z9w+4O3f6m2j+6z9x6tdXX8yPsHV1/Mj7APKX7g7d/qbaP7rP3D7g7d/qbaP7rP3Hq11dfzI+wdXX8yPsA8pfuDt3+pto/us/cPuDt3+pto/us/cerXV1/Mj7B1dfzI+wDyl+4O3f6m2j+6z9w+4O3f6m2j+6z9x6tdXX8yPsHV1/Mj7APLPZHQnphtfUKjZnRfbGqsfDFeisf2H7f5Lfgp9KtsX06zptcthaDKlPT1zjZqrF3cMxh68+g7vxSXJJegyB8HoR0V2F0N6P0bD6O6GvRaKnsS4zl2yk+1vvPvAAAAAAAAAAAAAAAAAAAAAAAAAAAAAAAAAAAAAAAAAAAAAAAAAAAAAAAAAAAAAAAAAAAAAAAAAAAAAAAAAAAAAAAAAAAAAAAAAAAAAAAAAAAAAAAAAAAAAAAA/GvhhdFJdJ/IvtC/T1uer2ROOvrwuO5D8p/+Db9R+ylGr09Or0l2l1NcbKb4OFkHycWsNAeTAOb+XHoPf5PvKTtPo9OD+KqfXaKx/8A2UT4w9nL0o4QBmDlFqUXhrimj0L+Cv5TqPKB0B0+k1l8fu9sqqNGtrb86xLhC31pcfE88zkXk76Y7b6CdKdN0g2Fqeq1FLxOD+RbDthJdqYHqYD898jPlY6N+U3Yi1Wy7lp9oVx/4rQWv8ZU+9d8fE/QgAAAAAAAAAAAAAAAAAAAAAAAAAAAAAAAAAAAAAAAAAAAAAAAAAAAAAAAAAAAAAAAAAAAAAAAAAAAAAAAAAAAAAAAAAAAAAAAAAAAAAAAAAAAAAAAAAAAAAAAAAAAAAAAAAAAAAAAAAAAAAAAAAAAAAAAAAAAAAAAAAAA/FfhXeSv74XQv7obKpT2/spOzTJLjfX+nV9q8fSeft1c6rZVWwcLINwnCaw012M9bDqf8LXyD2a2zVdPehmj39Q827U0NceNnfbWu/vXrA6ggNST3XwaAG9sLbG09g7Vo2rsbX6jQ62h71d1M3CaOzXkx+FxrdJVVoOnux/j0UsfH9FiFn+et8H6U16DquAPSLo15dvJVt6uL0/TDZ+jm/8A69fP4s1/rwvpOWUdNeh2oWaelmwbFz8zaNT/API8sQB6p/0v6KfrNsX9+r94/pf0U/WbYv79X7zysAHqn/S/op+s2xf36v3j+l/RT9Zti/v1fvPKwAeqf9L+in6zbF/fq/eP6X9FP1m2L+/V+88rAB6p/wBL+in6zbF/fq/eP6X9FP1m2L+/V+88rAB6p/0v6KfrNsX9+r94/pf0U/WbYv79X7zysAHqn/S/op+s2xf36v3j+l/RT9Zti/v1fvPKwAeqf9L+in6zbF/fq/eP6X9FP1m2L+/V+88rAB6p/wBL+in6zbF/fq/eP6X9FP1m2L+/V+88rAB6p/0v6KfrNsX9+r94/pf0U/WbYv79X7zysAHqn/S/op+s2xf36v3j+l/RT9Zti/v1fvPKwAeqf9L+in6zbF/fq/eP6X9FP1m2L+/V+88rAB6p/wBL+in6zbF/fq/eP6X9FP1m2L+/V+88rAB6p/0v6KfrNsX9+r94/pf0U/WbYv79X7zysAHqn/S/op+s2xf36v3j+l/RT9Zti/v1fvPKwAeqf9L+in6zbF/fq/eP6X9FP1m2L+/V+88rAB6p/wBL+in6zbF/fq/ebOg27sXaNrq2dtjZ2rsX6NGohY/oZ5Rl+g1us0Gpr1Wh1d+lvreYWVTcJp+DQHrODrZ8ELy1bQ6ZO3od0q1PX7Y09bt0mqaw9RWucZ/31zz2o7JgAAAAAAAAAAAAAAAAAAAAAAAAAAAAAAAAAAAAAAAAAAAAAAAAAAAAAAAAAAAAAAAAAAAAAAAAAAAAAAAAAAAAAAAAAAAAAAAAAAAAAAAAAAAAAAAAAAAAAHW34QnwbND0pnqOkfQmNOztsPzrtFjco1L7WvmT+h+HM6adI9hbY6ObXu2VtzZ2o0GtoeJ1XQcH6fFeJ6unFun/AEB6J9O9nfEek2x6dbGP5O35Nlf7M1xQHl0DtP5RfgibT087NV0G23XrKua0e0Gq7PQrEsP14PwjpZ5MfKB0WslHbfRTaenjF4dkKetr/wBcMr6QOHgzOE63uzg4PuawYAAAAAAAAAAAAAAAAAAAAAAAAAAAAAAAAAAAAAAAAAAEqKrbro001Tssm8KEFlt+gD9M+CxLVR8vvRT4pneeqmp4+Z1c9/6MnpAdXfgdeRnaXRrUS6c9K9JPR6+2p17O0li8+uDXnWSXY2uCXPGTtEAAAAAAAAAAAAAAAAAAAAAAAAAAAAAAAAAAAAAAAAAAAAAAAAAAAAAAAAAAAAAAAAAAAAAAAAAAAAAAAAAAAAAAAAAAAAAAAAAAAAAAAAAAAAAAAAAAAAAAAaW19p7O2RorNdtTX6fQ6atZnbqLFCC9bPxfpp8KPyZ7Csso2bqNXt++HD/g68V5/bnhP1ZA/dTEoprDSa8Tp7tj4Y+0nNrZHQvSVx7HqtXKT9iSPkw+GJ02yt7ov0fa8Ot/nA7fbT6J9F9qNvaXRvY+tb5vUaKuz60fL+9f5Nv7P+i38Jo/lOu2w/hjvfjHbfQtbv6U9HrOXqmvtP1roN8InyYdKZ16f7svZGsnyp2jDqln9v5H0gcu+9d5Nv7Puiv8Jo/kH3rvJt/Z90V/hNH8hyrT3U6imF1FkLa5xzCcXlNeDLgOH/eu8m39n3RX+E0fyD713k2/s+6K/wAJo/kOYADh/wB67ybf2fdFf4TR/IPvXeTb+z7or/CaP5DmAA4f967ybf2fdFf4TR/IPvXeTb+z7or/AAmj+Q5gAOH/AHrvJt/Z90V/hNH8g+9d5Nv7Puiv8Jo/kOYADh/3rvJt/Z90V/hNH8g+9d5Nv7Puiv8ACaP5DmAA4f8Aeu8m39n3RX+E0fyD713k2/s+6K/wmj+Q5gAOH/eu8m39n3RX+E0fyD713k2/s+6K/wAJo/kOYADh/wB67ybf2fdFf4TR/IPvXeTb+z7or/CaP5DmAA4f967ybf2fdFf4TR/IPvXeTb+z7or/AAmj+Q5gAOH/AHrvJt/Z90V/hNH8g+9d5Nv7Puiv8Jo/kOUa7V6XQ6aep1mpq09FazOy2ajBLxbPx7pv8JbyYdGpz0+m2ndtzVQ4OvZ9e9DP+I8R9mQOc/eu8m39n3RX+E0fyD713k2/s+6K/wAJo/kOuW2vhkapzcdi9CalDslrNW2/9MF9p8P8MTptn/8Atbo/j/8A6/zgdqfvXeTb+z7or/CaP5B967ybf2fdFf4TR/IdcNi/DI1kZKO2ehVM49r0uscX7JJ/WfqnQn4THkw6R2V6fVbRv2HqZ8FDX14hn/Ejle3AHO/vXeTb+z7or/CaP5B967ybf2fdFf4TR/Icm0Gs0mv0sNXodVTqqLFmFtU1OLXg0bQHD/vXeTb+z7or/CaP5B967ybf2fdFf4TR/IcwAHD/AL13k2/s+6K/wmj+Q3ti9COhuxtQ9TsfopsLZ1//ADNNs+quftijkQAAAAAAAAAAAAAAAAAAAAAAAAAAAAAAAAAAAAAAAAAAAAAAAAAAAAAAAAAAAAAAAAAAAAAAAAAAAAAAAAAAAAAAAAAAAAAAAAAAAAAAAAAAAAAAAAAAAAAAB+D+Xv4ROwOgUrth7ChDbHSFZjOCl+I0r/8A3H2y/ur14OMfCz8us+jyv6DdD9UltWUd3aGtrlx0yf8A9cH8/vf6PpOmNk52Tc7G5ym8tt5bYHJun3T7pb052jPXdJttajWvPmVZ3Kq/CEFwRxgAAAAAAA/Q/JV5Yum/k81cPuTtOzU7Oyus0Gpk7Kprwz8h+KO7vkS8snRjyn7PcdDN6LbFUM6nZ90lvx8YP9OHieb5u7D2rtHYe19PtXZWsu0mt001ZTdU8ODA9YQfjfwbPLNo/KZsF6LaHVabpJoq18aoTwro8utgu7vXYfsgAAAAAAAAAAAAAAAAAAAD8f8ALt5dejfkzols+vG1ekE45hoq5cKs8pWv9FeHNnw/hTeW+ryf6CXRzo7ZXb0k1db3p81oq3+m/wC++xes6J6/V6nXay7Wa3UWajUXzdlltjzObfNtgcw8pnlS6aeUHWyu6QbYuely3Xoqn1dFa8ILn6XlnCQAAAAAADmXk28p/TPyfa6N/R3bF1dGc2aO2XWUWemL4etcTux5CfL10b8pNcNmalR2T0hjHz9HZPzbu91P9L0czz1LdHqb9Jq6tXpbrKL6pqyuyt4cJrimn3getIOvnwVfLhHp3pIdF+kt9cOkelr/ABVrePjta/S/bXau3mdgwAAAAAAAAAAAAAAAAAAAAAAAAAAAAAAAAAAAAAAAAAAAAAAAAAAAAAAAAAAAAAAAAAAAAFdtklNV1xTm1nL5JAWAq37ITirFFxk8KUVjD8UZttUGoqLnN8orn/sBYCpfGXzdUPDDl7jDlqIvLhCxf3Xh+x+8C4EarI2RysrHNNYaJAAAAAAAAAAAAAK77JQcIwScpvCy+HLP2AWAo6y6E4K2NeJS3Vuyb4+wvAAAAAAAAAAAAAAAAAAAAAAAAAH5b8JLykQ8m/k7v1umnFbY12dNs6D44sxxsx3QXH2H6keevwwOms+l3ld1mjpu39n7EzoaEnw30/xj9c+HqQH5DrNTfrNXdq9VdO6++bsssm8ubfNspAAE9PTdqb46eiud1tjxCutZbfckfY6DdFts9M+k+j6PbC0zv1mpnhd0F2zm+xJHoB5EfIt0Y8muzaraaK9ftyUF1+0bYJzz2qv5iA6g9D/g4+VTpHRHULYlOyqJ8VZtG7qv/wAFmf0HLbfgheUSNG/DbfRudnzOvtX09Wd3ozttzKvcjDsck25EqbHLejOO7OPNdnpQHm7068h/lL6G0WaranR2y/R18Z6nRTV1aXe8cV60fm74S4nrO7HanGmtTXJyk8R/3PwPy9fB02P0zpt250bjptk7eSc7IU0Yq1XhJZ4S/ve0DooDkPSLobtvYd11ep0zm6ZONqgvPg08NSjzOPAfb6CdKNq9Deleh6RbGudOr0diljssXbB+DXA9MvJ50q2d026G7N6TbMlnT62pT3XzrnynB+KeUeWR2r+AL01nTtLanQPV3fitQnrtFFvlNYViXpWH6mB3DAAAAAAAAAAAFDsulOaqjW1CW695tccJ93iSoslOU4TUVKDSeHlcsgWgAAcK8svTrR+TvoDr+keqanbXHqtLU3+Vul8iP2vwTOanR34dXTee2On+n6H6W7Oj2NWpXJPhLUWLP0QaXrYH4F0h2xtDpBtzWbZ2tqZ6rW6y523WT7W/sNAAAZhGUpqEItyfBJdpu7B2TtDb22dJsfZOls1et1ViqpqrWXNs75+QLyB9H/J9oqNp7Xoo2r0jkt6eoshmGnfdWn9fMDqh0K8gXlR6V6eGq0nR+Wh0tkcwu19ipTX7L4/Qc4/BC8ovUb/3b6NdZ83r7vr6s7yADzm6a/B98qPRaizU6nYHx/Sw+Vbs+zrkl34+X9B+V2QnXNwsi4SUsNNYaPW0/GPL35COjnlE2fftHZtFGy+kkYt16muG7DUPutS+V+1zQHnwD6HSPYu0+ju3dVsXbGls0mu0djhbVJYafu7cnzwN3YW1dfsTbGk2tsvUz0ut0litpthzg0ek/kQ6e6Tyi9ANB0hpcYalx6rW1L/670vPXo7V4M8yzsL8BvptPYflIu6Lam7Gi25XiCb4LUQy4NelZXsA70gAAAAAAAAAACF0+rhnDk28JLtZCUtRCO/JQklxcY5yvR3gXAhO2Ea1Y35r5Y7fQQUtRN5UIVx/vPL9i94FwKn8ZXJ1T9Tj7zNdu9LclCUJ9z+x9oFgAAAAAAAAAAAAACF0+qpnY1ndWSqc9TCEpyhTuxTbxJ5x7ANgGIveipd6yZAAAAAAAAAAAAAAAAAAAAAAAAAAAAAABVZvwtVsYuUWt2SXPwf0stKboqd9cJLMWpNr2AYlKV0oxjCSgmpSlJY5ccIzpFmvrX8qzzm/DsXsMOuFV1XVxUd6TTx28GZ0z3V1En50OXjHsf2AYU7rZS6rchCMnHMk221wfDgZ39RD5VcbO5weOPimHVOEnKiSWXlwlyb+wK9JqN0HW3wTfFP1gSorcIec96cnmT8StVwtut6yO9utJZ7OCMNUyvs67deGt3efZhF1Maop9SopN8d3vAhRFQvshFYilFpe0uKba9O571qr3sc3zwV/iq9RB1uKhuyc8Ph2AbRhyinhySfpKYxnet6xyhW+UE8NrvfuMujTJpOmrL74rLAuBS6NzzqH1b7v0X6uz1E6rFODbW7KLxJPsYEzDlFc2l6ymO9qPO3nCrsS4OXjnsRl0aaON6qrj85Jt+0C4pv/AC+n/bf/AGsPTxjxpbql/d5ezkV9Y7J6eTSz1kk8PK+S+QE9V8qj/FX1MvKNY0nS28JWrj6mFvah7zzGnsXJz/2+v6wvBq3V0Rkq4UxlY+S7vF+BfRX1dai3l+jAEwAAAAAAAAAAAAAAAAAAAAHxume1obB6I7W21Y+Gh0dt/wDpi2jyw1upu1esu1d83O6+x2Tm+1t5bPRz4UWqej8gnSu2Lw5aRV/67IR+083QABPS1S1GpqpjzsmoL1sDvN8CfyfU9HegC6Wa7Tr7qbb86uT516ZfIXrab9h2FPndHtn07J2Ds/ZemSjVpNNXTBJdkIpH0QKKpSpj1U4TajwjKMcprs9ZCasm8yTg7ZKCWeKist+vmSqqrt35WQUnvyWX6SO61GfVr8lanGK7sLK+lgX2zVNOVHKWFGK9iRDGrfHepXhut/Tn7CT6vUU896Eu7/3mR/4ivsV0fZL3P6AOqHw4dg6jZOk0vSfZul6iG0LPiu0JweUpJZjJftLKfoOor5M9GfhT7Po2z5Buk9ckt/S6daqKksOLrmny9GTp9Xsvo+6450Wz84+ZECX3C2N1GfuZpc7uc9Wu4435CdvT6NeVzoxtiM9yNeuhXY//ANuz8XP6Js5xhbuMLGD5+k2dsCrV02w0Wz4yhOMo+ZHsYHoiuIPl7H1EpbK08opSnZFOK7Md/owby08Zcbn1sv73L1LkBapRfJp+syUqjTSzu1VemKSa9hh7+n87ec6u3PFx8c9qAvBC6zcisLelJ4iu9kFQpedfLrJd36K9XvAtUot4Uk36TJSqNK20qqsruisojJPT4cZuVbaW7J5a9D+wCWm/Kaj/ABf/ABRij851H7Uf+1GdN+U1H+L/AOKK1aq9ResOU5SioxXNvdQG0CmNCl51+JzfZ2LwRVCuu2xOmEY1xfGaXyvR4eIFuquhp9NbfY8Qqg5yfglk8senm2bukHTTbO27pudmt1tt2X3Obx9GD0v8qWqlofJp0o1led+jZGrsjjvVM2eWwAAAdwvgIeTyinZOs8oO0dOp6nUTel2dvR+RWvyk16Xw9T7ztYcM8iOyq9i+SLops+qMVubK08547ZzgpTftkzmYAAAAAB1c+HZ5PaNX0f0/lA2fQlrdHONG0Gl+UpfCE34p4XofgdND1D8ruyq9t+THpJsu2CnC7Z12E/nKDa+lI8vAB9Tolta/YHSnZe29M2rtBq6r4Nf3Jp/YfLAHrNotTXq9FRq6XvQvrjZB96ayjYOJ+R3VT1vkq6LaqzO9ZsvTt5/w0csAAAAAAAAArvjJxjKGHKEt5J9vgRldOUcV1T3386OFH0v3GdV+Rfi0vpRXqKaq6LJwgoyjFtNdgGaK11rT4qlKEfTji/qJ22WO3qqlHeUd5ylyS7PTyZjPVah7zxCzGH3S5Y9fAlbU5TVkJ7k0sZxlNdzQEW9TDi1XYu6KcX9LZmqMpWO2xYfKMe5e9mOtsr/LV4XzocV70RuddllW84utpvnwfLAEr4qd9cJLMWpNr2EXXCq6rq47u82njt4MlVXp1PeqVe9jmueCd0apJdcotJ8N7vAmDUvjRCvep3FPejjdfHmi1yndNwrk4Qi8SmubfcveBa2lzaXpMpprKeSl6fTxWZVwfjPi/aw9PVzrXVvscOH+zAuBVVOSm6rcb6WU1ykjE5TssddT3VH5c+7wXiBc2lzaQTT5NMp+L0JZnCMu+U+P1j4vQ0nCKg+yVfD6gGu/M7v2GS1f5rb+xL6jX1Ep/FtRVNqTjW3vLu8fE2NX+a2/sS+oCVX5KH7KJGtGcrYxqpeEkt+fd4LxM21aaqG9OtPsXa2/tA2AU6WpwzNxUN7lBdn+5cAAAAAAAAAAAAAAAAAAAAAAAAAAAAqn+dVfsy+wtKp/nVX7MvsAXflaP23/ANrJW1wsSUly5NPDXoZDUyUJ1Sk8JSbf+lmE9RJdZFKPHhXLtXi+xgZxqK/kyV0e6XCXt5EoThdCScfCUZLl4MitRHlOu2D7nBv6VwFG9K6y5wcIySjFNYbxnj9IEa64xtdM4qccb0HJZwu1er7SWnjGNt6jFRW8uS/uozne1iS/Qg8+tr3GKnjU3R/Zl9GPsAwoQlq7XKEZPdjzXpF8Ifi64xjFTmk8Lmkm8fQJzVOplKaahKKxLGVlN+9GLrYShG2uSkq5KT9HJ/Q2BPUzlGtKDxKUlFPuz2iOmoUcOuMs83JZb9LM3wdlXmNbyalFvllEVqFjz67Yy7VuN/SuYGKfxV7oTbg470E+zsa9HIq1r3b4QWfx63Jepr7Gy6mMp2yvnHd4bsIvml3v0/YU6tOy7fim+oSlw7XlPHsX0gbGpm66XKKW9wUfS3hEYaalLzoKcn8qUllslbFX0NRkvOScZePNMjG/CxbXZCS54i2n6GgMfFo4cIzlGt84Ll6PBC5KN2mSSSU3hf5WN++eZV1qMVyU+Dl7iMrFZdp2k4tTaaa4p7rAutqrtSVkVJJ5SfeR1Nsq1GMV503uqT5L0kdZK2KrVUlGUrEuKynwfAlXON9coTjhrhOD7AJU1KtPi5SfGUnzbJlEZSpkq7G3B8ITf1MvAAAAAAAAAAAAAAAAAAAAAAPzH4UumlqvIH0qqgsuOljZ/pshL7DzfPVLp7sePSDoVtrYjjn49oraY+lwePpPLDUVTo1FmntThZXNxmn2NcwIFujulp9ZTqFzrsUl6nkqAHrBsXWU7S2PotoaeW/TqaIWwfemk0bx+E/Ay6fVdKfJjTsDU3J7U2F/w84t+dOj/wCuf2eo/dgKtN8if+JL6xR8u7/E/wDFDTfIn/iS+srVjjZbCuO9ZKzguxeauL8ALJ0rec65Oub5tcn6URdtlX5aCce2cOz0r/8AUb11T89O2HfFcV6u0S1EXFqFdk5PlHca9ueQHBPhELT2eRzpFRbPcep0j08JrmnY0vZxPNXUVSotspsilOuThJdzTwzvJ8KTpVWqNB0Q01qlKjF+tafBNR8yP0t+w6RbXuhqdqazUV/ItunOPocm0B+w/wD+N/k+w/GtDW7dXRXBcZ2RS9p+x6Wcb9FVZF5jZWpJ+DRw/wAlHRPX7U8rPR7Yeo0dqjPaFbsbg93chLek0+7EWB6R9Hqeq2dp65JZp09VXoxBN/X9BuTir9RKuXGuCWY/Ob7/AAFOIXzgsbtiU4vv4Yf2GbN6q52xi5QksTUeaxyfiAnpqmvNgq5L5MorDRLTz62iMpJZfCS7MrgyMr8rFVc5TfLMWkvS2SrjGjTpSlwisyl9LYGvoXvXTi8vqV1cc+l/YkW2rrb+obago70kv0s8EvRwZXpIuu5ua3Xet7Hc8t49j+gttUoXK6EXLzd2cVzx2NfSBmWmoccKqMccnFYa9DEKcTU5zdkksJvsMPURx5ldspfN3Gvr5GOstrw7opxfNw/R9Ph4gZ035TUf4v8A4onGquNsrVFb8uDl2kNLxnf/AIn/AIord1sNTc5edTFpNJcY8OfoAlJvUWzqeY1w4SXbL/b6zYSSWEsJFdsFYo2VySml5slyf+wps38xkt2cflR/97AOOeVaies8mHSrS1/Lu2Pq64+l0zR5cHrNrdPXq9FfpbVmu6twkvBrB5XdMNlXbC6V7W2LqI4s0Wstpa9E2gPlAAD0/wDIztOra3kn6K6+ppqzZWnT8JKuMZL2pnLzrD8BPp9TtDotq+gmuuxrNmzd+iU3+Uom+KX7L/7js8AAAAAAcY8qm0qtj+TfpHtO5pRo2be8+O40vpZ5cHdj4dHT6nZPQyjoPorl8e2tKNuqinxhp4PPH0zS9jOk4AA+h0b2ZdtrpDs7Y+mWbtbqq9PBeM5pfaB6X+RnTz0nkm6K6ez5cNlafP8AoRy81tm6WrQ7O02ioW7Xp6oVQXhFYRsgAAAAAAAAVav8j/mj/wByGr/Nbf2H9Q1f5H/NH/uQ1f5rb+w/qAsnGM4uMkmnzTKuqtr/ACVmY/NnxXqfMxvWWyaqe5CPDeazl+HgZV0o8LqpxffFOUX7PtAzXbvT6uyDhPGcPin6GQsrjXbGSinCcsSjjgm+TG87r63CElGDcnKUcZ4NYWfST1LyoQ7ZTjj1PP2ARcIR1dTjCMXuy5L0GdRGMraFKKkt581/dYteNTS+/ej9GfsGpbi6rN1yUZedhZaTTQC6NdVM7I1wTjFtYRKEVTQk3whHi+/vZCVlOornVGablFonTLraE5Li1iS8e1AV0UxnBW3RU7JLPHju+CE4R09kJ1rdhKSjKK5ceT9ORVY6Yqq2M/N4Kai2mvVyYe9fZDzJRrg95uSw5PswvpAzrpKupXdtck/bwf1ktIsaaGeclvP0viyOsSsjGjnvyWfBLi/s9pLSP8RGL+VDzJelAV0VxvitRbFTcuMU+Kiuwm9PFS3qX1TfPdXB+ojVJ6ePVThNwXyJRi3w7ngl1s7JbtMGl2znFpepdoENTXGvQXRiv0G23zb72bE4qcHGSymsM1dTZJ6S6uyO7PcfofoZsaiTjp7JReGoNp+oDEtzT6d7lb3YLhGKI0Q3mr7JKU2vNxyivD3mNNbPza7sdY1lSXKa9/gJRdEnOCbrfGUV2eK9wF4MRkpRUotNPimjIAAAAAAAAAAAAAAAAAAAAAAAAAAACm7Mba7N2Ukk091ZfHBcQssUHFYcnLklj7QKp/j5wi6pqKbb3ljsa+0kuuq4JddD0+cveWVzjZBTi8prKJAU/GIJedG2L7nW/sQdtk+FNUv2prC9nMuK7Loxk4qMpySy0uz0vkgM01quLWXKTeZSfNsjdCe+rasb6WGnyku4xG/LW9XOOccXhri8c0y4Cn4xFL8ZXbB/sN/VkxW1ZqHZFS3XDde9Frk/H0ssttjXjezxTfqRhWwdvV8c8vt+1AQUbKOEI9ZX2Rzxj6O9GfjFa5xtT7url7i4xZJQg5PkgKnO2zhVBwXz5r6l7yyquNcN2Prb5t95Gu1SluuEovGVlrl6mWAUbllLbqW/W+LhnDXo9xn4xBfKjbF9zrb+ouAFLtsnwqql+1NYS9XMhOp1uqfnWNTcpvtfBo2QBrWSd06lGuyO7PeblHHDDLLq3Jqyt7tkeT7H4PwLQBRK1Sg42ae3isNbuUNK58YtT3V8lyWH6CWpvhRXvzzj/wBYpvhbJxSkmu9YAtAAAAAAAAAAAAAAAAAAAAADzr+Fh0Ln0O8sG0pVUuGz9qzev0r3eHnvz0vRPPtR6KH4/wDCo8mn3w/J5OWhpjPbeyt/U6HvsWPPr/zJL1pAeeIJW1zqtlVbBwsg2nBrDT7iIHJfJp012z0B6W6XpHsWxK6l4sql8i+t84y8GehXkg8qnRfylbFhqtj6uNWvhBfGtBZLF1L9HavFHmgbWyNp7R2Tr6tfsvW6jQ6up5hdp7HXNetAerkJurei6rHmbeYxyuLEKnNztTlXJyzF+GEuK9R0b6I/Ca8qmxdkV6natWz9vaJS6tXalRjZnj2wab5P5UTkl3wx9sypxV0K0Ct73rJtezAHcJW2Q4W1N/3ocV7Of1n5L5avLr0T6B6a3Z2n2jTq9vSWIaaMZT6rPbNJfRzOqnTr4SPlO6UaezSVbTr2JpLFh17Oh1c2v8R5n7Gj8evtsutldfbOyybzOc3lt+LA5j056d63pDqNTOM7W9VNy1F9j/GWtvjhdiOGH1dL0d2zqaI3V6NqM1mG/OMHL0JvJpa/Q6vQWxq1lEqZzhvqMms4y1n6GByXop0sjoNNDQ7QhOdMOFdsFlxXc12o7RfBD0Oi2vtXW9La3Zbp9JF6aifUzx1sl52OHZF4/wAx1D6KbB2l0n6R6HYOx6Hfrdbcqq4Lvfa/Bc2elnkr6KbN6A9BdB0Z0OHHR1N3W4/K2vjZP1yA5PVTnS1wblGUPky7V3fQSVtkOFtTf96CyvZzRZXNTTaysPDT7GSAp+MQfyY2yfcq2vrMbll0k7VuwTyoZzn0+4nZaoSUVGUpNZwmvtZKuanBSXIBbXGyG6+HamuafeVqy2vhbW5r58Fn2ouAFPxmt8ErG+7q5e4w1ZfwlF119qz50vDwReANeEnTZanXZJSnvLdjnhhL7CWnTdltji4qbWE1x5YLgBRuyolmEXKp84rnF+HgQunv4lGq6Nkfky3PofgbRr2auuu11yUsrjwWe73oC+ttwTksNrijon8OLoXPYXlOj0nopa0W3a1KTS4K+CUJr1pJ+tneuuSnBSXJnAfLx5PtP5SPJ5rdgvchrY/j9DbL/wCu+PL1Pin6QPNEGztXQazZe09Ts3aFE9Pq9NY6rqpxw4TTw0awH1uiHSHavRTpHoukGxdS9PrtHYrK59j8Gu1Pk0egXkL8tHRvyl7LrqWop0G3q4f8Rs+yeJN/Orz8uP0rtPOcu0eq1Oi1Nep0mou099bzCyqbhOD700B60A8/+hPwnfKZ0e08NLrdVpdvaetYS11f4zH+IsN+vJzj8MjbPU7v9CtB13f8cnj2YA7kH5d5bvLH0a8mWyLFdfVrdu2QfxXZ1c96bfY7MfIj/wCo6pdNfhP+Uzb9Fmm0Gp0mwaJ8H8Sr/GY/bnlr1YPxXW6vV67V2avW6m7UX2PM7bZuc5vxbA+n016TbX6YdJ9b0h25qXfrtZPfm+xLsgl2JLgj4wAA/ePgS9C59IfKotvX0uWh2DX17k1w6+eVWvrfqPw7Z2i1O0NfRoNHTO/VaixVU1wWXObeEkekPwfPJ7R5N/J3o9jzjCW0r1G/aNkf0rWuXoXJAfowAAAAAAAAAAr1MXKlqKy8p49DTK7rHZVOuNVqcotLMeBfZJQg5PkiNVisykmnHmn/ALAQddlbcqWmnxcJPh6n2D4wl+Urth/kb+rJcAKev3vyVVk34xcV9JmquW+7bWnNrCS5RXciVtka0t7Lb5JLLZBXtvDos544Yf1PgBO6vrIYzutPMX3MgrpR4XVSTX6UVvJ+ziWwkpQUo8msoTkoRcnyAonZG6VfVqeYzT4waWOT5rxJTrnGbspxl/Ki+UvHwZl6itKLeeP0ccfWWgU/GIpefXbB/sN/VkO6UuFVU5Pvkt1fTxLipXxbXmS3W8KWVjPtyBmmtxbnOW9ZLm/sXgYsrkp9bU0p9qfKX/veWgCnr0l+Mrsg/wBlyX0Dr95fi6rJv9lxX0lwA1rqbLKbZTadkoNRS5R8P9zN1rspnWqbcyi0sx8DYAFcqlOmMJ80lhrmn3ohG2yC3ba5ya/Sgsp+4vI2TUISm+SWWBRU2rvxddkYS4yUo4SfejZNerV12SSSkm3jlw545+k2AAAAAAAAAAAAAAAAAAAAAAAAAAAAFGsS3a/8WH1l5VqKpWbji45i8reTayBp11JaeFsYwjBySUUnvJN4+VnOfAqblCuW/wAZRk05RXGS4pfSvpRtLST6zec685zlRfPvxnGfHBi/8VZGNeIuEGouSb3m+XZ38QLNHB70p+akvN81Yy1zftya6eZLrIKfypJPk5b2HnvwsG7p4qNEIpNJRXMrv02+24OPF5akuGe9Y4pgaitSlOca4LcW/OMd5Zx24aS7CNs5OSbdMpOCk9+Sby+OMN8F6DajpJ7rj1kYxfCSjHn6W+Is0bb81xceS3s5S7uDWV6QNWM1LfcZV2xdLxl76i+GY57f/wBCcafPWnzHhY/P3eLxGL/98DZnpW4YUottNSyuDTxw4cuQjppRsjLfTw95tp5zhLv8ANTKVkVKKisZlFR4ebne+zHpRu01uOmamlmSy4pcFw5Gu3v3SjhJStTcMPOF6u9L1I3bYudcop4yuYHz6YJ1xeFw6pNNc00l9phx3YOeFutTlHdbUvN73ntL/ilmYverW7jCSeHjlnj2D4pPDW9W8pppqWEnzxxAosnPSyeN3eWPkrCeU+a9K5kpVt1XW+a1W2nvZ3pY5+dnh6iyWilJOM5QkpYy2nnh6/FmZ6Sblnfg/GSeX6VnD9YFNnmW2xjwhHCUctZb3cZ9bJXV9TKSkq5Pq3KOI4Sw1zWePMami2Ldu9Bylwk9xuL4dqzyeFyK9PG2TlD8X5yS81uT58223hY5LxAjOUluZdU261Lz5JtZ5LDfBePaOu3koqytx3OHnb8Yz7n3rnz7zbt0jb8xxx45TS7sprh4MS0b4tSi21utNPGPDD4AQ0kI2xlCyMcOPKLynz4o2qqa6m3COG+ZDS0dVxbWcYSWcLjl8/EvAAAAAAAAAAAAAAAAAAAAAAAAA6k/C58hd192p6f9DdHOyyfn7U0NUeL77YL616zqO1h7r5nrbJJrDWUdbvL98GjZ/Si6/pD0I6jZm155sv0kuFGpfevmT+j0AdIwfX6WdGNvdFdq2bL6RbK1WztXD/67oYyu9Pk14o+QByHYd9Om6L7Quu0sNTu6ivchZnc3sPDku1eBnT6jT63Zmp2jLZmihqNBKEsQq3arYze7uyjyyuaZp7O23PRbOloYaHS212Szc7E31i48Hx4Y8O4q1+1pX6P4lptJRo9M5b84VZbm+zeb4vAH3p1aSnaur2g9Bo5bOjoo3VRdKw975C8Jb2U/QfC2F1Or6SaT4xXXCuzUJuEY4hz4JLuzhYN/auojX0S0ez69o6bUSja5WQrk95Li4rlxSy8+ODj0W4yUotpp5TXNAfZ1tctobX1tu0dpVaS6Fzio2qTwk3wWE8JH19F0e1u1dvbKo1Gqe0/jVUnTGtPfsjHiorKTw3Ln6T7Hk56L9LvKPtKGn2T0V0u0ro7sbNffFwqhjlKyS4P0czud5IfI1s3oXVRtHal1O0+kMIyitZGvdhRlrzaovkuGM8wOP/B28llPQjQR21trTbKp29qobqlp1FLSQa4Vp85Pvb9B+xyi56ZNxgnCE5YcefHk/tNmGjalxcFHl5qfLuWW8eolPSOUmt5KLUlwTzx5rmBTKGZztahuuxwa3eC7E/bjJDTJ2tRxxbxmS4xwvOx6+HtNi2uVenu3lGTszlLKXHt7SWkzK2c297goqWGsrt9ec/QBjXpZqeOK3v8AsZQ618lJZar3c54Zznl2cORtaimVk4yi4cE1iSbXH0MqWjmljfi08cWnlY5Y49mQKlXJy3FuZW/nKbj5uOUc9uV7CCvk4uvjuqKklvPt3cJvnhNmz8Un/wAyKxnik8vPPPHwMR0bzvNwT3d3EYvDWMYab48EBXbV1TlvKuT6qUo4i0k13rPEUwlbJQcotqO9ma3uGWkkvVxLI6SxRkt6vEouLTUnlelvK9RrXV21y3M1tJvG+3F8e6SfFPuAlHLsphB7jk5KUk23wbzhvs4MrqtWYSnPT1xf6cbF5vdxz53rNnTVStinNpbscRlCOEnnPDPYuC8SUdHJS+VCK/up5XoTeF6gNWNk7HXKSqlNvz4SeG3nhh+juN2vT020wlNb+Y4bfb/7gh8TknDddbUH5uU8888cPibVUFXWoJt47X2gZhFQiox5IyAB1t+Fn5Dp9LdPZ0z6KabO3NPX/wAXpYL88glzX/7i+k6S31W02ypuqnXZB4nCaw0+5o9bD8H8v/wedidPuu27sF1bH6RtZnPdxRqX/wDuJcpf3168gdCQci6edCOlPQfastm9JdkX6G3LUJtZrsXfCfJo46AAAAAACVdc7bI11Qc7JvCgllt9x97oP0M6S9Ntqx2b0a2TqNfe/luKxCtd858kjuj5Avg67F6CTp230kdO2OkCxKvzc0aR/wBxPm/F+oD4fwSvIbLoxXT056W6Vw2zZD/gdHYvzSD/AE3/AH2vYjsyAAAAAAAAAAAAEbeNU0/ms0NPSrV5iri1XDLnHey91ePBG/bFzrlBPGUastJZLGXU8JRSSksLu4PivSBree3wW8p1pw3uLjLD4Z7uD9qLdIutnGUcYfn7zXnbueHtw/UWaivqqMZ86Uk9/HCOOWEu7uLdHx6ybSzKfBru7PoAp1TfXyUvk+ZFvui8/W0kVOS6yEY1V1Sb3Y4Uov0ZUcG7fSrOKaUsY4rKa7mu1FENJZF5U4QfY4ptr0ZbwBr2WucFwrSjN1qMpLCSXHCfNkYTy4LfqbVi3q4yUljKxLGeH/6G3LSeb5sllveaecZ71h5TJQ0rUMOSz2YTwuOc975Aaso7rnPdrfWKXBx5eel/v6RfF0Jx4txaW8l50k1hfTw9aNh6STTzKDbzlNPHFpvHHPNGNRKULY4aUowaUpJvebxjkuWQJ6OHnSn5qS83zVjLXN+3JTuKWpnHlmyfFfsxNzTxUaIRSaSiuDNeWkm28TgvOct5J72faBQopwVijDChBzWHxb5448DElKuO+mnxmovjvZinxb7c45F/xSePlVrCSSSlhpcs8Q9JNvLlW223hp4WeeOPiwK63LVTTe7lxcvOW8kstJJeojhp0xhiEpSlGUk2+UkuGeznwLnomoKMZRwsvjnhnnhp5wYt0tnVrzovq09zcjhrt7/BAVxgnVVe1DcnKPmrKlhvh52ePiVuUurcs1463cUZPEVwznDfF+HpZit2K+Mn1LxLOYp5fojng39rNtaRumPGKm1mSfLPfw4p8QNSN26t1TrWZpThCa+R34T4d3As0vG1KXVOLljer4Zyn5rXZ6y+OkaUW5xUoy3kknjPe8vLM0aRwnvScEspvdzxxnHNvC48gLIaamM1NQ85dvryXAAAAAAAAAAAAAAAAAAAAAAAAAAAAAAAAAAAAAAAAAAAAAAAAAAAAAAAAAAAAAAAAAAAAAAAAAAAAAAAAAAAAB8XpR0a2D0p2a9n9Idk6PaWlf6GoqU8eKfY/QfhPTT4JHQvalll/R3a+v2HOfHq5RWoqXoTaf0nZAAdINr/AAQunVE39ztvbF11fZvudT9mH9Z8qPwUfKk5Yl9xUu/45/sd9AB0r2H8D3pXfYvuz0p2Voa+34vVO+X07iP1voL8FrydbAsr1O1vjfSLUw4/8U1CnP8Ahr7Wz95AGnsvZ+h2Xoa9Fs3R6fR6apYhVTWoQivBI3AAAAAAAAAAAAAAAAAAAAAAAAAAPn7d2Psrbuz7Nn7Z2bpdoaSzhOrUVqyD9TPwvpx8FHoBtmdmo2Hqtd0fvl+hV+Oq/wBEuP0nYQAdJtt/A/6Y6ex/crpJsjXV9nWxnS/Zx+s+H+Ch5VN7G7sXHf8AHP8AY76gDpLsb4IHTTUTX3V6R7G0MO3qozua9WF9Z+p9CPgn9A9j2V6jb2t2ht+6PHcsxTS/8seP0nYcAfN6P7D2P0f2dDZ+w9maXZ2kh8mrT1qEfoPpAAAAAAAAAAAAAAAAAAAAAAAAAAAAAAAAAAAAAAAAAAAAAAAAAAAAAAAAAAAAAAAAAAAAAAAAAAAAAAAAAAAAAAAAAAAAAAAAAAAAAAAAAAAAAAAAAAAAAAAAAAAAAAAAAAAAAAAAAAAAAAAAAAAAAAAAAAAAAAAAAAAAAAAAAAAAAAAAAAAAAAAAAAAAAAAAAAAAAAAAAAAAAAAAAAAAAAAAAAAAAAAAAAAAAAAAAAAAAAAAAAAAAAAAAAAAAAAAAAAAAAAAAAAAAAAAAAAAAAAAAAAAAAAAAAAAAAAAAAAAAAAAAAAAAAAAAAAAAAAAAAAAAAAAAAAAAAAAAAAAAAAAAAAAAAAAAAAAAAAAAAAAAAAAAAAAAAAAAAAAAAAAAAAAAAAAAAAAAAAAAAAAAAAAAAAAAAAAAAAAAAAAAAAAAAAAAAAAAAAAAAAAAAAAAAAAAAAAAAAAAAAAAAAAAAAAAAAAAAAAAAAAAAAAAAAAAAAAAAAAAAAAAAAAAAAAAAAAAAAAAAAAAAAAAAAAAAAAAAAAAAAAAAAAAAAAAAAAAAAAAAAAAAAAAAAAAAAAAAAAAAAAAAAAAAAAAAAAAAAAAAAAAAAAAAAAAAAAAAAAAAAAAAAAAAAAAAAAAAAAAAAAAAAAAAAAAAAAAAAAAAAAAAAAAAAAAAAAAAAAAAAAAAAAAAAAAAAAAAAAAAAAAAAAAAAAAAAAAAAAAAAAAAAAAAAAAAAAAAAAAAAAAAAAAAAAAAAAAAAAAAAAAAAAAAAAAAAAAAAAAAAAAAAAAAAAAAAAAAAAAAAAAAAAAAAAAAAAAAAAAAAAAAAAAAAAAAAAAAAAAAAAAAAAAAAAAAAAAAAAAAAAAAAAAAAAAAAAAAAAAAAAAAAAAAAAAAAAAAAAAAAAAAAAAAAAAAAAAAAAAAAAAAAAAAAAAAAAAAAAAAAAAAAAAAAAAAAAAAAAAAAAAAAAAAAAAAAAAAAAAAAAAAAAAAAAAAAAAAAAAAAAAAAAAAAAAAAAAAAAAAAAAAAAAAAAAAAAAAAAAAAAAAAAAAAAAAAAAAAAAAAAAAAAAAAAAAAAAAAAAAAAAAAAAAAAAAAAAAAAAAAAAAAAAAAAAAAAAAAAAAAAAAAAAAAAAAAAAAAAAAAAAAAAAAAAAAAAAAAAAAAAAAAAAAAAAAAAAAAAAAAAAAAAAAAAAAAAAAAAAAAAAAAAAAAAAAAAAAAAAAAAAAAAAAAAAAAAAAAAAAAAAAAAAAAAAAAAAAAAABrqqF1trs3nuzwsSa4YT7DOmShbbXHO7FrCbz2AXgAAAAAAAAAAAAAAAAAAAAAAAAAAAAAAAAq1DluxhGW7vyw33Ln9hienrUM1/i5LipJ8fX3gXAo62c4wjWkpzipNvlFGVp6282b1r75vP0cgLgVPTU81DcffB7v1GKnKNzqdjsSWctcV4NgXAhZYoSUd2UpNZxExC5SmoOE4N8t5cwLAAAAAAAAAAABXqpOOmtlF4ag2vYVXaeqNU5xU1JRbXny94GyCNTbqg3zcUSAAAAAAAAAAAAAAAAAAAAAAAAAAAAAAABQ4K2+as4xhhKPZyzl94F4KNxU3w3OEZ5Tj2cs5XcFv6jzlJwq7Mc5ePggLwVLTUJfkoy8ZcX7WYlRCCcq5yqa48+HsfAC4ENPNzqjOS4vwxnxI9fnO7VZJZxlJY+sC0EapqyOVlYeGn2MkAAAAAAAAAAKboqy+Fcs7u5J4Ta45Xd6QLgayrjTqalXvJSUs5k39ZsgAAAAAAAAAAAAAAAAAAAAAAAAAAAAAAAjbLcqnNLO7FsCQKIaetwzZ+Mm1xk3x9XcYjY665RebJRnuR75dq/8AfADYBSqHPjfNzfzU8RXv9Zl6ahrHVQXilh/QBaDXknTOChZKSk8bkuPsfP2l1k1CO8888cAJApd+OMqrIrvaWPrLgAAApVt3bpp48JR95Oq2FmVFtNc4tYa9RW7rY5lZp2od8ZbzXqJWwjbCM4SSklmE1/7yAtKpXx3nCEZWSXNRXL0vkit2yujCuOYSkm598UuD9eeBbKVenrSUeHKMYri2BFW3dulnjwlH3k67YWNxWVJc4yWGV9bcuMtM93wkm/YRsnG9wjSt6Sw9/luf7+AFlH5S/wDxP/FGKfzm/wDy/UZo/KX/AOJ/4oqcLpam2MU4QljM/VyQFzuW84whKxx57uOHtZh3OON+qcU3jLcfeJSr09ajGPhGK5tmKq5OfW3Yc+xLlH0e8C4AAAAAAAAAAAAAAAAAAAAAAAAAAAABXqFB1PfzjhjHPPZgol1ri1d1vVr5XCKyvHD+ou1f5H/NH/uQ1n5rZ+ywMUJddd37yXqwsfaQvUJapRv/ACbitxP5LeXn18iy2E42ddWsvGJR+cveI2VXJ1vGWuMJrj7AMPTU5zCKrl86HAyt2nzIxlOcsyeMZfjx9RjqHDjRY4f3Xxj/ALeor37Hcmq11sItOLlhNNrin6gJx35aqM3VOEVCSy2uba7n4Gb1NX1TjXKajvJ4a4Z9LFdtrvVVlShmLkmp55NeHiZvtnCcIV1qcp55yxjAGetaa36pwTeMtr7GSsshXHM5Y7F4lM3dKP4yqEIxak2p55PPcS08HL8fYvPkuCf6K7veA6618YaaxrvbS+0dfKKzbTOC7+El9A6+U89TU7EuG83hP0Ga7m5quyDrm+WXlP0MCyMlKKlFpp8mhOUYRcpSUUubZTJdRapx4VzeJLsTfJitdfY7ZcYReIL0doGevlLjXRZNd7xH6x1048bKLIrvWJfVxMzue+4VVuyS58cJelmFfutK+Dqzyecx9oDUyjPRWyhJSi4PDXoJ6j8hZ+y/qNaxb1GotjBwhKDwn+k+/HYbN6bpmkstxePYBiEow00ZTaUVFZb9BhWyayqLWn6F9bK9PXOcYTvWN1Ldr7n3vxJ2WSnJ1Uvzl8qfZH/cCddqnNwcZRkuLTa+xkyNVca47sV4tvm33skAAAAAAAAAAAAAAAAAAAAAAAAAAAA1701dmrf6zHHdxxXjlmwVL87l/hr62BRPe3LZT3+t6uW7vY4LwwzbgoqCUMbqXD0FcuOrin/y39aIxctOtyUXKpfJklndXc0BXpa6LYZtjGd2Pxm+stP7C34tXjdi5Rg+cE+D9xlwpvSn5s+6UXxXrRFq6ripO6Han8pejvAl1rfyKpzSbWU1jh6WNJGUacTi4tyk8PHbJvsK6ZWqH4quFkG3JS38c233FunsdtSm47ry01nPJ4+wCul2VuxOibzNtNOPFP1ltc95tOMoyXFp4+wqV105T6uiLjGTjl2Yzj1EZO3f4pQnbiPB53Us5f0gXTujGe5FSnP5sVnHp7iPW3f9LL/XH3km69PVyws4SXFt/ayPW381pnu+M1n2f7gZhdFzUJKVc3yUlz9D5MtK069RU01lcmnwafvKutlVCdcvOsi0o5/Szy/98ALrbYVtJtuT5Rist+og7buzSzx4yj7zNcI01ynKWXznN9pHrrpcYaduPfKSTfqAlG+O8ozjKuT5KXb6+Ql+dw/w5fXEhZfXOtwdblN8Ora4593iK4yjdTGbzJVSz7YgSt/OqP8AN9ROy2MJKGHKb5RXMq1St66l1Q3n5yy+S4c2ThCFEJTnLLfGc32gHbJLLosSXbmPvLK5KcFNcnyKVGWoe9YnGpcoPnLxfuLwAAAAAAAAAAAAAAAAAAAAAAAAAAAB8VhgAaketUUqet6v9HhF4Xhl/WSqUOtpUU93dm1nnvZWfXzLNH+a1/sorrrc9OnF7s4zk4vueWBLWPEIbzkq978Y13Yf0ZwZWm00opxqrx2OKw/ajMb4p7tq6qfc+T9DD08E96tuqX9zk/VyAwoRp/GSlOb4RWXx58iN7ssjGKosXnxbbceCTT7yNrsxGuxRzvJxkuCk0848HwJSuvg4udEVFyUW1ZnGXjuAnrIynp5RhFylwaS7eJnrZ/8AT2e2PvM6izqqZWKO81yWcZK9/Uvh8Xh//E/2AtU4utWZSi1nL7ivr3JZqpnYu/gk/aQphv4jLjXUlFL50lzZZZdifVwhKyaWWlyXpYFpTo8dRw+TvSx6N54MOm6Xm2ahuPdGO636yVs40wjCEU5NYhBf+8gKdH+d6nuyse15+ktl+fR3v+W93054/YQdbpjCyOZyimp98k+Lft4lso131xkpeMZRfFAWGIuPHda8cFPVXvhLUvd8IJP2kbq66YRlXmE1wju8XLwfeBZR+Uv/AMT/AMUTVkHZKtSTnHDa7Vkr02d67PPfWf8ATEr6vf1N0ovdsju7svV9QGX+J1MrLPOjPhGb/Q8PR4myVVTVqlXZFKa4Si+P/wCqIJvTNRk26XwjJ/o+D8PEDYAAAAAAAAAAAAAAAAAAAAAAAAAAAAAVav8AI/5o/wDchrPzWz9ljV/kf80f+5DWfmtn7LAnOyEMb8lHPLLFlddkcThGS8UU07krZ9bxteVuyX6Ph4EuolD8ja4L5rW8kBhb1N0Ib7nXY2kpPLi8Z59xnUrEqprmppep8MfV7DNdLU1ZbY7JpYXDCXoRGTV18Yx4xreZPx7gMy/PYf4cvriLfzuj0S+wah7lldr+Ssxk+5P/AHSJXVuzdcZbk4vMXjIEdd+aW/s8SWp3vi1u5ne3HjHPOCEusUowtlCcbMx4Rx2elmdPNr8TY/PiuDf6S7wLKd3qYbmN3dWMdxXq8bkPndZHd9q+zJjqJwz1FrhFvO645S9BKulqastsdk1y4YS9CAxrvzWffwx6c8PpM6T81q/YWfYRk+utUI8YQeZPsbXJCp9TY6pcIyeYP09gGdD+brPyt573py8lssJedjHiVzpe+51WOuT58Mp+oxGhykpXWOxrksYj7AM6v80t/Yf1Fkmoxcm8JLLNO9KELq6m3BVy3o9kXjs9xtaj8hZ+y/qAxL8dp31VuN+Pmzjx9ZHSyio9S4KE4c49/iu8rrjKiuNlabrcU5xXZ4r3FtkI3QjOEsSXGE12f7AWgqptcm67Fu2R5rv8V4FoAAAAAAAAAAAAAAAAAAAAAAAAAAACpfncv8NfWy0qX53L/DX1sA/zuP8Ahv60TVkHNwU05LmslGqc1ctzOdx5aWWllZwThVRZTFQ+Svkyi+Kfp7wMzorlLfWYT+dHg/8AcaacpKcZtOUJbra7eCefpMdVfyWp83xgm/b/ALEoqvT1NuWEuMpPm2BGlbt90FyypJd2ef1DR/kX+3P/ALmZ0yl59sk07HnD7F2GKHu2WVPg95yj4p/75AaTlb/iy+sP8+j/AITx7UHVZGcpVWqKk8uMo54+HFEG7JZlwlZTLDS4bya/3And+d0Z5Ylj08MfRkuK2q9RUsPKzlNcGn9jIdVqOS1PD9hZ9v8AsBmvHxu3HzY59PH/AGKr/wD+ZUY7nvex4+0viq9PU25YWcyk+bfvKuqnbCdkvNsk04J/o45f++IE9Z8iGfk9ZHe9GffguK4ShfXKMo8eU4PsIdVdHhDUNR/vRy/aBdmO9jK3vpK5fncP8OX1xIyoqjXJ2SbfN2SfFeOewjRKUrq3LL8yeG1htZjxwBfKyEZxhKSUp8Ip9pVqoS34W4c4w5w+1d7RjUwjZfTGSynvfUSrnKE1Ta8t/In87/cC2EozgpQacXyaMlE4Sqm7ak3F8ZwXb4rx+surnGyCnBpxfJgZAAAAAAAAAAAAAAAAAAAAAAAAAAAAAVaP81r/AGUY08lHT70mklKWW/2mZ0f5rX+yjXqcd6KueIKT3M/Jct58/EDbThZDhiUX60UXQ+LVu2ltRisyh2NeHcWSoW851zlXJ88cn6UR6iyeFddvxTzuqOE/SBZqI79E4964PufYyq6TnpqpPtnW/pRLUyyuohxnNY/ZXazN8G9O41rjHDivFcV9QGNd+bS9K+tFxW9zUUPi92a9a/3K5/GKq5TlbCaistbmG16cgS0X5uu/eln/AFMaTlbn5XWyz7eH0YMRl1NrUn+LseYvsT7vWSspzN2Vzdc2sNrin6UBjqru3Uyx4RROqqFeWk3J85N5b9ZXqN6UqsSkoyeHh4fLP2FVOpnGlOUN57qk/PXBP09niBuFUqI7zlXKVcnzceT9XIqetioqTgknylvrd9vf4E1qY7md17+cbiazyz6OQGequ/6qXqgiVdMIS3uMpv8ASk8spjrN5NxhGSSy2rItRXiHrI7qkorHLMpJLPd4gXSqe85QtnDeeWklxfrRmqvccnvOUpc28fYU/G0t1zrcVL5PnJt+hLn2e0LVreacFwzlKabWOfAC6yqM2pZcZR5SXNEHTNpp6ixp8GnGPH6CD1cd+MYRUt54j56Tl6Cm16qclZS5bko5XH0Y58O8DehFQgorklgyQp3+rW/8omAAAAAAAAAAAAAAAAAAAAAAAAAAAEbIqcHFkHTKSxO+yUXzTUeP0Er97qpbrw8GpVqpVrz0t2SUoOdiWU0s/SBuWVwsWJxT7vAr6mxcIaixLuklL6+JW9Yk5Lcw4fLUpJNer1koapTmluYTe78pZz6AJdTOXCy+cl3LEV9BbCMYRUYpJLkka+qtkpuuDaxhPd5tvkl9ZXJWxxl2R4foW73HxyvqA3Wk1h8UU9Q4rFNs6183g19PIjPU9XGKkk5JJSbkkk8cs95Ceq31CEcQlOS47yw1njh9oFqpm5xlZc57rylupcSyyuFixOOccV3o0FqbXFvrIfiks+evO4r7OHpL1rVuqTgkmm1567Oee7Hb3AWdTavk6maXc0mOolLhbdOa7liK+gU3783Bww1zxJP6iiyVkbH50m1ZjhLhjd3uX0AbkYxjFRikkuSQnGM4uM4qUXzTNZ6vDjmuPnfJfWRxL0D45HeacGscWnJKSXfjmBZ1M48K77IrueJfXxHU2P5eosa7liP1cSNuqjB4STSeHJySWe4j8cS3XOvdjLk95PPisc0Beqq1U6lFKDWMIi6ZyTUr7GnzWI+4r+Nvf3FWnLON3fW97DHxyOJLd86LxLzlhdnF+kDZikoqK5JYK+pw31dk603lqOMZ9aK46uDXGPF8I7rTUn3JmPjLtUoQSTfmqUZp4eHw+gC1UvfjOdspuPLKXD2ItNKhaxWrfct3L7eGM+3kboAAAAAAAAAAAAAAAAAAAAAAAAAAACE696W9GcoSxhtY4+1EzV1rsjKKrcm5RlupPHFJv1gXwr3Zb0pynLGE3jh7EYnRCUt9ZhP50XjPp7yha1KLcoJ7qzLdmpNY70jL1sUsuMcNZTU01jOM+AFnVXdmpl64IzGiKkpzlKyS5OXZ6FyFV2+puUVHc5+cng11O26eVnkm1v7iinyTa4tgbpC2uFiSkuK5NPDXoZr0ynCzM5TUVly3pJxSx2P3knq1v7u4s9kXNKT9QE+qu7NTLHjFMlTX1e83JzlJ5baSyas9U3OVsJLcg0tzew3zzw7+70MV6mcJxUnCzrI5WLFweX9HJekDZnTFz34uVc3zcXz9PYzHVX/9VL/Qiv42uKUFmOd7M1hY58fDtJ22SnpZWQzFpZ4vHiBKFEVJTnKVklycny9C5ItNOFsq7ZR4yWVGKlPm8J9vp5eBJaxNN9U+HNKabj6e4C6ymFjUnlSXKUXhkequ7NTLHjBEa9VCSbliKw2mpJp458iL1fn7qqzL5u+t72AWxoTkpWTla1y3uS9S4ErK95qSnKEksZWOXr9BT8cj5y3POjzW8sL0vkjC1fmufVpwXByVia9Hp8ALo1NTU5WSm1yylw9iJWQjZBxmspmu9ZHKxFYayt6ai2vBGZ6yEU2ly+VvPd3X3AWdVZ2aiz2R9xKqtVp4bbby20lx9RrXTvtinSnFpreWfQ+a8MlujV6i+uznx/8AfQBeAAAAAAAAAAAAAAAAAAAAAAAAAAAAAqVMorEL7IxXJJR4fQTjXFV7jW8u3Paaautrsbl50VJxk5TSWeGOfpLPjizGKgt6fyfPWJeh/YBZ1G6sVWzrXcuK9j5DqrX8rUzx4RSK1rE+UFwWW3NJYzj1ll9zjXFxai58cy5RWMtsCdVcK01Fc+bfFv0smaP4117/AOMWeKfW4nj9nGPUWwuddT3t6Ty3FPg8LtfcBZKlbznXOVcnzce31ciMqbZRcZ6iTi1hrcXFEPjkdyTaWFwzGSaz49xVC6zehS7Ytz3XvKa4cFlevsA3t2LhuNJxxjDKuocViq6da7uDX0lFGsbqTlGL3UlKSmuPiu/JbHVKUktzhLOMSTfDnwAzqpxjZSpNRW9lttJJYfvNJTUq4JqK3IQi05ri1JN448eCPptJ80n6Rux+avYB86NsVqOteHHfk93eWeKis49TK+1JOOHQoNqSai+HPHZwx6z6u7HOd1Z9AUYrkkvUB8+62Nyf5OtqqUUnZHzm1y4Pl6fAhpro1TTe7KSi04uSTWW3lZft9B9Pch82PsNe/SQteXutZziUcpPw5NAa9bTdNkN2cYucmocUk5dnfj7CiuMoOG4qFKDymm5LPgt/PtPp0UxqXB5eMcsJLuSLFGKeVFZ78AfIhFJV1yVTinxTkk4LPHtz49p9TTOTog5ZzjtWCbjFvLim/QZAAAAAAAAAAAAAAAAAAAAAAAAAAAAAAIXy3aZvwNGm2NOV+LtbhFP8ZFbuFjHF8vR4n0TG5D5sfYB8/q11SsfyIxjW2v0lybXtXsLtDW1JuUt9w8ze75c5P28PUX31dao+duuLyuCf1maK+qi1nOXl8McQNbVxcbXPKSbUk3yTSaw+7KfM1oKvrYyn1ShninGEm/Z9bPqmFCK5RSz3ID5KjJVVqUYZUpSTk2m0+55S8DNcJeZL8WoQsUvNzwzJZy23nkfVcYtYaTXc0ZwsYwsdwHy08V153fNil8pYeJp8H6C3VVxdrbluwkusfDmlhSXrWDe3Y4xur2FN2mVk5S30lJYacE+HrAnpoONS3vly86XpZqWXRjc5vHC3O7vLON1rOPSb8VhJdxjdjnO6s+gD5cpJVTj5rlKrdWJp4eZPD48OaLFZDfw3DHWzlv7yxhppcfWj6G7H5q9g3Y4xurHoA+ZpbOqjXKUU3FSjhyS5vOU3wfdzMTlHNU1KDUZylKMZJ7vFPH0P1n1HGLWHFNegxOuEouLisNY4AfPrurdNdO9W11kcWb64+dnlzy/QRti+reYwebXOLk2srisJ5XH0vtZs/El1vWb0d75yh53uz44NmMIxgoKK3UsJAfJUZPGOrUesUm4ttxfJNvea9RbpM9cpKNe82sODT3lxy8Jv054cz6SjFLCSS7sBRiuKil6EBkAAAAAAAAAAAAAAAAAAAAAAAAAAAAANTXNdZXFzVaSk3JvGMxa4d5thpPmkwPnq2MlTFVw/F8lGae9wawsentIyq6ndi5fk0p7vzs/o/wCpL2s+ioxTyopP0FE9NvTlLf4SabW6ny5cQJ11bun6pvLae8+9vmzRsTWYzxvPG9FuKeUsZW9wawvUfTMSjGXyop+lAfJ3FKrch1crd9NKMUvN7spYfLiLUpWTwqUpT3suTWO3it7OfUfWSS5JcBux3t7dWe/AHzYKULlOeFJyjNr5OflZwm/HkT00YzlKqWGp1uL48U96XvRvtJvLSZiUE4tcsrGVzA0Kq3OyO9LLm/OWOW6/O9rSNzWS3dNZwzmLS9ZGnT9XYp7yeE0koJY9he+PMD57th1u7vQ3esjPe31jCSX1lO8nVXFbsXGpRac0svei8Lv5M+ruRxjdj7Bux+avYB826alJTglnrlLd3lvNYXZ6UZdkep6luCW/vdZvrvznHPPq5n0d2Oc7qz6BuxzndWe/AHyt+MLpuUoYdu9HMluyw28Z9efSW2SWodu44xlLcjuqSb5vi8f+8Dbv08bVjguGGsZTXiiOn0kKmn5uE8pRjhZ7+9sDRvW9ZY9ylb6Sac3HHDGJecvoXIw9/enKXVty3cprCmkuDSb7Md59Zxi3lxTfig4xfOKfpQGts/8AJtJJRwuCeUnjik+02gkksJYAAAAAAAAAAAAAAAAAAAAAAAAAAAAAAB87rIxu61yg31kmoOaTw0ln0+nvMqHxiUt1KLc3PMWnuvGFx5Zzx9RvuMXziuPgYnBSrcF5qfcBo6aG/cnvZU/xjj81L9H/AFZfqNnWw3op4bjhxklzw1hmaKOrlvOSb3d1Yilw7uBcB8m3z/06d7573JL2Pj6jM4xk7ZVxh1U4RUd5OKT4PjjGMn1NyO9vbqz34M4XcgPk1wlObUVWt5JPDcpYXH5zSJ0tRjFNrCdbbyuGEk89x9KMYx+TFL0IbsePmrjz4AaCipaOh8mkqpNYfPCTXoeGXaGvG9JvOPMT78c363ktup6zd3ZKLjxXmp/WSorVVe4nnjnlgCYAAAAAAAAAAAAAAAAAAAAAAAAAAAAAAAAAAAAAAAAAAAAAAAAAAAAAAAAAAAAAAAAAAAAAAAAAAAAAAAAAAAAAAAAAAAAAAAAAAAAAAAAAAAAAAAAAAAAAAAAAAAAAAAAAAAAAAAAAAAAAAAAAAAAAAAAAAAAAAAAAAAAAAAAAAAAAAAAAAAAAAAAAAAAAAAAAAAAAAAAAAAAAAAAAAAAAAAAAAAAAAAAAAAAAAAAAAAAAAAAAAAAAAAAAAAAAAAAAAAAAAAAAAAAAAAAAAAAAAAAAAAAAAAAAAAAAAAAAAAAAAAAAAAAAAAAAAAAAAAAAAAAAAAAAAAAAAAAAAAADgP8ATTan/T6P/RL+Yf002p/0+j/0S/mONADlX9LNt5rXxHT5s+Quqn53o87iTfSbpEr1Q9l1q1rKh8Xs3mu/GT5ctTZqVs2UtobmoVdidtk8uLzLCb5rPBes27966iiiOr0en3K5KyFOpi96O9Fpb0pc21yz2eoDZh0m6Q2WzqhsyqVlfy4qixuPpWeBVHpftmcpRjo9LJwTckqpvdS5t+cUU23z1G/ZqdE+rlD/AIe3VLdaUcRlvqXnNY/2ENRs1anWR+N3KVrvdk1VHdnlSxh7y7+Cxxb9AG1LpTt6GnWols6mNL5WOmai/XnBKzpP0hrcFZsyqDseIKVFi3n4ceJqUzjXo71btDSyhZCvcvU96xYccR6vPBLHd6y6F/U11wt1WhlN6hvfjqG3anCScpNN7nPg+HF8uAFr6TdIVeqHsytWtZUHRZvNd+Mma+kvSKy2dVey652V434x09jcc8srPA1dTKl1UaXT6qiqyEJylCeq34zTlDzHYsJZ3W8L7S3U3xslKNN2yZTxX1kLmpQjhNYjKXCSWXy48QIz6ZbWhOUJ6XSRlF4adck0+75RzTZt89Ts7TaixRU7aYTko8k2k+B+V7Q6j4/f8W/I9ZLq/wBnPA/UNhf/AMk0H/8ArV/9qA3AAAAAAAAAAAAAAAAAAAAAAAAAAAAAAAAAAAAAAAAAAAAAAAAAAAAAAAAAAAAAAAAAAAAAAAAAAAAAAAAAAAAAAAAAAAAAAAAAAAAAAAAAAAAAAAAAAAAAAAAAAAAAAAAAAAAAAAAAAAAAAAAAAAAAAAAAABxr+hey/wDqNZ/rj/KP6F7L/wCo1n+uP8pyUAca/oXsv/qNZ/rj/KP6F7L/AOo1n+uP8pyUAca/oXsv/qNZ/rj/ACj+hey/+o1n+uP8pyUAca/oXsv/AKjWf64/yj+hey/+o1n+uP8AKclAHGv6F7L/AOo1n+uP8o/oXsv/AKjWf64/ynJQBxr+hey/+o1n+uP8pyHSUQ02lq09bk4VQjCLlzaSxxLAAAAAAAAAAAAAAAAAAAAAAAAAAAAAAAAAAAAAAAAAAAAAAAAAAAAAAAAAAAAAAAAAAAAAAAAAAAAAAAAAAAAAAAAAAAAAAAAAAAAAAAAAAAAAAAAAAAAAAAAAAAAAAAAAAAAAAAAAAAAAAAAAAAAAAAAAAAAH/9k=;clipPath=inset(26% 22.67% 25.67% 23.67%);" parent="1" vertex="1">
          <mxGeometry x="333.79" y="315" width="44.41" height="40" as="geometry" />
        </mxCell>
      </root>
    </mxGraphModel>
  </diagram>
</mxfile>
